<?xml version="1.0" encoding="UTF-8" standalone="no"?>
<!DOCTYPE svg PUBLIC "-//W3C//DTD SVG 1.1//EN"
 "http://www.w3.org/Graphics/SVG/1.1/DTD/svg11.dtd">
<!-- Generated by graphviz version 2.43.0 (0)
 -->
<!-- Title: G Pages: 1 -->
<svg width="500pt" height="1060pt"
 viewBox="0.00 0.00 500.00 1060.00" xmlns="http://www.w3.org/2000/svg" xmlns:xlink="http://www.w3.org/1999/xlink">
<g id="graph0" class="graph" transform="scale(1 1) rotate(0) translate(4 1056)">
<title>G</title>
<polygon fill="white" stroke="transparent" points="-4,4 -4,-1056 496,-1056 496,4 -4,4"/>
<!-- N0 -->
<g id="node1" class="node">
<title>N0</title>
<polygon fill="none" stroke="red" points="152,-144 8,-144 8,0 152,0 152,-144"/>
<text text-anchor="middle" x="80" y="-68.3" font-family="Times,serif" font-size="14.00">s0</text>
</g>
<!-- N1 -->
<g id="node2" class="node">
<title>N1</title>
<ellipse fill="none" stroke="red" cx="246" cy="-72" rx="72" ry="72"/>
<text text-anchor="middle" x="246" y="-68.3" font-family="Times,serif" font-size="14.00">s1</text>
</g>
<!-- N1&#45;&gt;N1 -->
<g id="edge1" class="edge">
<title>N1&#45;&gt;N1</title>
<path fill="none" stroke="black" d="M316.56,-87.96C328.08,-85.68 336,-80.36 336,-72 336,-66.26 332.26,-61.95 326.17,-59.07"/>
<polygon fill="black" stroke="black" points="327.15,-55.71 316.56,-56.04 325.04,-62.39 327.15,-55.71"/>
</g>
<!-- N1&#45;&gt;N1 -->
<g id="edge2" class="edge">
<title>N1&#45;&gt;N1</title>
<path fill="none" stroke="black" d="M309.5,-106.38C333.83,-107.81 354,-96.35 354,-72 354,-51.17 339.24,-39.77 319.74,-37.81"/>
<polygon fill="black" stroke="black" points="319.56,-34.3 309.5,-37.62 319.43,-41.3 319.56,-34.3"/>
</g>
<!-- N2 -->
<g id="node3" class="node">
<title>N2</title>
<polygon fill="none" stroke="blue" points="488,-332 336,-332 336,-180 488,-180 488,-332"/>
<polygon fill="none" stroke="blue" points="492,-336 332,-336 332,-176 492,-176 492,-336"/>
<text text-anchor="middle" x="412" y="-252.3" font-family="Times,serif" font-size="14.00">s2</text>
</g>
<!-- N3 -->
<g id="node4" class="node">
<title>N3</title>
<ellipse fill="none" stroke="blue" cx="80" cy="-256" rx="76" ry="76"/>
<ellipse fill="none" stroke="blue" cx="80" cy="-256" rx="80" ry="80"/>
<text text-anchor="middle" x="80" y="-252.3" font-family="Times,serif" font-size="14.00">s3</text>
</g>
<!-- N3&#45;&gt;N0 -->
<g id="edge3" class="edge">
<title>N3&#45;&gt;N0</title>
<path fill="none" stroke="black" d="M80,-179.92C80,-171.41 80,-162.7 80,-154.11"/>
<polygon fill="black" stroke="black" points="83.5,-154.1 80,-144.1 76.5,-154.1 83.5,-154.1"/>
</g>
<!-- N3&#45;&gt;N1 -->
<g id="edge4" class="edge">
<title>N3&#45;&gt;N1</title>
<path fill="none" stroke="black" d="M131.16,-198.91C150.08,-178.17 171.6,-154.57 190.86,-133.45"/>
<polygon fill="black" stroke="black" points="193.69,-135.55 197.84,-125.8 188.51,-130.83 193.69,-135.55"/>
</g>
<!-- N4 -->
<g id="node5" class="node">
<title>N4</title>
<ellipse fill="none" stroke="red" cx="246" cy="-256" rx="72" ry="72"/>
<text text-anchor="middle" x="246" y="-252.3" font-family="Times,serif" font-size="14.00">s4</text>
</g>
<!-- N4&#45;&gt;N1 -->
<g id="edge5" class="edge">
<title>N4&#45;&gt;N1</title>
<path fill="none" stroke="black" d="M239.4,-184.11C239.25,-174.33 239.21,-164.23 239.28,-154.28"/>
<polygon fill="black" stroke="black" points="242.78,-154.03 239.4,-143.99 235.78,-153.95 242.78,-154.03"/>
</g>
<!-- N4&#45;&gt;N1 -->
<g id="edge6" class="edge">
<title>N4&#45;&gt;N1</title>
<path fill="none" stroke="black" d="M252.6,-184.11C252.75,-174.33 252.79,-164.23 252.72,-154.28"/>
<polygon fill="black" stroke="black" points="256.22,-153.95 252.6,-143.99 249.22,-154.03 256.22,-153.95"/>
</g>
<!-- N5 -->
<g id="node6" class="node">
<title>N5</title>
<polygon fill="none" stroke="blue" points="482,-512 338,-512 338,-368 482,-368 482,-512"/>
<text text-anchor="middle" x="410" y="-436.3" font-family="Times,serif" font-size="14.00">s5</text>
</g>
<!-- N5&#45;&gt;N2 -->
<g id="edge7" class="edge">
<title>N5&#45;&gt;N2</title>
<path fill="none" stroke="black" d="M410.78,-367.85C410.87,-359.4 410.97,-350.7 411.07,-342.08"/>
<polygon fill="black" stroke="black" points="414.57,-342.04 411.18,-332 407.57,-341.96 414.57,-342.04"/>
</g>
<!-- N6 -->
<g id="node7" class="node">
<title>N6</title>
<polygon fill="none" stroke="red" points="318,-512 174,-512 174,-368 318,-368 318,-512"/>
<text text-anchor="middle" x="246" y="-436.3" font-family="Times,serif" font-size="14.00">s6</text>
</g>
<!-- N6&#45;&gt;N3 -->
<g id="edge8" class="edge">
<title>N6&#45;&gt;N3</title>
<path fill="none" stroke="black" d="M181.11,-367.85C166.73,-352.09 151.59,-335.49 137.53,-320.07"/>
<polygon fill="black" stroke="black" points="140.05,-317.64 130.72,-312.61 134.88,-322.36 140.05,-317.64"/>
</g>
<!-- N6&#45;&gt;N4 -->
<g id="edge9" class="edge">
<title>N6&#45;&gt;N4</title>
<path fill="none" stroke="red" d="M246,-367.85C246,-358.16 246,-348.15 246,-338.29"/>
<polygon fill="red" stroke="red" points="249.5,-338.1 246,-328.1 242.5,-338.1 249.5,-338.1"/>
</g>
<!-- N7 -->
<g id="node8" class="node">
<title>N7</title>
<ellipse fill="none" stroke="blue" cx="346" cy="-620" rx="72" ry="72"/>
<text text-anchor="middle" x="346" y="-616.3" font-family="Times,serif" font-size="14.00">s7</text>
</g>
<!-- N7&#45;&gt;N5 -->
<g id="edge10" class="edge">
<title>N7&#45;&gt;N5</title>
<path fill="none" stroke="blue" d="M370.1,-551.96C373.65,-542.1 377.33,-531.86 380.96,-521.76"/>
<polygon fill="blue" stroke="blue" points="384.33,-522.73 384.42,-512.14 377.74,-520.37 384.33,-522.73"/>
</g>
<!-- N7&#45;&gt;N6 -->
<g id="edge11" class="edge">
<title>N7&#45;&gt;N6</title>
<path fill="none" stroke="black" d="M311.02,-556.74C304.5,-545.13 297.6,-532.84 290.82,-520.78"/>
<polygon fill="black" stroke="black" points="293.87,-519.06 285.92,-512.05 287.76,-522.48 293.87,-519.06"/>
</g>
<!-- N8 -->
<g id="node9" class="node">
<title>N8</title>
<polygon fill="none" stroke="blue" points="418,-872 274,-872 274,-728 418,-728 418,-872"/>
<text text-anchor="middle" x="346" y="-796.3" font-family="Times,serif" font-size="14.00">s8</text>
</g>
<!-- N8&#45;&gt;N7 -->
<g id="edge12" class="edge">
<title>N8&#45;&gt;N7</title>
<path fill="none" stroke="black" d="M346,-727.88C346,-719.39 346,-710.67 346,-702.06"/>
<polygon fill="black" stroke="black" points="349.5,-702 346,-692 342.5,-702 349.5,-702"/>
</g>
<!-- N9 -->
<g id="node10" class="node">
<title>N9</title>
<ellipse fill="none" stroke="blue" cx="296" cy="-980" rx="72" ry="72"/>
<text text-anchor="middle" x="296" y="-976.3" font-family="Times,serif" font-size="14.00">s9</text>
</g>
<!-- N9&#45;&gt;N6 -->
<g id="edge13" class="edge">
<title>N9&#45;&gt;N6</title>
<path fill="none" stroke="black" d="M273.78,-911.35C270.28,-898.41 267.12,-884.88 265,-872 245.15,-751.32 242.89,-609.25 243.86,-522.16"/>
<polygon fill="black" stroke="black" points="247.36,-522.12 243.99,-512.08 240.36,-522.03 247.36,-522.12"/>
</g>
<!-- N9&#45;&gt;N8 -->
<g id="edge14" class="edge">
<title>N9&#45;&gt;N8</title>
<path fill="none" stroke="blue" d="M315.26,-910.44C317.87,-901.13 320.58,-891.51 323.24,-882.02"/>
<polygon fill="blue" stroke="blue" points="326.67,-882.75 326.01,-872.18 319.93,-880.86 326.67,-882.75"/>
</g>
</g>
</svg>
