<?xml version="1.0" encoding="UTF-8" standalone="no"?>
<!DOCTYPE svg PUBLIC "-//W3C//DTD SVG 1.1//EN"
 "http://www.w3.org/Graphics/SVG/1.1/DTD/svg11.dtd">
<!-- Generated by graphviz version 2.43.0 (0)
 -->
<!-- Title: G Pages: 1 -->
<svg width="496pt" height="1440pt"
 viewBox="0.00 0.00 496.00 1440.00" xmlns="http://www.w3.org/2000/svg" xmlns:xlink="http://www.w3.org/1999/xlink">
<g id="graph0" class="graph" transform="scale(1 1) rotate(0) translate(4 1436)">
<title>G</title>
<polygon fill="white" stroke="transparent" points="-4,4 -4,-1436 492,-1436 492,4 -4,4"/>
<!-- N0 -->
<g id="node1" class="node">
<title>N0</title>
<polygon fill="none" stroke="red" points="310,-156 158,-156 158,-4 310,-4 310,-156"/>
<polygon fill="none" stroke="red" points="314,-160 154,-160 154,0 314,0 314,-160"/>
<text text-anchor="middle" x="234" y="-76.3" font-family="Times,serif" font-size="14.00">s0</text>
</g>
<!-- N0&#45;&gt;N0 -->
<g id="edge1" class="edge">
<title>N0&#45;&gt;N0</title>
<path fill="none" stroke="black" d="M310.35,-95.73C320.93,-93.14 328,-87.89 328,-80 328,-74.82 324.95,-70.78 319.87,-67.88"/>
<polygon fill="black" stroke="black" points="320.94,-64.55 310.35,-64.27 318.46,-71.09 320.94,-64.55"/>
</g>
<!-- N0&#45;&gt;N0 -->
<g id="edge2" class="edge">
<title>N0&#45;&gt;N0</title>
<path fill="none" stroke="black" d="M310.17,-114.97C330.54,-113.04 346,-101.39 346,-80 346,-62.29 335.4,-51.25 320.18,-46.89"/>
<polygon fill="black" stroke="black" points="320.64,-43.41 310.17,-45.03 319.37,-50.3 320.64,-43.41"/>
</g>
<!-- N1 -->
<g id="node2" class="node">
<title>N1</title>
<ellipse fill="none" stroke="red" cx="234" cy="-268" rx="76" ry="76"/>
<ellipse fill="none" stroke="red" cx="234" cy="-268" rx="80" ry="80"/>
<text text-anchor="middle" x="234" y="-264.3" font-family="Times,serif" font-size="14.00">s1</text>
</g>
<!-- N1&#45;&gt;N0 -->
<g id="edge3" class="edge">
<title>N1&#45;&gt;N0</title>
<path fill="none" stroke="black" d="M227.37,-192.15C227.26,-183.66 227.22,-174.96 227.27,-166.35"/>
<polygon fill="black" stroke="black" points="230.77,-166.33 227.36,-156.3 223.77,-166.27 230.77,-166.33"/>
</g>
<!-- N1&#45;&gt;N0 -->
<g id="edge4" class="edge">
<title>N1&#45;&gt;N0</title>
<path fill="none" stroke="black" d="M240.63,-192.15C240.74,-183.66 240.78,-174.96 240.73,-166.35"/>
<polygon fill="black" stroke="black" points="244.23,-166.27 240.64,-156.3 237.23,-166.33 244.23,-166.27"/>
</g>
<!-- N2 -->
<g id="node3" class="node">
<title>N2</title>
<polygon fill="none" stroke="red" points="476,-532 324,-532 324,-380 476,-380 476,-532"/>
<polygon fill="none" stroke="red" points="480,-536 320,-536 320,-376 480,-376 480,-536"/>
<text text-anchor="middle" x="400" y="-452.3" font-family="Times,serif" font-size="14.00">s2</text>
</g>
<!-- N2&#45;&gt;N0 -->
<g id="edge5" class="edge">
<title>N2&#45;&gt;N0</title>
<path fill="none" stroke="black" d="M384.41,-380C371.39,-325.84 349.93,-251.98 319,-192 314.28,-182.85 308.79,-173.68 302.91,-164.75"/>
<polygon fill="black" stroke="black" points="305.67,-162.59 297.17,-156.27 299.88,-166.51 305.67,-162.59"/>
</g>
<!-- N5 -->
<g id="node4" class="node">
<title>N5</title>
<polygon fill="none" stroke="red" points="471,-712 327,-712 327,-568 471,-568 471,-712"/>
<text text-anchor="middle" x="399" y="-636.3" font-family="Times,serif" font-size="14.00">s5</text>
</g>
<!-- N2&#45;&gt;N5 -->
<g id="edge6" class="edge">
<title>N2&#45;&gt;N5</title>
<path fill="none" stroke="black" d="M406.24,-532C406.3,-540.52 406.27,-549.24 406.16,-557.83"/>
<polygon fill="black" stroke="black" points="402.66,-557.8 406,-567.85 409.66,-557.91 402.66,-557.8"/>
</g>
<!-- N5&#45;&gt;N2 -->
<g id="edge7" class="edge">
<title>N5&#45;&gt;N2</title>
<path fill="none" stroke="red" d="M392.79,-567.85C392.71,-559.4 392.71,-550.7 392.8,-542.08"/>
<polygon fill="red" stroke="red" points="396.3,-542.04 392.93,-532 389.3,-541.95 396.3,-542.04"/>
</g>
<!-- N7 -->
<g id="node5" class="node">
<title>N7</title>
<ellipse fill="none" stroke="red" cx="398" cy="-820" rx="72" ry="72"/>
<text text-anchor="middle" x="398" y="-816.3" font-family="Times,serif" font-size="14.00">s7</text>
</g>
<!-- N5&#45;&gt;N7 -->
<g id="edge8" class="edge">
<title>N5&#45;&gt;N7</title>
<path fill="none" stroke="black" d="M405.23,-712.2C405.3,-720.71 405.28,-729.44 405.18,-738.07"/>
<polygon fill="black" stroke="black" points="401.68,-738.09 405.02,-748.14 408.68,-738.2 401.68,-738.09"/>
</g>
<!-- N7&#45;&gt;N5 -->
<g id="edge9" class="edge">
<title>N7&#45;&gt;N5</title>
<path fill="none" stroke="black" d="M391.77,-748.14C391.7,-739.64 391.72,-730.91 391.82,-722.27"/>
<polygon fill="black" stroke="black" points="395.32,-722.25 391.97,-712.2 388.32,-722.15 395.32,-722.25"/>
</g>
<!-- N6 -->
<g id="node6" class="node">
<title>N6</title>
<polygon fill="none" stroke="red" points="308,-712 164,-712 164,-568 308,-568 308,-712"/>
<text text-anchor="middle" x="236" y="-636.3" font-family="Times,serif" font-size="14.00">s6</text>
</g>
<!-- N7&#45;&gt;N6 -->
<g id="edge10" class="edge">
<title>N7&#45;&gt;N6</title>
<path fill="none" stroke="black" d="M349.83,-766.08C336.61,-751.54 321.98,-735.47 307.73,-719.82"/>
<polygon fill="black" stroke="black" points="310.1,-717.22 300.78,-712.18 304.92,-721.93 310.1,-717.22"/>
</g>
<!-- N3 -->
<g id="node7" class="node">
<title>N3</title>
<ellipse fill="none" stroke="red" cx="72" cy="-456" rx="72" ry="72"/>
<text text-anchor="middle" x="72" y="-452.3" font-family="Times,serif" font-size="14.00">s3</text>
</g>
<!-- N6&#45;&gt;N3 -->
<g id="edge11" class="edge">
<title>N6&#45;&gt;N3</title>
<path fill="none" stroke="red" d="M171.89,-567.85C156.99,-551.32 141.26,-533.86 126.8,-517.82"/>
<polygon fill="red" stroke="red" points="129.11,-515.15 119.82,-510.06 123.91,-519.84 129.11,-515.15"/>
</g>
<!-- N4 -->
<g id="node8" class="node">
<title>N4</title>
<ellipse fill="none" stroke="red" cx="234" cy="-456" rx="72" ry="72"/>
<text text-anchor="middle" x="234" y="-452.3" font-family="Times,serif" font-size="14.00">s4</text>
</g>
<!-- N6&#45;&gt;N4 -->
<g id="edge12" class="edge">
<title>N6&#45;&gt;N4</title>
<path fill="none" stroke="red" d="M235.22,-567.85C235.11,-558.16 235,-548.15 234.89,-538.29"/>
<polygon fill="red" stroke="red" points="238.39,-538.06 234.78,-528.1 231.39,-538.14 238.39,-538.06"/>
</g>
<!-- N3&#45;&gt;N0 -->
<g id="edge13" class="edge">
<title>N3&#45;&gt;N0</title>
<path fill="none" stroke="black" d="M85.1,-385.09C97.04,-330.52 117.65,-253.85 149,-192 153.66,-182.81 159.11,-173.62 164.96,-164.68"/>
<polygon fill="black" stroke="black" points="168,-166.44 170.68,-156.19 162.19,-162.53 168,-166.44"/>
</g>
<!-- N3&#45;&gt;N1 -->
<g id="edge14" class="edge">
<title>N3&#45;&gt;N1</title>
<path fill="none" stroke="black" d="M118.86,-401.2C137.25,-380.09 158.51,-355.67 177.72,-333.61"/>
<polygon fill="black" stroke="black" points="180.49,-335.76 184.42,-325.92 175.21,-331.16 180.49,-335.76"/>
</g>
<!-- N4&#45;&gt;N1 -->
<g id="edge15" class="edge">
<title>N4&#45;&gt;N1</title>
<path fill="none" stroke="black" d="M227.42,-384.15C227.27,-374.3 227.22,-364.09 227.27,-354.01"/>
<polygon fill="black" stroke="black" points="230.77,-354.01 227.36,-343.98 223.77,-353.95 230.77,-354.01"/>
</g>
<!-- N4&#45;&gt;N1 -->
<g id="edge16" class="edge">
<title>N4&#45;&gt;N1</title>
<path fill="none" stroke="black" d="M240.58,-384.15C240.73,-374.3 240.78,-364.09 240.73,-354.01"/>
<polygon fill="black" stroke="black" points="244.23,-353.95 240.64,-343.98 237.23,-354.01 244.23,-353.95"/>
</g>
<!-- N8 -->
<g id="node9" class="node">
<title>N8</title>
<polygon fill="none" stroke="red" points="470,-1072 326,-1072 326,-928 470,-928 470,-1072"/>
<text text-anchor="middle" x="398" y="-996.3" font-family="Times,serif" font-size="14.00">s8</text>
</g>
<!-- N8&#45;&gt;N7 -->
<g id="edge17" class="edge">
<title>N8&#45;&gt;N7</title>
<path fill="none" stroke="red" d="M398,-927.88C398,-919.39 398,-910.67 398,-902.06"/>
<polygon fill="red" stroke="red" points="401.5,-902 398,-892 394.5,-902 401.5,-902"/>
</g>
<!-- N8&#45;&gt;N8 -->
<g id="edge18" class="edge">
<title>N8&#45;&gt;N8</title>
<path fill="none" stroke="black" d="M470.03,-1030.6C480.75,-1025.9 488,-1015.6 488,-1000 488,-989 484.41,-980.69 478.56,-975.07"/>
<polygon fill="black" stroke="black" points="480.29,-972.02 470.03,-969.38 476.41,-977.84 480.29,-972.02"/>
</g>
<!-- N9 -->
<g id="node10" class="node">
<title>N9</title>
<ellipse fill="none" stroke="red" cx="236" cy="-1180" rx="72" ry="72"/>
<text text-anchor="middle" x="236" y="-1176.3" font-family="Times,serif" font-size="14.00">s9</text>
</g>
<!-- N9&#45;&gt;N6 -->
<g id="edge19" class="edge">
<title>N9&#45;&gt;N6</title>
<path fill="none" stroke="black" d="M236,-1107.8C236,-1008.2 236,-827.59 236,-722.62"/>
<polygon fill="black" stroke="black" points="239.5,-722.39 236,-712.39 232.5,-722.39 239.5,-722.39"/>
</g>
<!-- N9&#45;&gt;N8 -->
<g id="edge20" class="edge">
<title>N9&#45;&gt;N8</title>
<path fill="none" stroke="black" d="M284.17,-1126.1C297.39,-1111.5 312.02,-1095.5 326.27,-1079.8"/>
<polygon fill="black" stroke="black" points="329.05,-1081.94 333.22,-1072.2 323.89,-1077.22 329.05,-1081.94"/>
</g>
<!-- N10 -->
<g id="node11" class="node">
<title>N10</title>
<ellipse fill="none" stroke="blue" cx="398" cy="-1180" rx="72" ry="72"/>
<text text-anchor="middle" x="398" y="-1176.3" font-family="Times,serif" font-size="14.00">s10</text>
</g>
<!-- N10&#45;&gt;N8 -->
<g id="edge21" class="edge">
<title>N10&#45;&gt;N8</title>
<path fill="none" stroke="black" d="M398,-1107.9C398,-1099.4 398,-1090.7 398,-1082.1"/>
<polygon fill="black" stroke="black" points="401.5,-1082 398,-1072 394.5,-1082 401.5,-1082"/>
</g>
<!-- N10&#45;&gt;N10 -->
<g id="edge22" class="edge">
<title>N10&#45;&gt;N10</title>
<path fill="none" stroke="blue" d="M462.31,-1213C477.12,-1210.2 488,-1199.2 488,-1180 488,-1165.3 481.62,-1155.4 471.99,-1150.3"/>
<polygon fill="blue" stroke="blue" points="472.9,-1146.91 462.31,-1147 470.65,-1153.54 472.9,-1146.91"/>
</g>
<!-- N11 -->
<g id="node12" class="node">
<title>N11</title>
<polygon fill="none" stroke="blue" points="470,-1432 326,-1432 326,-1288 470,-1288 470,-1432"/>
<text text-anchor="middle" x="398" y="-1356.3" font-family="Times,serif" font-size="14.00">s11</text>
</g>
<!-- N11&#45;&gt;N10 -->
<g id="edge23" class="edge">
<title>N11&#45;&gt;N10</title>
<path fill="none" stroke="black" d="M391.37,-1287.9C391.25,-1279.3 391.22,-1270.5 391.28,-1261.8"/>
<polygon fill="black" stroke="black" points="394.78,-1261.73 391.38,-1251.7 387.78,-1261.66 394.78,-1261.73"/>
</g>
<!-- N11&#45;&gt;N10 -->
<g id="edge24" class="edge">
<title>N11&#45;&gt;N10</title>
<path fill="none" stroke="black" d="M404.63,-1287.9C404.75,-1279.3 404.78,-1270.5 404.72,-1261.8"/>
<polygon fill="black" stroke="black" points="408.22,-1261.66 404.62,-1251.7 401.22,-1261.73 408.22,-1261.66"/>
</g>
</g>
</svg>
