<?xml version="1.0" encoding="UTF-8" standalone="no"?>
<!DOCTYPE svg PUBLIC "-//W3C//DTD SVG 1.1//EN"
 "http://www.w3.org/Graphics/SVG/1.1/DTD/svg11.dtd">
<!-- Generated by graphviz version 2.43.0 (0)
 -->
<!-- Title: G Pages: 1 -->
<svg width="496pt" height="1060pt"
 viewBox="0.00 0.00 496.00 1060.00" xmlns="http://www.w3.org/2000/svg" xmlns:xlink="http://www.w3.org/1999/xlink">
<g id="graph0" class="graph" transform="scale(1 1) rotate(0) translate(4 1056)">
<title>G</title>
<polygon fill="white" stroke="transparent" points="-4,4 -4,-1056 492,-1056 492,4 -4,4"/>
<!-- N0 -->
<g id="node1" class="node">
<title>N0</title>
<polygon fill="none" stroke="red" points="411,-144 267,-144 267,0 411,0 411,-144"/>
<text text-anchor="middle" x="339" y="-68.3" font-family="Times,serif" font-size="14.00">s0</text>
</g>
<!-- N1 -->
<g id="node2" class="node">
<title>N1</title>
<ellipse fill="none" stroke="red" cx="72" cy="-72" rx="72" ry="72"/>
<text text-anchor="middle" x="72" y="-68.3" font-family="Times,serif" font-size="14.00">s1</text>
</g>
<!-- N1&#45;&gt;N1 -->
<g id="edge1" class="edge">
<title>N1&#45;&gt;N1</title>
<path fill="none" stroke="black" d="M142.56,-87.96C154.08,-85.68 162,-80.36 162,-72 162,-66.26 158.26,-61.95 152.17,-59.07"/>
<polygon fill="black" stroke="black" points="153.15,-55.71 142.56,-56.04 151.04,-62.39 153.15,-55.71"/>
</g>
<!-- N1&#45;&gt;N1 -->
<g id="edge2" class="edge">
<title>N1&#45;&gt;N1</title>
<path fill="none" stroke="black" d="M135.5,-106.38C159.83,-107.81 180,-96.35 180,-72 180,-51.17 165.24,-39.77 145.74,-37.81"/>
<polygon fill="black" stroke="black" points="145.56,-34.3 135.5,-37.62 145.43,-41.3 145.56,-34.3"/>
</g>
<!-- N2 -->
<g id="node3" class="node">
<title>N2</title>
<polygon fill="none" stroke="blue" points="484,-332 332,-332 332,-180 484,-180 484,-332"/>
<polygon fill="none" stroke="blue" points="488,-336 328,-336 328,-176 488,-176 488,-336"/>
<text text-anchor="middle" x="408" y="-252.3" font-family="Times,serif" font-size="14.00">s2</text>
</g>
<!-- N2&#45;&gt;N0 -->
<g id="edge3" class="edge">
<title>N2&#45;&gt;N0</title>
<path fill="none" stroke="black" d="M379.54,-179.92C376.24,-171.22 372.86,-162.32 369.54,-153.55"/>
<polygon fill="black" stroke="black" points="372.78,-152.21 365.96,-144.1 366.23,-154.69 372.78,-152.21"/>
</g>
<!-- N3 -->
<g id="node4" class="node">
<title>N3</title>
<ellipse fill="none" stroke="blue" cx="238" cy="-256" rx="76" ry="76"/>
<ellipse fill="none" stroke="blue" cx="238" cy="-256" rx="80" ry="80"/>
<text text-anchor="middle" x="238" y="-252.3" font-family="Times,serif" font-size="14.00">s3</text>
</g>
<!-- N3&#45;&gt;N0 -->
<g id="edge4" class="edge">
<title>N3&#45;&gt;N0</title>
<path fill="none" stroke="black" d="M274.46,-189.29C281.01,-177.5 287.9,-165.08 294.64,-152.93"/>
<polygon fill="black" stroke="black" points="297.72,-154.59 299.52,-144.15 291.6,-151.19 297.72,-154.59"/>
</g>
<!-- N3&#45;&gt;N1 -->
<g id="edge5" class="edge">
<title>N3&#45;&gt;N1</title>
<path fill="none" stroke="black" d="M186.84,-198.91C167.92,-178.17 146.4,-154.57 127.14,-133.45"/>
<polygon fill="black" stroke="black" points="129.49,-130.83 120.16,-125.8 124.31,-135.55 129.49,-130.83"/>
</g>
<!-- N4 -->
<g id="node5" class="node">
<title>N4</title>
<ellipse fill="none" stroke="red" cx="72" cy="-256" rx="72" ry="72"/>
<text text-anchor="middle" x="72" y="-252.3" font-family="Times,serif" font-size="14.00">s4</text>
</g>
<!-- N4&#45;&gt;N1 -->
<g id="edge6" class="edge">
<title>N4&#45;&gt;N1</title>
<path fill="none" stroke="black" d="M65.4,-184.11C65.25,-174.33 65.21,-164.23 65.28,-154.28"/>
<polygon fill="black" stroke="black" points="68.79,-154.03 65.4,-143.99 61.79,-153.95 68.79,-154.03"/>
</g>
<!-- N4&#45;&gt;N1 -->
<g id="edge7" class="edge">
<title>N4&#45;&gt;N1</title>
<path fill="none" stroke="black" d="M78.6,-184.11C78.75,-174.33 78.79,-164.23 78.72,-154.28"/>
<polygon fill="black" stroke="black" points="82.21,-153.95 78.6,-143.99 75.21,-154.03 82.21,-153.95"/>
</g>
<!-- N5 -->
<g id="node6" class="node">
<title>N5</title>
<polygon fill="none" stroke="blue" points="476,-512 332,-512 332,-368 476,-368 476,-512"/>
<text text-anchor="middle" x="404" y="-436.3" font-family="Times,serif" font-size="14.00">s5</text>
</g>
<!-- N5&#45;&gt;N2 -->
<g id="edge8" class="edge">
<title>N5&#45;&gt;N2</title>
<path fill="none" stroke="black" d="M405.56,-367.85C405.75,-359.4 405.94,-350.7 406.13,-342.08"/>
<polygon fill="black" stroke="black" points="409.63,-342.07 406.35,-332 402.63,-341.92 409.63,-342.07"/>
</g>
<!-- N6 -->
<g id="node7" class="node">
<title>N6</title>
<polygon fill="none" stroke="red" points="310,-512 166,-512 166,-368 310,-368 310,-512"/>
<text text-anchor="middle" x="238" y="-436.3" font-family="Times,serif" font-size="14.00">s6</text>
</g>
<!-- N6&#45;&gt;N3 -->
<g id="edge9" class="edge">
<title>N6&#45;&gt;N3</title>
<path fill="none" stroke="black" d="M238,-367.85C238,-359.4 238,-350.7 238,-342.08"/>
<polygon fill="black" stroke="black" points="241.5,-342 238,-332 234.5,-342 241.5,-342"/>
</g>
<!-- N6&#45;&gt;N4 -->
<g id="edge10" class="edge">
<title>N6&#45;&gt;N4</title>
<path fill="none" stroke="red" d="M173.11,-367.85C157.95,-351.23 141.94,-333.68 127.24,-317.57"/>
<polygon fill="red" stroke="red" points="129.46,-314.81 120.14,-309.78 124.29,-319.53 129.46,-314.81"/>
</g>
<!-- N7 -->
<g id="node8" class="node">
<title>N7</title>
<ellipse fill="none" stroke="blue" cx="338" cy="-620" rx="72" ry="72"/>
<text text-anchor="middle" x="338" y="-616.3" font-family="Times,serif" font-size="14.00">s7</text>
</g>
<!-- N7&#45;&gt;N5 -->
<g id="edge11" class="edge">
<title>N7&#45;&gt;N5</title>
<path fill="none" stroke="blue" d="M362.76,-552.21C366.49,-542.17 370.36,-531.72 374.18,-521.43"/>
<polygon fill="blue" stroke="blue" points="377.47,-522.62 377.66,-512.03 370.91,-520.19 377.47,-522.62"/>
</g>
<!-- N7&#45;&gt;N6 -->
<g id="edge12" class="edge">
<title>N7&#45;&gt;N6</title>
<path fill="none" stroke="black" d="M303.02,-556.74C296.5,-545.13 289.6,-532.84 282.82,-520.78"/>
<polygon fill="black" stroke="black" points="285.87,-519.06 277.92,-512.05 279.76,-522.48 285.87,-519.06"/>
</g>
<!-- N8 -->
<g id="node9" class="node">
<title>N8</title>
<polygon fill="none" stroke="blue" points="410,-872 266,-872 266,-728 410,-728 410,-872"/>
<text text-anchor="middle" x="338" y="-796.3" font-family="Times,serif" font-size="14.00">s8</text>
</g>
<!-- N8&#45;&gt;N7 -->
<g id="edge13" class="edge">
<title>N8&#45;&gt;N7</title>
<path fill="none" stroke="black" d="M338,-727.88C338,-719.39 338,-710.67 338,-702.06"/>
<polygon fill="black" stroke="black" points="341.5,-702 338,-692 334.5,-702 341.5,-702"/>
</g>
<!-- N9 -->
<g id="node10" class="node">
<title>N9</title>
<ellipse fill="none" stroke="blue" cx="288" cy="-980" rx="72" ry="72"/>
<text text-anchor="middle" x="288" y="-976.3" font-family="Times,serif" font-size="14.00">s9</text>
</g>
<!-- N9&#45;&gt;N6 -->
<g id="edge14" class="edge">
<title>N9&#45;&gt;N6</title>
<path fill="none" stroke="black" d="M265.78,-911.35C262.28,-898.41 259.12,-884.88 257,-872 237.15,-751.32 234.89,-609.25 235.86,-522.16"/>
<polygon fill="black" stroke="black" points="239.36,-522.12 235.99,-512.08 232.36,-522.03 239.36,-522.12"/>
</g>
<!-- N9&#45;&gt;N8 -->
<g id="edge15" class="edge">
<title>N9&#45;&gt;N8</title>
<path fill="none" stroke="blue" d="M307.26,-910.44C309.87,-901.13 312.58,-891.51 315.24,-882.02"/>
<polygon fill="blue" stroke="blue" points="318.67,-882.75 318.01,-872.18 311.93,-880.86 318.67,-882.75"/>
</g>
</g>
</svg>
