<?xml version="1.0" encoding="UTF-8" standalone="no"?>
<!DOCTYPE svg PUBLIC "-//W3C//DTD SVG 1.1//EN"
 "http://www.w3.org/Graphics/SVG/1.1/DTD/svg11.dtd">
<!-- Generated by graphviz version 2.43.0 (0)
 -->
<!-- Title: G Pages: 1 -->
<svg width="476pt" height="1060pt"
 viewBox="0.00 0.00 476.00 1060.00" xmlns="http://www.w3.org/2000/svg" xmlns:xlink="http://www.w3.org/1999/xlink">
<g id="graph0" class="graph" transform="scale(1 1) rotate(0) translate(4 1056)">
<title>G</title>
<polygon fill="white" stroke="transparent" points="-4,4 -4,-1056 472,-1056 472,4 -4,4"/>
<!-- N0 -->
<g id="node1" class="node">
<title>N0</title>
<polygon fill="none" stroke="red" points="405,-144 261,-144 261,0 405,0 405,-144"/>
<text text-anchor="middle" x="333" y="-68.3" font-family="Times,serif" font-size="14.00">s0</text>
</g>
<!-- N1 -->
<g id="node2" class="node">
<title>N1</title>
<ellipse fill="none" stroke="red" cx="72" cy="-72" rx="72" ry="72"/>
<text text-anchor="middle" x="72" y="-68.3" font-family="Times,serif" font-size="14.00">s1</text>
</g>
<!-- N1&#45;&gt;N1 -->
<g id="edge1" class="edge">
<title>N1&#45;&gt;N1</title>
<path fill="none" stroke="black" d="M142.56,-87.61C154.08,-85.38 162,-80.17 162,-72 162,-66.38 158.26,-62.16 152.17,-59.35"/>
<polygon fill="black" stroke="black" points="153.15,-55.99 142.56,-56.39 151.08,-62.68 153.15,-55.99"/>
</g>
<!-- N1&#45;&gt;N1 -->
<g id="edge2" class="edge">
<title>N1&#45;&gt;N1</title>
<path fill="none" stroke="black" d="M135.77,-105.65C159.98,-106.95 180,-95.73 180,-72 180,-51.7 165.35,-40.56 145.96,-38.57"/>
<polygon fill="black" stroke="black" points="145.84,-35.07 135.77,-38.35 145.69,-42.07 145.84,-35.07"/>
</g>
<!-- N2 -->
<g id="node3" class="node">
<title>N2</title>
<polygon fill="none" stroke="red" points="468,-324 324,-324 324,-180 468,-180 468,-324"/>
<text text-anchor="middle" x="396" y="-248.3" font-family="Times,serif" font-size="14.00">s2</text>
</g>
<!-- N2&#45;&gt;N0 -->
<g id="edge3" class="edge">
<title>N2&#45;&gt;N0</title>
<path fill="none" stroke="red" d="M370.83,-179.88C367.76,-171.21 364.6,-162.29 361.49,-153.49"/>
<polygon fill="red" stroke="red" points="364.77,-152.26 358.13,-144 358.17,-154.59 364.77,-152.26"/>
</g>
<!-- N3 -->
<g id="node4" class="node">
<title>N3</title>
<ellipse fill="none" stroke="red" cx="234" cy="-252" rx="72" ry="72"/>
<text text-anchor="middle" x="234" y="-248.3" font-family="Times,serif" font-size="14.00">s3</text>
</g>
<!-- N3&#45;&gt;N0 -->
<g id="edge4" class="edge">
<title>N3&#45;&gt;N0</title>
<path fill="none" stroke="black" d="M268.63,-188.74C275.02,-177.24 281.79,-165.08 288.43,-153.13"/>
<polygon fill="black" stroke="black" points="291.68,-154.49 293.48,-144.05 285.56,-151.09 291.68,-154.49"/>
</g>
<!-- N3&#45;&gt;N1 -->
<g id="edge5" class="edge">
<title>N3&#45;&gt;N1</title>
<path fill="none" stroke="black" d="M185.83,-198.08C167.31,-177.72 146.03,-154.34 126.92,-133.34"/>
<polygon fill="black" stroke="black" points="129.3,-130.76 119.98,-125.72 124.13,-135.47 129.3,-130.76"/>
</g>
<!-- N4 -->
<g id="node5" class="node">
<title>N4</title>
<ellipse fill="none" stroke="red" cx="72" cy="-252" rx="72" ry="72"/>
<text text-anchor="middle" x="72" y="-248.3" font-family="Times,serif" font-size="14.00">s4</text>
</g>
<!-- N4&#45;&gt;N1 -->
<g id="edge6" class="edge">
<title>N4&#45;&gt;N1</title>
<path fill="none" stroke="black" d="M65.38,-180.14C65.25,-171.57 65.22,-162.76 65.27,-154.06"/>
<polygon fill="black" stroke="black" points="68.78,-153.94 65.38,-143.91 61.78,-153.87 68.78,-153.94"/>
</g>
<!-- N4&#45;&gt;N1 -->
<g id="edge7" class="edge">
<title>N4&#45;&gt;N1</title>
<path fill="none" stroke="black" d="M78.62,-180.14C78.75,-171.57 78.78,-162.76 78.73,-154.06"/>
<polygon fill="black" stroke="black" points="82.22,-153.87 78.62,-143.91 75.22,-153.94 82.22,-153.87"/>
</g>
<!-- N5 -->
<g id="node6" class="node">
<title>N5</title>
<polygon fill="none" stroke="red" points="468,-504 324,-504 324,-360 468,-360 468,-504"/>
<text text-anchor="middle" x="396" y="-428.3" font-family="Times,serif" font-size="14.00">s5</text>
</g>
<!-- N5&#45;&gt;N2 -->
<g id="edge8" class="edge">
<title>N5&#45;&gt;N2</title>
<path fill="none" stroke="red" d="M396,-359.88C396,-351.39 396,-342.67 396,-334.06"/>
<polygon fill="red" stroke="red" points="399.5,-334 396,-324 392.5,-334 399.5,-334"/>
</g>
<!-- N6 -->
<g id="node7" class="node">
<title>N6</title>
<polygon fill="none" stroke="red" points="306,-504 162,-504 162,-360 306,-360 306,-504"/>
<text text-anchor="middle" x="234" y="-428.3" font-family="Times,serif" font-size="14.00">s6</text>
</g>
<!-- N6&#45;&gt;N3 -->
<g id="edge9" class="edge">
<title>N6&#45;&gt;N3</title>
<path fill="none" stroke="red" d="M234,-359.88C234,-351.39 234,-342.67 234,-334.06"/>
<polygon fill="red" stroke="red" points="237.5,-334 234,-324 230.5,-334 237.5,-334"/>
</g>
<!-- N6&#45;&gt;N4 -->
<g id="edge10" class="edge">
<title>N6&#45;&gt;N4</title>
<path fill="none" stroke="red" d="M169.27,-359.88C155.32,-344.54 140.68,-328.47 127.13,-313.58"/>
<polygon fill="red" stroke="red" points="129.47,-310.95 120.15,-305.91 124.29,-315.66 129.47,-310.95"/>
</g>
<!-- N7 -->
<g id="node8" class="node">
<title>N7</title>
<ellipse fill="none" stroke="blue" cx="338" cy="-616" rx="76" ry="76"/>
<ellipse fill="none" stroke="blue" cx="338" cy="-616" rx="80" ry="80"/>
<text text-anchor="middle" x="338" y="-612.3" font-family="Times,serif" font-size="14.00">s7</text>
</g>
<!-- N7&#45;&gt;N5 -->
<g id="edge11" class="edge">
<title>N7&#45;&gt;N5</title>
<path fill="none" stroke="black" d="M360.84,-543.33C363.93,-533.63 367.12,-523.63 370.26,-513.78"/>
<polygon fill="black" stroke="black" points="373.67,-514.6 373.37,-504.01 367,-512.48 373.67,-514.6"/>
</g>
<!-- N7&#45;&gt;N6 -->
<g id="edge12" class="edge">
<title>N7&#45;&gt;N6</title>
<path fill="none" stroke="black" d="M300.6,-549.55C293.81,-537.66 286.65,-525.14 279.65,-512.88"/>
<polygon fill="black" stroke="black" points="282.59,-510.97 274.59,-504.03 276.52,-514.45 282.59,-510.97"/>
</g>
<!-- N8 -->
<g id="node9" class="node">
<title>N8</title>
<polygon fill="none" stroke="blue" points="408,-872 264,-872 264,-728 408,-728 408,-872"/>
<text text-anchor="middle" x="336" y="-796.3" font-family="Times,serif" font-size="14.00">s8</text>
</g>
<!-- N8&#45;&gt;N7 -->
<g id="edge13" class="edge">
<title>N8&#45;&gt;N7</title>
<path fill="none" stroke="black" d="M336.78,-727.85C336.87,-719.4 336.97,-710.7 337.07,-702.08"/>
<polygon fill="black" stroke="black" points="340.57,-702.04 337.18,-692 333.57,-701.96 340.57,-702.04"/>
</g>
<!-- N9 -->
<g id="node10" class="node">
<title>N9</title>
<ellipse fill="none" stroke="blue" cx="285" cy="-980" rx="72" ry="72"/>
<text text-anchor="middle" x="285" y="-976.3" font-family="Times,serif" font-size="14.00">s9</text>
</g>
<!-- N9&#45;&gt;N6 -->
<g id="edge14" class="edge">
<title>N9&#45;&gt;N6</title>
<path fill="none" stroke="black" d="M263.47,-911.02C260.11,-898.17 257.07,-884.76 255,-872 234.99,-748.47 232,-603.04 232.44,-514.47"/>
<polygon fill="black" stroke="black" points="235.94,-514.24 232.5,-504.22 228.94,-514.2 235.94,-514.24"/>
</g>
<!-- N9&#45;&gt;N8 -->
<g id="edge15" class="edge">
<title>N9&#45;&gt;N8</title>
<path fill="none" stroke="blue" d="M304.57,-910.69C307.29,-901.2 310.1,-891.39 312.88,-881.7"/>
<polygon fill="blue" stroke="blue" points="316.25,-882.66 315.64,-872.08 309.52,-880.73 316.25,-882.66"/>
</g>
</g>
</svg>
