<?xml version="1.0" encoding="UTF-8" standalone="no"?>
<!DOCTYPE svg PUBLIC "-//W3C//DTD SVG 1.1//EN"
 "http://www.w3.org/Graphics/SVG/1.1/DTD/svg11.dtd">
<!-- Generated by graphviz version 2.43.0 (0)
 -->
<!-- Title: G Pages: 1 -->
<svg width="652pt" height="1248pt"
 viewBox="0.00 0.00 652.00 1248.00" xmlns="http://www.w3.org/2000/svg" xmlns:xlink="http://www.w3.org/1999/xlink">
<g id="graph0" class="graph" transform="scale(1 1) rotate(0) translate(4 1244)">
<title>G</title>
<polygon fill="white" stroke="transparent" points="-4,4 -4,-1244 648,-1244 648,4 -4,4"/>
<!-- N0 -->
<g id="node1" class="node">
<title>N0</title>
<ellipse fill="none" stroke="red" cx="414" cy="-796" rx="76" ry="76"/>
<ellipse fill="none" stroke="red" cx="414" cy="-796" rx="80" ry="80"/>
<text text-anchor="middle" x="414" y="-792.3" font-family="Times,serif" font-size="14.00">s0</text>
</g>
<!-- N9 -->
<g id="node2" class="node">
<title>N9</title>
<ellipse fill="none" stroke="blue" cx="572" cy="-252" rx="72" ry="72"/>
<text text-anchor="middle" x="572" y="-248.3" font-family="Times,serif" font-size="14.00">s9</text>
</g>
<!-- N0&#45;&gt;N9 -->
<g id="edge1" class="edge">
<title>N0&#45;&gt;N9</title>
<path fill="none" stroke="black" d="M435.06,-722.75C464.73,-620.98 518.61,-436.15 549.19,-331.24"/>
<polygon fill="black" stroke="black" points="552.64,-331.92 552.08,-321.34 545.92,-329.96 552.64,-331.92"/>
</g>
<!-- N5 -->
<g id="node3" class="node">
<title>N5</title>
<polygon fill="none" stroke="blue" points="282,-684 138,-684 138,-540 282,-540 282,-684"/>
<text text-anchor="middle" x="210" y="-608.3" font-family="Times,serif" font-size="14.00">s5</text>
</g>
<!-- N0&#45;&gt;N5 -->
<g id="edge2" class="edge">
<title>N0&#45;&gt;N5</title>
<path fill="none" stroke="black" d="M357.72,-744.79C336.74,-726.07 312.5,-704.45 289.81,-684.2"/>
<polygon fill="black" stroke="black" points="291.97,-681.44 282.18,-677.4 287.32,-686.67 291.97,-681.44"/>
</g>
<!-- N11 -->
<g id="node4" class="node">
<title>N11</title>
<ellipse fill="none" stroke="blue" cx="148" cy="-72" rx="72" ry="72"/>
<text text-anchor="middle" x="148" y="-68.3" font-family="Times,serif" font-size="14.00">s11</text>
</g>
<!-- N9&#45;&gt;N11 -->
<g id="edge3" class="edge">
<title>N9&#45;&gt;N11</title>
<path fill="none" stroke="blue" d="M517.36,-205C506.25,-195.79 494.23,-186.86 482,-180 401.23,-134.71 298.8,-105.97 228.74,-89.81"/>
<polygon fill="blue" stroke="blue" points="229.17,-86.31 218.64,-87.51 227.62,-93.14 229.17,-86.31"/>
</g>
<!-- N5&#45;&gt;N11 -->
<g id="edge4" class="edge">
<title>N5&#45;&gt;N11</title>
<path fill="none" stroke="black" d="M197.86,-539.83C188.32,-481.87 175.32,-397.85 167,-324 160.63,-267.44 155.83,-203.47 152.64,-154.26"/>
<polygon fill="black" stroke="black" points="156.11,-153.74 151.98,-143.99 149.13,-154.19 156.11,-153.74"/>
</g>
<!-- N6 -->
<g id="node5" class="node">
<title>N6</title>
<ellipse fill="none" stroke="blue" cx="410" cy="-432" rx="72" ry="72"/>
<text text-anchor="middle" x="410" y="-428.3" font-family="Times,serif" font-size="14.00">s6</text>
</g>
<!-- N5&#45;&gt;N6 -->
<g id="edge5" class="edge">
<title>N5&#45;&gt;N6</title>
<path fill="none" stroke="black" d="M282.2,-546.74C304.03,-527.31 327.77,-506.18 348.8,-487.47"/>
<polygon fill="black" stroke="black" points="351.28,-489.95 356.42,-480.69 346.62,-484.72 351.28,-489.95"/>
</g>
<!-- N11&#45;&gt;N9 -->
<g id="edge6" class="edge">
<title>N11&#45;&gt;N9</title>
<path fill="none" stroke="blue" d="M219.1,-84.73C292.98,-99.58 409.95,-129.51 500,-180 505.81,-183.26 511.57,-186.98 517.16,-190.98"/>
<polygon fill="blue" stroke="blue" points="515.11,-193.82 525.21,-197.01 519.3,-188.21 515.11,-193.82"/>
</g>
<!-- N6&#45;&gt;N9 -->
<g id="edge7" class="edge">
<title>N6&#45;&gt;N9</title>
<path fill="none" stroke="blue" d="M458.17,-378.08C476.69,-357.72 497.97,-334.34 517.08,-313.34"/>
<polygon fill="blue" stroke="blue" points="519.87,-315.47 524.02,-305.72 514.7,-310.76 519.87,-315.47"/>
</g>
<!-- N3 -->
<g id="node6" class="node">
<title>N3</title>
<ellipse fill="none" stroke="blue" cx="410" cy="-252" rx="72" ry="72"/>
<text text-anchor="middle" x="410" y="-248.3" font-family="Times,serif" font-size="14.00">s3</text>
</g>
<!-- N6&#45;&gt;N3 -->
<g id="edge8" class="edge">
<title>N6&#45;&gt;N3</title>
<path fill="none" stroke="blue" d="M403.38,-360.14C403.26,-351.57 403.22,-342.76 403.27,-334.06"/>
<polygon fill="blue" stroke="blue" points="406.77,-333.95 403.38,-323.91 399.77,-333.87 406.77,-333.95"/>
</g>
<!-- N10 -->
<g id="node7" class="node">
<title>N10</title>
<ellipse fill="none" stroke="blue" cx="248" cy="-252" rx="72" ry="72"/>
<text text-anchor="middle" x="248" y="-248.3" font-family="Times,serif" font-size="14.00">s10</text>
</g>
<!-- N6&#45;&gt;N10 -->
<g id="edge9" class="edge">
<title>N6&#45;&gt;N10</title>
<path fill="none" stroke="blue" d="M358.75,-381.42C339.81,-361.35 318.37,-337.94 299.42,-316.64"/>
<polygon fill="blue" stroke="blue" points="301.81,-314.06 292.56,-308.9 296.57,-318.71 301.81,-314.06"/>
</g>
<!-- N3&#45;&gt;N6 -->
<g id="edge10" class="edge">
<title>N3&#45;&gt;N6</title>
<path fill="none" stroke="blue" d="M416.62,-323.91C416.74,-332.48 416.78,-341.29 416.73,-349.99"/>
<polygon fill="blue" stroke="blue" points="413.23,-350.1 416.62,-360.14 420.23,-350.18 413.23,-350.1"/>
</g>
<!-- N10&#45;&gt;N5 -->
<g id="edge11" class="edge">
<title>N10&#45;&gt;N5</title>
<path fill="none" stroke="blue" d="M240.49,-323.72C234.2,-382.99 225.22,-467.64 218.63,-529.7"/>
<polygon fill="blue" stroke="blue" points="215.13,-529.53 217.55,-539.84 222.09,-530.27 215.13,-529.53"/>
</g>
<!-- N10&#45;&gt;N6 -->
<g id="edge12" class="edge">
<title>N10&#45;&gt;N6</title>
<path fill="none" stroke="blue" d="M299.27,-302.61C318.23,-322.69 339.68,-346.12 358.64,-367.42"/>
<polygon fill="blue" stroke="blue" points="356.25,-370 365.5,-375.17 361.49,-365.36 356.25,-370"/>
</g>
<!-- N1 -->
<g id="node8" class="node">
<title>N1</title>
<ellipse fill="none" stroke="blue" cx="153" cy="-796" rx="72" ry="72"/>
<text text-anchor="middle" x="153" y="-792.3" font-family="Times,serif" font-size="14.00">s1</text>
</g>
<!-- N1&#45;&gt;N5 -->
<g id="edge13" class="edge">
<title>N1&#45;&gt;N5</title>
<path fill="none" stroke="blue" d="M174.31,-726.97C177.68,-716.19 181.2,-704.96 184.66,-693.92"/>
<polygon fill="blue" stroke="blue" points="188.03,-694.88 187.67,-684.29 181.35,-692.79 188.03,-694.88"/>
</g>
<!-- N1&#45;&gt;N11 -->
<g id="edge14" class="edge">
<title>N1&#45;&gt;N11</title>
<path fill="none" stroke="blue" d="M135.72,-726.09C132.93,-712.24 130.47,-697.72 129,-684 108.78,-494.82 126.2,-270.96 138.45,-153.77"/>
<polygon fill="blue" stroke="blue" points="141.93,-154.11 139.51,-143.8 134.97,-153.37 141.93,-154.11"/>
</g>
<!-- N2 -->
<g id="node9" class="node">
<title>N2</title>
<polygon fill="none" stroke="blue" points="144,-1240 0,-1240 0,-1096 144,-1096 144,-1240"/>
<text text-anchor="middle" x="72" y="-1164.3" font-family="Times,serif" font-size="14.00">s2</text>
</g>
<!-- N2&#45;&gt;N11 -->
<g id="edge15" class="edge">
<title>N2&#45;&gt;N11</title>
<path fill="none" stroke="black" d="M58.3,-1095.8C56.31,-1083.9 54.45,-1071.6 53,-1060 38.51,-943.71 34,-914.19 34,-797 34,-797 34,-797 34,-431 34,-328.15 77.24,-216.19 110.46,-145.36"/>
<polygon fill="black" stroke="black" points="113.74,-146.6 114.87,-136.07 107.42,-143.6 113.74,-146.6"/>
</g>
<!-- N4 -->
<g id="node10" class="node">
<title>N4</title>
<polygon fill="none" stroke="blue" points="206,-1056 62,-1056 62,-912 206,-912 206,-1056"/>
<text text-anchor="middle" x="134" y="-980.3" font-family="Times,serif" font-size="14.00">s4</text>
</g>
<!-- N2&#45;&gt;N4 -->
<g id="edge16" class="edge">
<title>N2&#45;&gt;N4</title>
<path fill="none" stroke="black" d="M96.24,-1095.9C99.61,-1086 103.09,-1075.7 106.52,-1065.7"/>
<polygon fill="black" stroke="black" points="109.88,-1066.69 109.78,-1056.1 103.25,-1064.44 109.88,-1066.69"/>
</g>
<!-- N4&#45;&gt;N1 -->
<g id="edge17" class="edge">
<title>N4&#45;&gt;N1</title>
<path fill="none" stroke="black" d="M141.26,-911.89C142.4,-900.81 143.57,-889.3 144.72,-878.03"/>
<polygon fill="black" stroke="black" points="148.23,-878.07 145.77,-867.77 141.27,-877.36 148.23,-878.07"/>
</g>
<!-- N7 -->
<g id="node11" class="node">
<title>N7</title>
<polygon fill="none" stroke="red" points="471,-1060 319,-1060 319,-908 471,-908 471,-1060"/>
<polygon fill="none" stroke="red" points="475,-1064 315,-1064 315,-904 475,-904 475,-1064"/>
<text text-anchor="middle" x="395" y="-980.3" font-family="Times,serif" font-size="14.00">s7</text>
</g>
<!-- N7&#45;&gt;N0 -->
<g id="edge18" class="edge">
<title>N7&#45;&gt;N0</title>
<path fill="none" stroke="black" d="M402.67,-907.88C403.55,-899.33 404.44,-890.57 405.33,-881.9"/>
<polygon fill="black" stroke="black" points="408.83,-882.09 406.36,-871.79 401.86,-881.38 408.83,-882.09"/>
</g>
<!-- N7&#45;&gt;N3 -->
<g id="edge19" class="edge">
<title>N7&#45;&gt;N3</title>
<path fill="none" stroke="black" d="M471.24,-917.11C482.58,-903.44 492.59,-888.21 499,-872 526.09,-803.46 543.01,-509.35 491,-360 485.24,-343.45 475.86,-327.38 465.5,-312.95"/>
<polygon fill="black" stroke="black" points="468.09,-310.57 459.31,-304.64 462.48,-314.75 468.09,-310.57"/>
</g>
<!-- N7&#45;&gt;N10 -->
<g id="edge20" class="edge">
<title>N7&#45;&gt;N10</title>
<path fill="none" stroke="black" d="M344.6,-907.7C338.52,-896.12 333.05,-884 329,-872 281.55,-731.27 310.45,-687.24 291,-540 281.77,-470.15 269.79,-390.96 260.82,-333.49"/>
<polygon fill="black" stroke="black" points="264.24,-332.72 259.24,-323.38 257.33,-333.8 264.24,-332.72"/>
</g>
<!-- N8 -->
<g id="node12" class="node">
<title>N8</title>
<ellipse fill="none" stroke="blue" cx="272" cy="-1168" rx="72" ry="72"/>
<text text-anchor="middle" x="272" y="-1164.3" font-family="Times,serif" font-size="14.00">s8</text>
</g>
<!-- N8&#45;&gt;N5 -->
<g id="edge21" class="edge">
<title>N8&#45;&gt;N5</title>
<path fill="none" stroke="blue" d="M268.93,-1095.8C264.44,-1007.3 254.29,-851.82 234,-720 232.7,-711.52 231.11,-702.72 229.37,-693.96"/>
<polygon fill="blue" stroke="blue" points="232.79,-693.21 227.36,-684.11 225.93,-694.61 232.79,-693.21"/>
</g>
<!-- N8&#45;&gt;N1 -->
<g id="edge22" class="edge">
<title>N8&#45;&gt;N1</title>
<path fill="none" stroke="blue" d="M262.2,-1096.4C253.48,-1043.4 238.42,-969.66 215,-908 209.75,-894.17 202.99,-879.97 195.89,-866.54"/>
<polygon fill="blue" stroke="blue" points="198.77,-864.51 190.92,-857.39 192.62,-867.85 198.77,-864.51"/>
</g>
<!-- N8&#45;&gt;N7 -->
<g id="edge23" class="edge">
<title>N8&#45;&gt;N7</title>
<path fill="none" stroke="black" d="M311.93,-1107.9C320.39,-1095.4 329.48,-1082 338.42,-1068.7"/>
<polygon fill="black" stroke="black" points="341.54,-1070.34 344.27,-1060.1 335.75,-1066.4 341.54,-1070.34"/>
</g>
</g>
</svg>
