<?xml version="1.0" encoding="UTF-8" standalone="no"?>
<!DOCTYPE svg PUBLIC "-//W3C//DTD SVG 1.1//EN"
 "http://www.w3.org/Graphics/SVG/1.1/DTD/svg11.dtd">
<!-- Generated by graphviz version 2.43.0 (0)
 -->
<!-- Title: G Pages: 1 -->
<svg width="508pt" height="1440pt"
 viewBox="0.00 0.00 508.00 1440.00" xmlns="http://www.w3.org/2000/svg" xmlns:xlink="http://www.w3.org/1999/xlink">
<g id="graph0" class="graph" transform="scale(1 1) rotate(0) translate(4 1436)">
<title>G</title>
<polygon fill="white" stroke="transparent" points="-4,4 -4,-1436 504,-1436 504,4 -4,4"/>
<!-- N0 -->
<g id="node1" class="node">
<title>N0</title>
<polygon fill="none" stroke="red" points="322,-156 170,-156 170,-4 322,-4 322,-156"/>
<polygon fill="none" stroke="red" points="326,-160 166,-160 166,0 326,0 326,-160"/>
<text text-anchor="middle" x="246" y="-76.3" font-family="Times,serif" font-size="14.00">s0</text>
</g>
<!-- N0&#45;&gt;N0 -->
<g id="edge1" class="edge">
<title>N0&#45;&gt;N0</title>
<path fill="none" stroke="black" d="M322.35,-95.73C332.93,-93.14 340,-87.89 340,-80 340,-74.82 336.95,-70.78 331.87,-67.88"/>
<polygon fill="black" stroke="black" points="332.94,-64.55 322.35,-64.27 330.46,-71.09 332.94,-64.55"/>
</g>
<!-- N0&#45;&gt;N0 -->
<g id="edge2" class="edge">
<title>N0&#45;&gt;N0</title>
<path fill="none" stroke="black" d="M322.17,-114.97C342.54,-113.04 358,-101.39 358,-80 358,-62.29 347.4,-51.25 332.18,-46.89"/>
<polygon fill="black" stroke="black" points="332.64,-43.41 322.17,-45.03 331.37,-50.3 332.64,-43.41"/>
</g>
<!-- N1 -->
<g id="node2" class="node">
<title>N1</title>
<ellipse fill="none" stroke="red" cx="246" cy="-268" rx="76" ry="76"/>
<ellipse fill="none" stroke="red" cx="246" cy="-268" rx="80" ry="80"/>
<text text-anchor="middle" x="246" y="-264.3" font-family="Times,serif" font-size="14.00">s1</text>
</g>
<!-- N1&#45;&gt;N0 -->
<g id="edge3" class="edge">
<title>N1&#45;&gt;N0</title>
<path fill="none" stroke="black" d="M239.37,-192.15C239.26,-183.66 239.22,-174.96 239.27,-166.35"/>
<polygon fill="black" stroke="black" points="242.77,-166.33 239.36,-156.3 235.77,-166.27 242.77,-166.33"/>
</g>
<!-- N1&#45;&gt;N0 -->
<g id="edge4" class="edge">
<title>N1&#45;&gt;N0</title>
<path fill="none" stroke="black" d="M252.63,-192.15C252.74,-183.66 252.78,-174.96 252.73,-166.35"/>
<polygon fill="black" stroke="black" points="256.23,-166.27 252.64,-156.3 249.23,-166.33 256.23,-166.27"/>
</g>
<!-- N2 -->
<g id="node3" class="node">
<title>N2</title>
<polygon fill="none" stroke="red" points="488,-532 336,-532 336,-380 488,-380 488,-532"/>
<polygon fill="none" stroke="red" points="492,-536 332,-536 332,-376 492,-376 492,-536"/>
<text text-anchor="middle" x="412" y="-452.3" font-family="Times,serif" font-size="14.00">s2</text>
</g>
<!-- N2&#45;&gt;N0 -->
<g id="edge5" class="edge">
<title>N2&#45;&gt;N0</title>
<path fill="none" stroke="black" d="M396.41,-380C383.39,-325.84 361.93,-251.98 331,-192 326.28,-182.85 320.79,-173.68 314.91,-164.75"/>
<polygon fill="black" stroke="black" points="317.67,-162.59 309.17,-156.27 311.88,-166.51 317.67,-162.59"/>
</g>
<!-- N5 -->
<g id="node4" class="node">
<title>N5</title>
<polygon fill="none" stroke="red" points="483,-712 339,-712 339,-568 483,-568 483,-712"/>
<text text-anchor="middle" x="411" y="-636.3" font-family="Times,serif" font-size="14.00">s5</text>
</g>
<!-- N2&#45;&gt;N5 -->
<g id="edge6" class="edge">
<title>N2&#45;&gt;N5</title>
<path fill="none" stroke="black" d="M418.24,-532C418.3,-540.52 418.27,-549.24 418.16,-557.83"/>
<polygon fill="black" stroke="black" points="414.66,-557.8 418,-567.85 421.66,-557.91 414.66,-557.8"/>
</g>
<!-- N5&#45;&gt;N2 -->
<g id="edge7" class="edge">
<title>N5&#45;&gt;N2</title>
<path fill="none" stroke="red" d="M404.79,-567.85C404.71,-559.4 404.71,-550.7 404.8,-542.08"/>
<polygon fill="red" stroke="red" points="408.3,-542.04 404.93,-532 401.3,-541.95 408.3,-542.04"/>
</g>
<!-- N7 -->
<g id="node5" class="node">
<title>N7</title>
<ellipse fill="none" stroke="red" cx="410" cy="-820" rx="72" ry="72"/>
<text text-anchor="middle" x="410" y="-816.3" font-family="Times,serif" font-size="14.00">s7</text>
</g>
<!-- N5&#45;&gt;N7 -->
<g id="edge8" class="edge">
<title>N5&#45;&gt;N7</title>
<path fill="none" stroke="black" d="M417.23,-712.2C417.3,-720.71 417.28,-729.44 417.18,-738.07"/>
<polygon fill="black" stroke="black" points="413.68,-738.09 417.02,-748.14 420.68,-738.2 413.68,-738.09"/>
</g>
<!-- N7&#45;&gt;N5 -->
<g id="edge9" class="edge">
<title>N7&#45;&gt;N5</title>
<path fill="none" stroke="black" d="M403.77,-748.14C403.7,-739.64 403.72,-730.91 403.82,-722.27"/>
<polygon fill="black" stroke="black" points="407.32,-722.25 403.97,-712.2 400.32,-722.15 407.32,-722.25"/>
</g>
<!-- N6 -->
<g id="node6" class="node">
<title>N6</title>
<polygon fill="none" stroke="red" points="320,-712 176,-712 176,-568 320,-568 320,-712"/>
<text text-anchor="middle" x="248" y="-636.3" font-family="Times,serif" font-size="14.00">s6</text>
</g>
<!-- N7&#45;&gt;N6 -->
<g id="edge10" class="edge">
<title>N7&#45;&gt;N6</title>
<path fill="none" stroke="black" d="M361.83,-766.08C348.61,-751.54 333.98,-735.47 319.73,-719.82"/>
<polygon fill="black" stroke="black" points="322.1,-717.22 312.78,-712.18 316.92,-721.93 322.1,-717.22"/>
</g>
<!-- N3 -->
<g id="node7" class="node">
<title>N3</title>
<ellipse fill="none" stroke="red" cx="80" cy="-456" rx="76" ry="76"/>
<ellipse fill="none" stroke="red" cx="80" cy="-456" rx="80" ry="80"/>
<text text-anchor="middle" x="80" y="-452.3" font-family="Times,serif" font-size="14.00">s3</text>
</g>
<!-- N6&#45;&gt;N3 -->
<g id="edge11" class="edge">
<title>N6&#45;&gt;N3</title>
<path fill="none" stroke="red" d="M182.33,-567.85C167.69,-552 152.28,-535.31 137.99,-519.82"/>
<polygon fill="red" stroke="red" points="140.42,-517.3 131.07,-512.32 135.28,-522.04 140.42,-517.3"/>
</g>
<!-- N4 -->
<g id="node8" class="node">
<title>N4</title>
<ellipse fill="none" stroke="red" cx="246" cy="-456" rx="72" ry="72"/>
<text text-anchor="middle" x="246" y="-452.3" font-family="Times,serif" font-size="14.00">s4</text>
</g>
<!-- N6&#45;&gt;N4 -->
<g id="edge12" class="edge">
<title>N6&#45;&gt;N4</title>
<path fill="none" stroke="black" d="M247.22,-567.85C247.11,-558.16 247,-548.15 246.89,-538.29"/>
<polygon fill="black" stroke="black" points="250.39,-538.06 246.78,-528.1 243.39,-538.14 250.39,-538.06"/>
</g>
<!-- N3&#45;&gt;N0 -->
<g id="edge13" class="edge">
<title>N3&#45;&gt;N0</title>
<path fill="none" stroke="black" d="M95.25,-381.43C108.23,-327.14 129.79,-252.51 161,-192 165.72,-182.85 171.21,-173.68 177.09,-164.75"/>
<polygon fill="black" stroke="black" points="180.12,-166.51 182.83,-156.27 174.33,-162.59 180.12,-166.51"/>
</g>
<!-- N3&#45;&gt;N1 -->
<g id="edge14" class="edge">
<title>N3&#45;&gt;N1</title>
<path fill="none" stroke="black" d="M130.26,-398.69C148.7,-378.02 169.71,-354.48 188.72,-333.18"/>
<polygon fill="black" stroke="black" points="191.58,-335.23 195.63,-325.44 186.36,-330.57 191.58,-335.23"/>
</g>
<!-- N4&#45;&gt;N1 -->
<g id="edge15" class="edge">
<title>N4&#45;&gt;N1</title>
<path fill="none" stroke="black" d="M239.42,-384.15C239.27,-374.3 239.22,-364.09 239.27,-354.01"/>
<polygon fill="black" stroke="black" points="242.77,-354.01 239.36,-343.98 235.77,-353.95 242.77,-354.01"/>
</g>
<!-- N4&#45;&gt;N1 -->
<g id="edge16" class="edge">
<title>N4&#45;&gt;N1</title>
<path fill="none" stroke="black" d="M252.58,-384.15C252.73,-374.3 252.78,-364.09 252.73,-354.01"/>
<polygon fill="black" stroke="black" points="256.23,-353.95 252.64,-343.98 249.23,-354.01 256.23,-353.95"/>
</g>
<!-- N8 -->
<g id="node9" class="node">
<title>N8</title>
<polygon fill="none" stroke="red" points="482,-1072 338,-1072 338,-928 482,-928 482,-1072"/>
<text text-anchor="middle" x="410" y="-996.3" font-family="Times,serif" font-size="14.00">s8</text>
</g>
<!-- N8&#45;&gt;N7 -->
<g id="edge17" class="edge">
<title>N8&#45;&gt;N7</title>
<path fill="none" stroke="red" d="M410,-927.88C410,-919.39 410,-910.67 410,-902.06"/>
<polygon fill="red" stroke="red" points="413.5,-902 410,-892 406.5,-902 413.5,-902"/>
</g>
<!-- N8&#45;&gt;N8 -->
<g id="edge18" class="edge">
<title>N8&#45;&gt;N8</title>
<path fill="none" stroke="black" d="M482.03,-1030.6C492.75,-1025.9 500,-1015.6 500,-1000 500,-989 496.41,-980.69 490.56,-975.07"/>
<polygon fill="black" stroke="black" points="492.29,-972.02 482.03,-969.38 488.41,-977.84 492.29,-972.02"/>
</g>
<!-- N9 -->
<g id="node10" class="node">
<title>N9</title>
<ellipse fill="none" stroke="red" cx="248" cy="-1180" rx="72" ry="72"/>
<text text-anchor="middle" x="248" y="-1176.3" font-family="Times,serif" font-size="14.00">s9</text>
</g>
<!-- N9&#45;&gt;N6 -->
<g id="edge19" class="edge">
<title>N9&#45;&gt;N6</title>
<path fill="none" stroke="black" d="M248,-1107.8C248,-1008.2 248,-827.59 248,-722.62"/>
<polygon fill="black" stroke="black" points="251.5,-722.39 248,-712.39 244.5,-722.39 251.5,-722.39"/>
</g>
<!-- N9&#45;&gt;N8 -->
<g id="edge20" class="edge">
<title>N9&#45;&gt;N8</title>
<path fill="none" stroke="black" d="M296.17,-1126.1C309.39,-1111.5 324.02,-1095.5 338.27,-1079.8"/>
<polygon fill="black" stroke="black" points="341.05,-1081.94 345.22,-1072.2 335.89,-1077.22 341.05,-1081.94"/>
</g>
<!-- N10 -->
<g id="node11" class="node">
<title>N10</title>
<ellipse fill="none" stroke="blue" cx="410" cy="-1180" rx="72" ry="72"/>
<text text-anchor="middle" x="410" y="-1176.3" font-family="Times,serif" font-size="14.00">s10</text>
</g>
<!-- N10&#45;&gt;N8 -->
<g id="edge21" class="edge">
<title>N10&#45;&gt;N8</title>
<path fill="none" stroke="black" d="M410,-1107.9C410,-1099.4 410,-1090.7 410,-1082.1"/>
<polygon fill="black" stroke="black" points="413.5,-1082 410,-1072 406.5,-1082 413.5,-1082"/>
</g>
<!-- N10&#45;&gt;N10 -->
<g id="edge22" class="edge">
<title>N10&#45;&gt;N10</title>
<path fill="none" stroke="blue" d="M474.31,-1213C489.12,-1210.2 500,-1199.2 500,-1180 500,-1165.3 493.62,-1155.4 483.99,-1150.3"/>
<polygon fill="blue" stroke="blue" points="484.9,-1146.91 474.31,-1147 482.65,-1153.54 484.9,-1146.91"/>
</g>
<!-- N11 -->
<g id="node12" class="node">
<title>N11</title>
<polygon fill="none" stroke="blue" points="482,-1432 338,-1432 338,-1288 482,-1288 482,-1432"/>
<text text-anchor="middle" x="410" y="-1356.3" font-family="Times,serif" font-size="14.00">s11</text>
</g>
<!-- N11&#45;&gt;N10 -->
<g id="edge23" class="edge">
<title>N11&#45;&gt;N10</title>
<path fill="none" stroke="black" d="M403.37,-1287.9C403.25,-1279.3 403.22,-1270.5 403.28,-1261.8"/>
<polygon fill="black" stroke="black" points="406.78,-1261.73 403.38,-1251.7 399.78,-1261.66 406.78,-1261.73"/>
</g>
<!-- N11&#45;&gt;N10 -->
<g id="edge24" class="edge">
<title>N11&#45;&gt;N10</title>
<path fill="none" stroke="black" d="M416.63,-1287.9C416.75,-1279.3 416.78,-1270.5 416.72,-1261.8"/>
<polygon fill="black" stroke="black" points="420.22,-1261.66 416.62,-1251.7 413.22,-1261.73 420.22,-1261.66"/>
</g>
</g>
</svg>
