<?xml version="1.0" encoding="UTF-8" standalone="no"?>
<!DOCTYPE svg PUBLIC "-//W3C//DTD SVG 1.1//EN"
 "http://www.w3.org/Graphics/SVG/1.1/DTD/svg11.dtd">
<!-- Generated by graphviz version 2.43.0 (0)
 -->
<!-- Title: G Pages: 1 -->
<svg width="512pt" height="1060pt"
 viewBox="0.00 0.00 512.00 1060.00" xmlns="http://www.w3.org/2000/svg" xmlns:xlink="http://www.w3.org/1999/xlink">
<g id="graph0" class="graph" transform="scale(1 1) rotate(0) translate(4 1056)">
<title>G</title>
<polygon fill="white" stroke="transparent" points="-4,4 -4,-1056 508,-1056 508,4 -4,4"/>
<!-- N0 -->
<g id="node1" class="node">
<title>N0</title>
<polygon fill="none" stroke="red" points="342,-144 198,-144 198,0 342,0 342,-144"/>
<text text-anchor="middle" x="270" y="-68.3" font-family="Times,serif" font-size="14.00">s0</text>
</g>
<!-- N1 -->
<g id="node2" class="node">
<title>N1</title>
<ellipse fill="none" stroke="red" cx="72" cy="-72" rx="72" ry="72"/>
<text text-anchor="middle" x="72" y="-68.3" font-family="Times,serif" font-size="14.00">s1</text>
</g>
<!-- N1&#45;&gt;N1 -->
<g id="edge1" class="edge">
<title>N1&#45;&gt;N1</title>
<path fill="none" stroke="black" d="M142.56,-87.96C154.08,-85.68 162,-80.36 162,-72 162,-66.26 158.26,-61.95 152.17,-59.07"/>
<polygon fill="black" stroke="black" points="153.15,-55.71 142.56,-56.04 151.04,-62.39 153.15,-55.71"/>
</g>
<!-- N1&#45;&gt;N1 -->
<g id="edge2" class="edge">
<title>N1&#45;&gt;N1</title>
<path fill="none" stroke="black" d="M135.5,-106.38C159.83,-107.81 180,-96.35 180,-72 180,-51.17 165.24,-39.77 145.74,-37.81"/>
<polygon fill="black" stroke="black" points="145.56,-34.3 135.5,-37.62 145.43,-41.3 145.56,-34.3"/>
</g>
<!-- N2 -->
<g id="node3" class="node">
<title>N2</title>
<polygon fill="none" stroke="blue" points="500,-332 348,-332 348,-180 500,-180 500,-332"/>
<polygon fill="none" stroke="blue" points="504,-336 344,-336 344,-176 504,-176 504,-336"/>
<text text-anchor="middle" x="424" y="-252.3" font-family="Times,serif" font-size="14.00">s2</text>
</g>
<!-- N3 -->
<g id="node4" class="node">
<title>N3</title>
<ellipse fill="none" stroke="blue" cx="254" cy="-256" rx="76" ry="76"/>
<ellipse fill="none" stroke="blue" cx="254" cy="-256" rx="80" ry="80"/>
<text text-anchor="middle" x="254" y="-252.3" font-family="Times,serif" font-size="14.00">s3</text>
</g>
<!-- N3&#45;&gt;N0 -->
<g id="edge3" class="edge">
<title>N3&#45;&gt;N0</title>
<path fill="none" stroke="black" d="M260.58,-180.19C261.33,-171.59 262.11,-162.79 262.87,-154.12"/>
<polygon fill="black" stroke="black" points="266.37,-154.28 263.76,-144.01 259.4,-153.66 266.37,-154.28"/>
</g>
<!-- N3&#45;&gt;N1 -->
<g id="edge4" class="edge">
<title>N3&#45;&gt;N1</title>
<path fill="none" stroke="black" d="M200.38,-201.38C178.14,-179.14 152.31,-153.31 129.66,-130.66"/>
<polygon fill="black" stroke="black" points="131.98,-128.03 122.43,-123.43 127.03,-132.98 131.98,-128.03"/>
</g>
<!-- N4 -->
<g id="node5" class="node">
<title>N4</title>
<ellipse fill="none" stroke="red" cx="72" cy="-256" rx="72" ry="72"/>
<text text-anchor="middle" x="72" y="-252.3" font-family="Times,serif" font-size="14.00">s4</text>
</g>
<!-- N4&#45;&gt;N1 -->
<g id="edge5" class="edge">
<title>N4&#45;&gt;N1</title>
<path fill="none" stroke="black" d="M65.4,-184.11C65.25,-174.33 65.21,-164.23 65.28,-154.28"/>
<polygon fill="black" stroke="black" points="68.79,-154.03 65.4,-143.99 61.79,-153.95 68.79,-154.03"/>
</g>
<!-- N4&#45;&gt;N1 -->
<g id="edge6" class="edge">
<title>N4&#45;&gt;N1</title>
<path fill="none" stroke="black" d="M78.6,-184.11C78.75,-174.33 78.79,-164.23 78.72,-154.28"/>
<polygon fill="black" stroke="black" points="82.21,-153.95 78.6,-143.99 75.21,-154.03 82.21,-153.95"/>
</g>
<!-- N5 -->
<g id="node6" class="node">
<title>N5</title>
<polygon fill="none" stroke="blue" points="494,-512 350,-512 350,-368 494,-368 494,-512"/>
<text text-anchor="middle" x="422" y="-436.3" font-family="Times,serif" font-size="14.00">s5</text>
</g>
<!-- N5&#45;&gt;N2 -->
<g id="edge7" class="edge">
<title>N5&#45;&gt;N2</title>
<path fill="none" stroke="black" d="M422.78,-367.85C422.87,-359.4 422.97,-350.7 423.07,-342.08"/>
<polygon fill="black" stroke="black" points="426.57,-342.04 423.18,-332 419.57,-341.96 426.57,-342.04"/>
</g>
<!-- N6 -->
<g id="node7" class="node">
<title>N6</title>
<polygon fill="none" stroke="blue" points="330,-512 186,-512 186,-368 330,-368 330,-512"/>
<text text-anchor="middle" x="258" y="-436.3" font-family="Times,serif" font-size="14.00">s6</text>
</g>
<!-- N6&#45;&gt;N3 -->
<g id="edge8" class="edge">
<title>N6&#45;&gt;N3</title>
<path fill="none" stroke="black" d="M256.44,-367.85C256.25,-359.4 256.06,-350.7 255.87,-342.08"/>
<polygon fill="black" stroke="black" points="259.37,-341.92 255.65,-332 252.37,-342.07 259.37,-341.92"/>
</g>
<!-- N7 -->
<g id="node8" class="node">
<title>N7</title>
<ellipse fill="none" stroke="blue" cx="358" cy="-620" rx="72" ry="72"/>
<text text-anchor="middle" x="358" y="-616.3" font-family="Times,serif" font-size="14.00">s7</text>
</g>
<!-- N7&#45;&gt;N5 -->
<g id="edge9" class="edge">
<title>N7&#45;&gt;N5</title>
<path fill="none" stroke="blue" d="M382.1,-551.96C385.65,-542.1 389.33,-531.86 392.96,-521.76"/>
<polygon fill="blue" stroke="blue" points="396.33,-522.73 396.42,-512.14 389.74,-520.37 396.33,-522.73"/>
</g>
<!-- N7&#45;&gt;N6 -->
<g id="edge10" class="edge">
<title>N7&#45;&gt;N6</title>
<path fill="none" stroke="blue" d="M323.02,-556.74C316.5,-545.13 309.6,-532.84 302.82,-520.78"/>
<polygon fill="blue" stroke="blue" points="305.87,-519.06 297.92,-512.05 299.76,-522.48 305.87,-519.06"/>
</g>
<!-- N8 -->
<g id="node9" class="node">
<title>N8</title>
<polygon fill="none" stroke="blue" points="430,-872 286,-872 286,-728 430,-728 430,-872"/>
<text text-anchor="middle" x="358" y="-796.3" font-family="Times,serif" font-size="14.00">s8</text>
</g>
<!-- N8&#45;&gt;N7 -->
<g id="edge11" class="edge">
<title>N8&#45;&gt;N7</title>
<path fill="none" stroke="black" d="M358,-727.88C358,-719.39 358,-710.67 358,-702.06"/>
<polygon fill="black" stroke="black" points="361.5,-702 358,-692 354.5,-702 361.5,-702"/>
</g>
<!-- N9 -->
<g id="node10" class="node">
<title>N9</title>
<ellipse fill="none" stroke="blue" cx="308" cy="-980" rx="72" ry="72"/>
<text text-anchor="middle" x="308" y="-976.3" font-family="Times,serif" font-size="14.00">s9</text>
</g>
<!-- N9&#45;&gt;N6 -->
<g id="edge12" class="edge">
<title>N9&#45;&gt;N6</title>
<path fill="none" stroke="blue" d="M285.78,-911.35C282.28,-898.41 279.12,-884.88 277,-872 257.15,-751.32 254.89,-609.25 255.86,-522.16"/>
<polygon fill="blue" stroke="blue" points="259.36,-522.12 255.99,-512.08 252.36,-522.03 259.36,-522.12"/>
</g>
<!-- N9&#45;&gt;N8 -->
<g id="edge13" class="edge">
<title>N9&#45;&gt;N8</title>
<path fill="none" stroke="black" d="M327.26,-910.44C329.87,-901.13 332.58,-891.51 335.24,-882.02"/>
<polygon fill="black" stroke="black" points="338.67,-882.75 338.01,-872.18 331.93,-880.86 338.67,-882.75"/>
</g>
</g>
</svg>
