<?xml version="1.0" encoding="UTF-8" standalone="no"?>
<!DOCTYPE svg PUBLIC "-//W3C//DTD SVG 1.1//EN"
 "http://www.w3.org/Graphics/SVG/1.1/DTD/svg11.dtd">
<!-- Generated by graphviz version 2.43.0 (0)
 -->
<!-- Title: G Pages: 1 -->
<svg width="494pt" height="1432pt"
 viewBox="0.00 0.00 494.00 1432.00" xmlns="http://www.w3.org/2000/svg" xmlns:xlink="http://www.w3.org/1999/xlink">
<g id="graph0" class="graph" transform="scale(1 1) rotate(0) translate(4 1428)">
<title>G</title>
<polygon fill="white" stroke="transparent" points="-4,4 -4,-1428 490,-1428 490,4 -4,4"/>
<!-- N0 -->
<g id="node1" class="node">
<title>N0</title>
<polygon fill="none" stroke="red" points="310,-156 158,-156 158,-4 310,-4 310,-156"/>
<polygon fill="none" stroke="red" points="314,-160 154,-160 154,0 314,0 314,-160"/>
<text text-anchor="middle" x="234" y="-76.3" font-family="Times,serif" font-size="14.00">s0</text>
</g>
<!-- N0&#45;&gt;N0 -->
<g id="edge1" class="edge">
<title>N0&#45;&gt;N0</title>
<path fill="none" stroke="black" d="M310.35,-95.73C320.93,-93.14 328,-87.89 328,-80 328,-74.82 324.95,-70.78 319.87,-67.88"/>
<polygon fill="black" stroke="black" points="320.94,-64.55 310.35,-64.27 318.46,-71.09 320.94,-64.55"/>
</g>
<!-- N0&#45;&gt;N0 -->
<g id="edge2" class="edge">
<title>N0&#45;&gt;N0</title>
<path fill="none" stroke="black" d="M310.17,-114.97C330.54,-113.04 346,-101.39 346,-80 346,-62.29 335.4,-51.25 320.18,-46.89"/>
<polygon fill="black" stroke="black" points="320.64,-43.41 310.17,-45.03 319.37,-50.3 320.64,-43.41"/>
</g>
<!-- N1 -->
<g id="node2" class="node">
<title>N1</title>
<ellipse fill="none" stroke="red" cx="234" cy="-268" rx="76" ry="76"/>
<ellipse fill="none" stroke="red" cx="234" cy="-268" rx="80" ry="80"/>
<text text-anchor="middle" x="234" y="-264.3" font-family="Times,serif" font-size="14.00">s1</text>
</g>
<!-- N1&#45;&gt;N0 -->
<g id="edge3" class="edge">
<title>N1&#45;&gt;N0</title>
<path fill="none" stroke="black" d="M227.37,-192.15C227.26,-183.66 227.22,-174.96 227.27,-166.35"/>
<polygon fill="black" stroke="black" points="230.77,-166.33 227.36,-156.3 223.77,-166.27 230.77,-166.33"/>
</g>
<!-- N1&#45;&gt;N0 -->
<g id="edge4" class="edge">
<title>N1&#45;&gt;N0</title>
<path fill="none" stroke="black" d="M240.63,-192.15C240.74,-183.66 240.78,-174.96 240.73,-166.35"/>
<polygon fill="black" stroke="black" points="244.23,-166.27 240.64,-156.3 237.23,-166.33 244.23,-166.27"/>
</g>
<!-- N2 -->
<g id="node3" class="node">
<title>N2</title>
<polygon fill="none" stroke="red" points="468,-524 324,-524 324,-380 468,-380 468,-524"/>
<text text-anchor="middle" x="396" y="-448.3" font-family="Times,serif" font-size="14.00">s2</text>
</g>
<!-- N2&#45;&gt;N0 -->
<g id="edge5" class="edge">
<title>N2&#45;&gt;N0</title>
<path fill="none" stroke="red" d="M382.23,-379.94C370.13,-326.36 349.61,-252.08 319,-192 314.32,-182.82 308.86,-173.64 303,-164.7"/>
<polygon fill="red" stroke="red" points="305.77,-162.55 297.28,-156.21 299.96,-166.46 305.77,-162.55"/>
</g>
<!-- N5 -->
<g id="node4" class="node">
<title>N5</title>
<polygon fill="none" stroke="red" points="468,-704 324,-704 324,-560 468,-560 468,-704"/>
<text text-anchor="middle" x="396" y="-628.3" font-family="Times,serif" font-size="14.00">s5</text>
</g>
<!-- N2&#45;&gt;N5 -->
<g id="edge6" class="edge">
<title>N2&#45;&gt;N5</title>
<path fill="none" stroke="black" d="M402.63,-524C402.74,-532.49 402.78,-541.21 402.73,-549.83"/>
<polygon fill="black" stroke="black" points="399.23,-549.85 402.63,-559.88 406.23,-549.92 399.23,-549.85"/>
</g>
<!-- N5&#45;&gt;N2 -->
<g id="edge7" class="edge">
<title>N5&#45;&gt;N2</title>
<path fill="none" stroke="red" d="M389.37,-559.88C389.25,-551.39 389.22,-542.67 389.27,-534.06"/>
<polygon fill="red" stroke="red" points="392.77,-534.03 389.37,-524 385.77,-533.96 392.77,-534.03"/>
</g>
<!-- N7 -->
<g id="node5" class="node">
<title>N7</title>
<ellipse fill="none" stroke="red" cx="396" cy="-812" rx="72" ry="72"/>
<text text-anchor="middle" x="396" y="-808.3" font-family="Times,serif" font-size="14.00">s7</text>
</g>
<!-- N5&#45;&gt;N7 -->
<g id="edge8" class="edge">
<title>N5&#45;&gt;N7</title>
<path fill="none" stroke="black" d="M402.63,-704.2C402.75,-712.71 402.78,-721.44 402.73,-730.07"/>
<polygon fill="black" stroke="black" points="399.23,-730.1 402.62,-740.14 406.23,-730.18 399.23,-730.1"/>
</g>
<!-- N7&#45;&gt;N5 -->
<g id="edge9" class="edge">
<title>N7&#45;&gt;N5</title>
<path fill="none" stroke="black" d="M389.38,-740.14C389.26,-731.64 389.22,-722.91 389.27,-714.27"/>
<polygon fill="black" stroke="black" points="392.77,-714.23 389.37,-704.2 385.77,-714.16 392.77,-714.23"/>
</g>
<!-- N6 -->
<g id="node6" class="node">
<title>N6</title>
<polygon fill="none" stroke="red" points="306,-704 162,-704 162,-560 306,-560 306,-704"/>
<text text-anchor="middle" x="234" y="-628.3" font-family="Times,serif" font-size="14.00">s6</text>
</g>
<!-- N7&#45;&gt;N6 -->
<g id="edge10" class="edge">
<title>N7&#45;&gt;N6</title>
<path fill="none" stroke="black" d="M347.83,-758.08C334.61,-743.54 319.98,-727.47 305.73,-711.82"/>
<polygon fill="black" stroke="black" points="308.1,-709.22 298.78,-704.18 302.92,-713.93 308.1,-709.22"/>
</g>
<!-- N3 -->
<g id="node7" class="node">
<title>N3</title>
<ellipse fill="none" stroke="red" cx="72" cy="-452" rx="72" ry="72"/>
<text text-anchor="middle" x="72" y="-448.3" font-family="Times,serif" font-size="14.00">s3</text>
</g>
<!-- N6&#45;&gt;N3 -->
<g id="edge11" class="edge">
<title>N6&#45;&gt;N3</title>
<path fill="none" stroke="red" d="M169.27,-559.88C155.32,-544.54 140.68,-528.47 127.13,-513.58"/>
<polygon fill="red" stroke="red" points="129.47,-510.95 120.15,-505.91 124.29,-515.66 129.47,-510.95"/>
</g>
<!-- N4 -->
<g id="node8" class="node">
<title>N4</title>
<ellipse fill="none" stroke="red" cx="234" cy="-452" rx="72" ry="72"/>
<text text-anchor="middle" x="234" y="-448.3" font-family="Times,serif" font-size="14.00">s4</text>
</g>
<!-- N6&#45;&gt;N4 -->
<g id="edge12" class="edge">
<title>N6&#45;&gt;N4</title>
<path fill="none" stroke="red" d="M234,-559.88C234,-551.39 234,-542.67 234,-534.06"/>
<polygon fill="red" stroke="red" points="237.5,-534 234,-524 230.5,-534 237.5,-534"/>
</g>
<!-- N3&#45;&gt;N0 -->
<g id="edge13" class="edge">
<title>N3&#45;&gt;N0</title>
<path fill="none" stroke="black" d="M85.52,-381.05C97.59,-327.39 118.17,-252.5 149,-192 153.68,-182.82 159.14,-173.64 165,-164.7"/>
<polygon fill="black" stroke="black" points="168.04,-166.46 170.72,-156.21 162.23,-162.55 168.04,-166.46"/>
</g>
<!-- N3&#45;&gt;N1 -->
<g id="edge14" class="edge">
<title>N3&#45;&gt;N1</title>
<path fill="none" stroke="black" d="M119.73,-397.38C137.68,-377.21 158.28,-354.07 176.99,-333.04"/>
<polygon fill="black" stroke="black" points="179.76,-335.19 183.8,-325.4 174.53,-330.54 179.76,-335.19"/>
</g>
<!-- N4&#45;&gt;N1 -->
<g id="edge15" class="edge">
<title>N4&#45;&gt;N1</title>
<path fill="none" stroke="black" d="M227.4,-380.11C227.27,-371.58 227.23,-362.79 227.26,-354.08"/>
<polygon fill="black" stroke="black" points="230.76,-353.93 227.34,-343.9 223.76,-353.87 230.76,-353.93"/>
</g>
<!-- N4&#45;&gt;N1 -->
<g id="edge16" class="edge">
<title>N4&#45;&gt;N1</title>
<path fill="none" stroke="black" d="M240.6,-380.11C240.73,-371.58 240.77,-362.79 240.74,-354.08"/>
<polygon fill="black" stroke="black" points="244.24,-353.87 240.66,-343.9 237.24,-353.93 244.24,-353.87"/>
</g>
<!-- N8 -->
<g id="node9" class="node">
<title>N8</title>
<polygon fill="none" stroke="red" points="468,-1064 324,-1064 324,-920 468,-920 468,-1064"/>
<text text-anchor="middle" x="396" y="-988.3" font-family="Times,serif" font-size="14.00">s8</text>
</g>
<!-- N8&#45;&gt;N7 -->
<g id="edge17" class="edge">
<title>N8&#45;&gt;N7</title>
<path fill="none" stroke="red" d="M396,-919.88C396,-911.39 396,-902.67 396,-894.06"/>
<polygon fill="red" stroke="red" points="399.5,-894 396,-884 392.5,-894 399.5,-894"/>
</g>
<!-- N8&#45;&gt;N8 -->
<g id="edge18" class="edge">
<title>N8&#45;&gt;N8</title>
<path fill="none" stroke="black" d="M468.03,-1022.6C478.75,-1017.9 486,-1007.6 486,-992 486,-981 482.41,-972.69 476.56,-967.07"/>
<polygon fill="black" stroke="black" points="478.29,-964.02 468.03,-961.38 474.41,-969.84 478.29,-964.02"/>
</g>
<!-- N9 -->
<g id="node10" class="node">
<title>N9</title>
<ellipse fill="none" stroke="red" cx="234" cy="-1172" rx="72" ry="72"/>
<text text-anchor="middle" x="234" y="-1168.3" font-family="Times,serif" font-size="14.00">s9</text>
</g>
<!-- N9&#45;&gt;N6 -->
<g id="edge19" class="edge">
<title>N9&#45;&gt;N6</title>
<path fill="none" stroke="black" d="M234,-1099.8C234,-1000.2 234,-819.59 234,-714.62"/>
<polygon fill="black" stroke="black" points="237.5,-714.39 234,-704.39 230.5,-714.39 237.5,-714.39"/>
</g>
<!-- N9&#45;&gt;N8 -->
<g id="edge20" class="edge">
<title>N9&#45;&gt;N8</title>
<path fill="none" stroke="black" d="M282.17,-1118.1C295.39,-1103.5 310.02,-1087.5 324.27,-1071.8"/>
<polygon fill="black" stroke="black" points="327.05,-1073.94 331.22,-1064.2 321.89,-1069.22 327.05,-1073.94"/>
</g>
<!-- N10 -->
<g id="node11" class="node">
<title>N10</title>
<ellipse fill="none" stroke="blue" cx="396" cy="-1172" rx="72" ry="72"/>
<text text-anchor="middle" x="396" y="-1168.3" font-family="Times,serif" font-size="14.00">s10</text>
</g>
<!-- N10&#45;&gt;N8 -->
<g id="edge21" class="edge">
<title>N10&#45;&gt;N8</title>
<path fill="none" stroke="black" d="M396,-1099.9C396,-1091.4 396,-1082.7 396,-1074.1"/>
<polygon fill="black" stroke="black" points="399.5,-1074 396,-1064 392.5,-1074 399.5,-1074"/>
</g>
<!-- N10&#45;&gt;N10 -->
<g id="edge22" class="edge">
<title>N10&#45;&gt;N10</title>
<path fill="none" stroke="blue" d="M460.31,-1205C475.12,-1202.2 486,-1191.2 486,-1172 486,-1157.3 479.62,-1147.4 469.99,-1142.3"/>
<polygon fill="blue" stroke="blue" points="470.9,-1138.91 460.31,-1139 468.65,-1145.54 470.9,-1138.91"/>
</g>
<!-- N11 -->
<g id="node12" class="node">
<title>N11</title>
<polygon fill="none" stroke="blue" points="468,-1424 324,-1424 324,-1280 468,-1280 468,-1424"/>
<text text-anchor="middle" x="396" y="-1348.3" font-family="Times,serif" font-size="14.00">s11</text>
</g>
<!-- N11&#45;&gt;N10 -->
<g id="edge23" class="edge">
<title>N11&#45;&gt;N10</title>
<path fill="none" stroke="black" d="M389.37,-1279.9C389.25,-1271.3 389.22,-1262.5 389.28,-1253.8"/>
<polygon fill="black" stroke="black" points="392.78,-1253.73 389.38,-1243.7 385.78,-1253.66 392.78,-1253.73"/>
</g>
<!-- N11&#45;&gt;N10 -->
<g id="edge24" class="edge">
<title>N11&#45;&gt;N10</title>
<path fill="none" stroke="black" d="M402.63,-1279.9C402.75,-1271.3 402.78,-1262.5 402.72,-1253.8"/>
<polygon fill="black" stroke="black" points="406.22,-1253.66 402.62,-1243.7 399.22,-1253.73 406.22,-1253.66"/>
</g>
</g>
</svg>
