<?xml version="1.0" encoding="UTF-8" standalone="no"?>
<!DOCTYPE svg PUBLIC "-//W3C//DTD SVG 1.1//EN"
 "http://www.w3.org/Graphics/SVG/1.1/DTD/svg11.dtd">
<!-- Generated by graphviz version 2.43.0 (0)
 -->
<!-- Title: G Pages: 1 -->
<svg width="290pt" height="372pt"
 viewBox="0.00 0.00 290.34 371.63" xmlns="http://www.w3.org/2000/svg" xmlns:xlink="http://www.w3.org/1999/xlink">
<g id="graph0" class="graph" transform="scale(1 1) rotate(0) translate(4 367.63)">
<title>G</title>
<polygon fill="white" stroke="transparent" points="-4,4 -4,-367.63 286.34,-367.63 286.34,4 -4,4"/>
<!-- N0 -->
<g id="node1" class="node">
<title>N0</title>
<polygon fill="none" stroke="red" points="243,-359.63 181,-359.63 181,-315.63 243,-315.63 243,-359.63"/>
<polygon fill="none" stroke="red" points="247,-363.63 177,-363.63 177,-311.63 247,-311.63 247,-363.63"/>
<text text-anchor="middle" x="212" y="-333.93" font-family="Times,serif" font-size="14.00">s0</text>
</g>
<!-- N8 -->
<g id="node2" class="node">
<title>N8</title>
<polygon fill="none" stroke="blue" points="54,-276.19 0,-276.19 0,-240.19 54,-240.19 54,-276.19"/>
<text text-anchor="middle" x="27" y="-254.49" font-family="Times,serif" font-size="14.00">s8</text>
</g>
<!-- N0&#45;&gt;N8 -->
<g id="edge1" class="edge">
<title>N0&#45;&gt;N8</title>
<path fill="none" stroke="black" d="M180.9,-326.28C152.27,-316.41 108.59,-300.52 63.35,-279.52"/>
<polygon fill="black" stroke="black" points="64.83,-276.35 54.29,-275.25 61.85,-282.68 64.83,-276.35"/>
</g>
<!-- N3 -->
<g id="node3" class="node">
<title>N3</title>
<polygon fill="none" stroke="red" points="203,-276.19 149,-276.19 149,-240.19 203,-240.19 203,-276.19"/>
<text text-anchor="middle" x="176" y="-254.49" font-family="Times,serif" font-size="14.00">s3</text>
</g>
<!-- N0&#45;&gt;N3 -->
<g id="edge2" class="edge">
<title>N0&#45;&gt;N3</title>
<path fill="none" stroke="black" d="M202.16,-315.47C197.88,-306.27 192.83,-295.39 188.3,-285.65"/>
<polygon fill="black" stroke="black" points="191.4,-284.01 184.01,-276.41 185.05,-286.96 191.4,-284.01"/>
</g>
<!-- N6 -->
<g id="node4" class="node">
<title>N6</title>
<ellipse fill="none" stroke="blue" cx="27" cy="-179.29" rx="21.5" ry="21.5"/>
<text text-anchor="middle" x="27" y="-175.59" font-family="Times,serif" font-size="14.00">s6</text>
</g>
<!-- N8&#45;&gt;N6 -->
<g id="edge3" class="edge">
<title>N8&#45;&gt;N6</title>
<path fill="none" stroke="black" d="M21.28,-240.12C20.33,-231.32 20.04,-220.33 20.4,-210.17"/>
<polygon fill="black" stroke="black" points="23.9,-210.22 21.02,-200.02 16.92,-209.79 23.9,-210.22"/>
</g>
<!-- N3&#45;&gt;N3 -->
<g id="edge4" class="edge">
<title>N3&#45;&gt;N3</title>
<path fill="none" stroke="black" d="M203.24,-272.8C213.02,-273.11 221,-268.24 221,-258.19 221,-251.9 217.88,-247.64 213.16,-245.41"/>
<polygon fill="black" stroke="black" points="213.71,-241.95 203.24,-243.58 212.44,-248.84 213.71,-241.95"/>
</g>
<!-- N5 -->
<g id="node5" class="node">
<title>N5</title>
<polygon fill="none" stroke="red" points="268,-197.29 214,-197.29 214,-161.29 268,-161.29 268,-197.29"/>
<text text-anchor="middle" x="241" y="-175.59" font-family="Times,serif" font-size="14.00">s5</text>
</g>
<!-- N3&#45;&gt;N5 -->
<g id="edge5" class="edge">
<title>N3&#45;&gt;N5</title>
<path fill="none" stroke="red" d="M190.43,-240.12C199.09,-229.87 210.28,-216.64 219.92,-205.23"/>
<polygon fill="red" stroke="red" points="222.83,-207.21 226.61,-197.31 217.48,-202.69 222.83,-207.21"/>
</g>
<!-- N9 -->
<g id="node6" class="node">
<title>N9</title>
<polygon fill="none" stroke="blue" points="103,-118.39 49,-118.39 49,-82.39 103,-82.39 103,-118.39"/>
<text text-anchor="middle" x="76" y="-96.69" font-family="Times,serif" font-size="14.00">s9</text>
</g>
<!-- N3&#45;&gt;N9 -->
<g id="edge6" class="edge">
<title>N3&#45;&gt;N9</title>
<path fill="none" stroke="black" d="M148.83,-245.12C130.73,-235.65 107.97,-220.73 95,-200.74 81.08,-179.29 76.85,-150.1 75.79,-128.91"/>
<polygon fill="black" stroke="black" points="79.28,-128.55 75.49,-118.65 72.28,-128.75 79.28,-128.55"/>
</g>
<!-- N6&#45;&gt;N8 -->
<g id="edge7" class="edge">
<title>N6&#45;&gt;N8</title>
<path fill="none" stroke="blue" d="M32.98,-200.02C33.79,-209.13 33.96,-220.09 33.49,-229.97"/>
<polygon fill="blue" stroke="blue" points="29.98,-229.89 32.72,-240.12 36.96,-230.41 29.98,-229.89"/>
</g>
<!-- N6&#45;&gt;N9 -->
<g id="edge8" class="edge">
<title>N6&#45;&gt;N9</title>
<path fill="none" stroke="blue" d="M33.63,-158.49C38.93,-148.82 46.28,-137.08 53.44,-126.77"/>
<polygon fill="blue" stroke="blue" points="56.37,-128.69 59.36,-118.52 50.69,-124.6 56.37,-128.69"/>
</g>
<!-- N5&#45;&gt;N0 -->
<g id="edge9" class="edge">
<title>N5&#45;&gt;N0</title>
<path fill="none" stroke="red" d="M240.13,-197.33C238.88,-217.24 236.02,-251.11 230,-279.63 228.19,-288.22 225.61,-297.36 222.96,-305.75"/>
<polygon fill="red" stroke="red" points="219.55,-304.93 219.76,-315.52 226.2,-307.11 219.55,-304.93"/>
</g>
<!-- N2 -->
<g id="node7" class="node">
<title>N2</title>
<ellipse fill="none" stroke="red" cx="241" cy="-100.39" rx="21.5" ry="21.5"/>
<text text-anchor="middle" x="241" y="-96.69" font-family="Times,serif" font-size="14.00">s2</text>
</g>
<!-- N5&#45;&gt;N2 -->
<g id="edge10" class="edge">
<title>N5&#45;&gt;N2</title>
<path fill="none" stroke="black" d="M241,-161.22C241,-152.71 241,-142.15 241,-132.28"/>
<polygon fill="black" stroke="black" points="244.5,-131.97 241,-121.97 237.5,-131.97 244.5,-131.97"/>
</g>
<!-- N9&#45;&gt;N6 -->
<g id="edge11" class="edge">
<title>N9&#45;&gt;N6</title>
<path fill="none" stroke="black" d="M70.78,-118.59C65.02,-129.44 56.18,-143.58 47.84,-155.37"/>
<polygon fill="black" stroke="black" points="45,-153.33 41.91,-163.46 50.64,-157.47 45,-153.33"/>
</g>
<!-- N7 -->
<g id="node8" class="node">
<title>N7</title>
<ellipse fill="none" stroke="blue" cx="76" cy="-21.5" rx="21.5" ry="21.5"/>
<text text-anchor="middle" x="76" y="-17.8" font-family="Times,serif" font-size="14.00">s7</text>
</g>
<!-- N9&#45;&gt;N7 -->
<g id="edge12" class="edge">
<title>N9&#45;&gt;N7</title>
<path fill="none" stroke="black" d="M70.28,-82.33C69.33,-73.53 69.04,-62.54 69.4,-52.38"/>
<polygon fill="black" stroke="black" points="72.9,-52.43 70.02,-42.23 65.92,-52 72.9,-52.43"/>
</g>
<!-- N2&#45;&gt;N0 -->
<g id="edge13" class="edge">
<title>N2&#45;&gt;N0</title>
<path fill="none" stroke="black" d="M254.76,-117.45C262.98,-128.13 272.64,-142.89 277,-157.84 282.34,-176.14 280.44,-181.99 277,-200.74 269.86,-239.62 248.48,-279.97 232.18,-306.5"/>
<polygon fill="black" stroke="black" points="229.02,-304.96 226.65,-315.28 234.94,-308.69 229.02,-304.96"/>
</g>
<!-- N2&#45;&gt;N3 -->
<g id="edge14" class="edge">
<title>N2&#45;&gt;N3</title>
<path fill="none" stroke="black" d="M228.65,-117.97C221,-128.86 211.43,-143.66 205,-157.84 194.32,-181.39 186.48,-209.86 181.67,-230.27"/>
<polygon fill="black" stroke="black" points="178.23,-229.63 179.43,-240.15 185.05,-231.17 178.23,-229.63"/>
</g>
<!-- N7&#45;&gt;N6 -->
<g id="edge15" class="edge">
<title>N7&#45;&gt;N6</title>
<path fill="none" stroke="blue" d="M62.89,-38.77C54.94,-49.53 45.33,-64.31 40,-78.95 31.98,-100.98 28.81,-127.35 27.59,-147.38"/>
<polygon fill="blue" stroke="blue" points="24.09,-147.35 27.11,-157.5 31.08,-147.68 24.09,-147.35"/>
</g>
<!-- N7&#45;&gt;N9 -->
<g id="edge16" class="edge">
<title>N7&#45;&gt;N9</title>
<path fill="none" stroke="blue" d="M81.98,-42.23C82.79,-51.34 82.96,-62.3 82.49,-72.18"/>
<polygon fill="blue" stroke="blue" points="78.98,-72.1 81.72,-82.33 85.96,-72.62 78.98,-72.1"/>
</g>
<!-- N1 -->
<g id="node9" class="node">
<title>N1</title>
<ellipse fill="none" stroke="blue" cx="93" cy="-258.19" rx="21.5" ry="21.5"/>
<text text-anchor="middle" x="93" y="-254.49" font-family="Times,serif" font-size="14.00">s1</text>
</g>
<!-- N1&#45;&gt;N6 -->
<g id="edge17" class="edge">
<title>N1&#45;&gt;N6</title>
<path fill="none" stroke="blue" d="M79.33,-241.25C70.12,-230.53 57.82,-216.2 47.46,-204.13"/>
<polygon fill="blue" stroke="blue" points="49.83,-201.51 40.66,-196.2 44.51,-206.07 49.83,-201.51"/>
</g>
<!-- N4 -->
<g id="node10" class="node">
<title>N4</title>
<polygon fill="none" stroke="blue" points="158,-197.29 104,-197.29 104,-161.29 158,-161.29 158,-197.29"/>
<text text-anchor="middle" x="131" y="-175.59" font-family="Times,serif" font-size="14.00">s4</text>
</g>
<!-- N4&#45;&gt;N9 -->
<g id="edge18" class="edge">
<title>N4&#45;&gt;N9</title>
<path fill="none" stroke="black" d="M118.79,-161.22C111.53,-151.07 102.18,-138 94.07,-126.66"/>
<polygon fill="black" stroke="black" points="96.84,-124.51 88.17,-118.41 91.14,-128.58 96.84,-124.51"/>
</g>
</g>
</svg>
