<?xml version="1.0" encoding="UTF-8" standalone="no"?>
<!DOCTYPE svg PUBLIC "-//W3C//DTD SVG 1.1//EN"
 "http://www.w3.org/Graphics/SVG/1.1/DTD/svg11.dtd">
<!-- Generated by graphviz version 2.43.0 (0)
 -->
<!-- Title: G Pages: 1 -->
<svg width="810pt" height="1239pt"
 viewBox="0.00 0.00 810.00 1239.10" xmlns="http://www.w3.org/2000/svg" xmlns:xlink="http://www.w3.org/1999/xlink">
<g id="graph0" class="graph" transform="scale(1 1) rotate(0) translate(4 1235.1)">
<title>G</title>
<polygon fill="white" stroke="transparent" points="-4,4 -4,-1235.1 806,-1235.1 806,4 -4,4"/>
<!-- N0 -->
<g id="node1" class="node">
<title>N0</title>
<polygon fill="none" stroke="red" points="760,-1227.1 698,-1227.1 698,-1183.1 760,-1183.1 760,-1227.1"/>
<polygon fill="none" stroke="red" points="764,-1231.1 694,-1231.1 694,-1179.1 764,-1179.1 764,-1231.1"/>
<text text-anchor="middle" x="729" y="-1201.4" font-family="Times,serif" font-size="14.00">s0</text>
</g>
<!-- N17 -->
<g id="node2" class="node">
<title>N17</title>
<ellipse fill="none" stroke="blue" cx="729" cy="-1119.8" rx="27.5" ry="27.5"/>
<text text-anchor="middle" x="729" y="-1116.1" font-family="Times,serif" font-size="14.00">s17</text>
</g>
<!-- N0&#45;&gt;N17 -->
<g id="edge1" class="edge">
<title>N0&#45;&gt;N17</title>
<path fill="none" stroke="black" d="M723.05,-1183C722.38,-1175.1 722.13,-1165.8 722.3,-1156.8"/>
<polygon fill="black" stroke="black" points="725.81,-1156.63 722.71,-1146.5 718.81,-1156.35 725.81,-1156.63"/>
</g>
<!-- N7 -->
<g id="node3" class="node">
<title>N7</title>
<ellipse fill="none" stroke="red" cx="375" cy="-498.09" rx="21.5" ry="21.5"/>
<text text-anchor="middle" x="375" y="-494.39" font-family="Times,serif" font-size="14.00">s7</text>
</g>
<!-- N0&#45;&gt;N7 -->
<g id="edge2" class="edge">
<title>N0&#45;&gt;N7</title>
<path fill="none" stroke="black" d="M697.97,-1186.4C615.3,-1136.8 396,-987.4 396,-797.98 396,-797.98 396,-797.98 396,-645.09 396,-604.72 388.04,-558.7 381.92,-529.31"/>
<polygon fill="black" stroke="black" points="385.29,-528.32 379.77,-519.27 378.44,-529.78 385.29,-528.32"/>
</g>
<!-- N13 -->
<g id="node4" class="node">
<title>N13</title>
<polygon fill="none" stroke="red" points="623,-36 569,-36 569,0 623,0 623,-36"/>
<text text-anchor="middle" x="596" y="-14.3" font-family="Times,serif" font-size="14.00">s13</text>
</g>
<!-- N0&#45;&gt;N13 -->
<g id="edge3" class="edge">
<title>N0&#45;&gt;N13</title>
<path fill="none" stroke="black" d="M736.47,-1183.1C742.7,-1172.7 750.68,-1159.7 756,-1147.1 776.76,-1097.8 784,-1083.6 784,-1030.2 784,-1030.2 784,-1030.2 784,-170.3 784,-93.16 687.83,-49.95 632.94,-30.92"/>
<polygon fill="black" stroke="black" points="633.8,-27.52 623.21,-27.65 631.57,-34.15 633.8,-27.52"/>
</g>
<!-- N17&#45;&gt;N0 -->
<g id="edge4" class="edge">
<title>N17&#45;&gt;N0</title>
<path fill="none" stroke="black" d="M735.29,-1146.5C735.8,-1154.9 735.88,-1164.2 735.56,-1172.9"/>
<polygon fill="black" stroke="black" points="732.06,-1172.81 734.95,-1183 739.05,-1173.23 732.06,-1172.81"/>
</g>
<!-- N19 -->
<g id="node5" class="node">
<title>N19</title>
<ellipse fill="none" stroke="blue" cx="312" cy="-1029.2" rx="27.5" ry="27.5"/>
<text text-anchor="middle" x="312" y="-1025.5" font-family="Times,serif" font-size="14.00">s19</text>
</g>
<!-- N17&#45;&gt;N19 -->
<g id="edge5" class="edge">
<title>N17&#45;&gt;N19</title>
<path fill="none" stroke="blue" d="M702.28,-1113.1C630.05,-1097.7 430.82,-1055.4 348.41,-1037.9"/>
<polygon fill="blue" stroke="blue" points="349.01,-1034.45 338.5,-1035.8 347.56,-1041.3 349.01,-1034.45"/>
</g>
<!-- N10 -->
<g id="node6" class="node">
<title>N10</title>
<ellipse fill="none" stroke="blue" cx="614" cy="-171.3" rx="27.5" ry="27.5"/>
<text text-anchor="middle" x="614" y="-167.6" font-family="Times,serif" font-size="14.00">s10</text>
</g>
<!-- N17&#45;&gt;N10 -->
<g id="edge6" class="edge">
<title>N17&#45;&gt;N10</title>
<path fill="none" stroke="blue" d="M724.76,-1092.7C724.33,-1058.7 728,-997.7 728,-945.43 728,-945.43 728,-945.43 728,-332.89 728,-274.53 676.17,-224.27 642.26,-196.18"/>
<polygon fill="blue" stroke="blue" points="644.46,-193.45 634.49,-189.86 640.04,-198.89 644.46,-193.45"/>
</g>
<!-- N6 -->
<g id="node7" class="node">
<title>N6</title>
<ellipse fill="none" stroke="red" cx="273" cy="-418.64" rx="21.5" ry="21.5"/>
<text text-anchor="middle" x="273" y="-414.94" font-family="Times,serif" font-size="14.00">s6</text>
</g>
<!-- N7&#45;&gt;N6 -->
<g id="edge7" class="edge">
<title>N7&#45;&gt;N6</title>
<path fill="none" stroke="black" d="M358.16,-484.3C341.77,-471.85 316.67,-452.8 297.96,-438.59"/>
<polygon fill="black" stroke="black" points="299.95,-435.71 289.87,-432.45 295.72,-441.28 299.95,-435.71"/>
</g>
<!-- N15 -->
<g id="node8" class="node">
<title>N15</title>
<ellipse fill="none" stroke="red" cx="369" cy="-333.89" rx="27.5" ry="27.5"/>
<text text-anchor="middle" x="369" y="-330.19" font-family="Times,serif" font-size="14.00">s15</text>
</g>
<!-- N7&#45;&gt;N15 -->
<g id="edge8" class="edge">
<title>N7&#45;&gt;N15</title>
<path fill="none" stroke="black" d="M374.24,-476.54C373.26,-450.16 371.55,-403.91 370.35,-371.46"/>
<polygon fill="black" stroke="black" points="373.85,-371.31 369.98,-361.45 366.85,-371.57 373.85,-371.31"/>
</g>
<!-- N13&#45;&gt;N0 -->
<g id="edge9" class="edge">
<title>N13&#45;&gt;N0</title>
<path fill="none" stroke="red" d="M623.18,-24.73C679.34,-39.35 802,-83.19 802,-170.3 802,-1030.2 802,-1030.2 802,-1030.2 802,-1083.6 794.76,-1097.8 774,-1147.1 770.01,-1156.5 764.52,-1166.2 758.67,-1174.8"/>
<polygon fill="red" stroke="red" points="755.71,-1172.93 752.75,-1183.1 761.41,-1176.99 755.71,-1172.93"/>
</g>
<!-- N19&#45;&gt;N10 -->
<g id="edge10" class="edge">
<title>N19&#45;&gt;N10</title>
<path fill="none" stroke="blue" d="M338.77,-1023.6C397.75,-1012 539.37,-975.93 612,-886.98 659.57,-828.72 652,-797.75 652,-722.53 652,-722.53 652,-722.53 652,-332.89 652,-288.43 638.03,-238.85 627.03,-206.7"/>
<polygon fill="blue" stroke="blue" points="630.21,-205.18 623.59,-196.91 623.6,-207.5 630.21,-205.18"/>
</g>
<!-- N8 -->
<g id="node9" class="node">
<title>N8</title>
<ellipse fill="none" stroke="red" cx="286" cy="-944.43" rx="21.5" ry="21.5"/>
<text text-anchor="middle" x="286" y="-940.73" font-family="Times,serif" font-size="14.00">s8</text>
</g>
<!-- N19&#45;&gt;N8 -->
<g id="edge11" class="edge">
<title>N19&#45;&gt;N8</title>
<path fill="none" stroke="black" d="M304.06,-1002.9C301.25,-993.97 298.07,-983.84 295.17,-974.61"/>
<polygon fill="black" stroke="black" points="298.5,-973.53 292.16,-965.04 291.82,-975.63 298.5,-973.53"/>
</g>
<!-- N9 -->
<g id="node10" class="node">
<title>N9</title>
<polygon fill="none" stroke="red" points="368,-814.98 314,-814.98 314,-778.98 368,-778.98 368,-814.98"/>
<text text-anchor="middle" x="341" y="-793.28" font-family="Times,serif" font-size="14.00">s9</text>
</g>
<!-- N19&#45;&gt;N9 -->
<g id="edge12" class="edge">
<title>N19&#45;&gt;N9</title>
<path fill="none" stroke="black" d="M315.33,-1001.8C320.88,-957.69 331.98,-869.59 337.59,-825.07"/>
<polygon fill="black" stroke="black" points="341.08,-825.35 338.86,-814.99 334.14,-824.47 341.08,-825.35"/>
</g>
<!-- N10&#45;&gt;N17 -->
<g id="edge13" class="edge">
<title>N10&#45;&gt;N17</title>
<path fill="none" stroke="blue" d="M638.12,-184.56C676.45,-208.55 746,-265.29 746,-332.89 746,-945.43 746,-945.43 746,-945.43 746,-993.21 742.93,-1048.3 738.45,-1083.3"/>
<polygon fill="blue" stroke="blue" points="734.94,-1083.11 737.02,-1093.5 741.87,-1084.08 734.94,-1083.11"/>
</g>
<!-- N6&#45;&gt;N15 -->
<g id="edge14" class="edge">
<title>N6&#45;&gt;N15</title>
<path fill="none" stroke="black" d="M288.85,-403.97C302.95,-391.82 323.89,-373.77 340.83,-359.17"/>
<polygon fill="black" stroke="black" points="343.49,-361.5 348.78,-352.32 338.92,-356.2 343.49,-361.5"/>
</g>
<!-- N6&#45;&gt;N8 -->
<g id="edge15" class="edge">
<title>N6&#45;&gt;N8</title>
<path fill="none" stroke="black" d="M273.51,-440.31C275.52,-521.15 282.84,-816.15 285.24,-912.65"/>
<polygon fill="black" stroke="black" points="281.75,-912.99 285.49,-922.9 288.75,-912.82 281.75,-912.99"/>
</g>
<!-- N12 -->
<g id="node11" class="node">
<title>N12</title>
<polygon fill="none" stroke="red" points="357,-592.09 303,-592.09 303,-556.09 357,-556.09 357,-592.09"/>
<text text-anchor="middle" x="330" y="-570.39" font-family="Times,serif" font-size="14.00">s12</text>
</g>
<!-- N6&#45;&gt;N12 -->
<g id="edge16" class="edge">
<title>N6&#45;&gt;N12</title>
<path fill="none" stroke="black" d="M280.24,-439.13C290.36,-466.36 308.75,-515.88 320.12,-546.49"/>
<polygon fill="black" stroke="black" points="316.92,-547.92 323.68,-556.08 323.48,-545.49 316.92,-547.92"/>
</g>
<!-- N3 -->
<g id="node12" class="node">
<title>N3</title>
<polygon fill="none" stroke="red" points="287,-270.6 233,-270.6 233,-234.6 287,-234.6 287,-270.6"/>
<text text-anchor="middle" x="260" y="-248.9" font-family="Times,serif" font-size="14.00">s3</text>
</g>
<!-- N15&#45;&gt;N3 -->
<g id="edge17" class="edge">
<title>N15&#45;&gt;N3</title>
<path fill="none" stroke="black" d="M347.2,-317.04C331.4,-305.54 309.78,-289.81 292.01,-276.89"/>
<polygon fill="black" stroke="black" points="293.79,-273.86 283.65,-270.8 289.67,-279.52 293.79,-273.86"/>
</g>
<!-- N11 -->
<g id="node13" class="node">
<title>N11</title>
<polygon fill="none" stroke="red" points="472,-270.6 418,-270.6 418,-234.6 472,-234.6 472,-270.6"/>
<text text-anchor="middle" x="445" y="-248.9" font-family="Times,serif" font-size="14.00">s11</text>
</g>
<!-- N15&#45;&gt;N11 -->
<g id="edge18" class="edge">
<title>N15&#45;&gt;N11</title>
<path fill="none" stroke="black" d="M387.4,-313.7C397.61,-303.05 410.41,-289.68 421.36,-278.26"/>
<polygon fill="black" stroke="black" points="424.19,-280.37 428.58,-270.73 419.13,-275.53 424.19,-280.37"/>
</g>
<!-- N2 -->
<g id="node14" class="node">
<title>N2</title>
<ellipse fill="none" stroke="red" cx="237" cy="-721.53" rx="21.5" ry="21.5"/>
<text text-anchor="middle" x="237" y="-717.83" font-family="Times,serif" font-size="14.00">s2</text>
</g>
<!-- N8&#45;&gt;N2 -->
<g id="edge19" class="edge">
<title>N8&#45;&gt;N2</title>
<path fill="none" stroke="black" d="M280.85,-923.35C278.13,-912.59 274.79,-899.08 272,-886.98 261.24,-840.27 249.88,-785.81 243.12,-752.77"/>
<polygon fill="black" stroke="black" points="246.52,-751.94 241.09,-742.84 239.66,-753.34 246.52,-751.94"/>
</g>
<!-- N18 -->
<g id="node15" class="node">
<title>N18</title>
<polygon fill="none" stroke="red" points="243,-664.09 189,-664.09 189,-628.09 243,-628.09 243,-664.09"/>
<text text-anchor="middle" x="216" y="-642.39" font-family="Times,serif" font-size="14.00">s18</text>
</g>
<!-- N8&#45;&gt;N18 -->
<g id="edge20" class="edge">
<title>N8&#45;&gt;N18</title>
<path fill="none" stroke="black" d="M276.06,-925.36C257.84,-891.07 219.81,-813.65 207,-742.98 202.82,-719.94 205.91,-693.4 209.56,-674.1"/>
<polygon fill="black" stroke="black" points="213.01,-674.68 211.61,-664.18 206.16,-673.26 213.01,-674.68"/>
</g>
<!-- N5 -->
<g id="node16" class="node">
<title>N5</title>
<polygon fill="none" stroke="red" points="258,-108 204,-108 204,-72 258,-72 258,-108"/>
<text text-anchor="middle" x="231" y="-86.3" font-family="Times,serif" font-size="14.00">s5</text>
</g>
<!-- N8&#45;&gt;N5 -->
<g id="edge21" class="edge">
<title>N8&#45;&gt;N5</title>
<path fill="none" stroke="black" d="M266.8,-934.22C229.31,-914.75 150,-865.57 150,-797.98 150,-797.98 150,-797.98 150,-720.53 150,-621.92 136,-597.7 136,-499.09 136,-499.09 136,-499.09 136,-251.6 136,-197.18 176.91,-145.02 205.03,-115.6"/>
<polygon fill="black" stroke="black" points="207.72,-117.86 212.23,-108.27 202.73,-112.95 207.72,-117.86"/>
</g>
<!-- N14 -->
<g id="node17" class="node">
<title>N14</title>
<polygon fill="none" stroke="red" points="603,-886.98 549,-886.98 549,-850.98 603,-850.98 603,-886.98"/>
<text text-anchor="middle" x="576" y="-865.28" font-family="Times,serif" font-size="14.00">s14</text>
</g>
<!-- N8&#45;&gt;N14 -->
<g id="edge22" class="edge">
<title>N8&#45;&gt;N14</title>
<path fill="none" stroke="black" d="M306.86,-938.15C355.57,-925.81 477.38,-894.96 539.02,-879.35"/>
<polygon fill="black" stroke="black" points="539.9,-882.74 548.73,-876.89 538.18,-875.95 539.9,-882.74"/>
</g>
<!-- N9&#45;&gt;N10 -->
<g id="edge23" class="edge">
<title>N9&#45;&gt;N10</title>
<path fill="none" stroke="black" d="M368.39,-789.13C422.52,-773.75 538,-731.11 538,-647.09 538,-647.09 538,-647.09 538,-332.89 538,-282.99 568.36,-232.02 590.7,-201.26"/>
<polygon fill="black" stroke="black" points="593.58,-203.25 596.75,-193.14 587.97,-199.07 593.58,-203.25"/>
</g>
<!-- N9&#45;&gt;N12 -->
<g id="edge24" class="edge">
<title>N9&#45;&gt;N12</title>
<path fill="none" stroke="red" d="M340.14,-778.65C338.23,-740.42 333.66,-648.62 331.37,-602.5"/>
<polygon fill="red" stroke="red" points="334.86,-602.15 330.86,-592.34 327.87,-602.5 334.86,-602.15"/>
</g>
<!-- N9&#45;&gt;N2 -->
<g id="edge25" class="edge">
<title>N9&#45;&gt;N2</title>
<path fill="none" stroke="black" d="M316.88,-778.95C300.53,-767.4 278.95,-752.16 262.35,-740.44"/>
<polygon fill="black" stroke="black" points="264.36,-737.57 254.17,-734.66 260.32,-743.29 264.36,-737.57"/>
</g>
<!-- N12&#45;&gt;N7 -->
<g id="edge26" class="edge">
<title>N12&#45;&gt;N7</title>
<path fill="none" stroke="black" d="M340.44,-555.92C345.88,-546.97 352.67,-535.81 358.78,-525.76"/>
<polygon fill="black" stroke="black" points="361.94,-527.29 364.15,-516.93 355.96,-523.66 361.94,-527.29"/>
</g>
<!-- N12&#45;&gt;N10 -->
<g id="edge27" class="edge">
<title>N12&#45;&gt;N10</title>
<path fill="none" stroke="black" d="M357.31,-563.12C405.37,-543.62 500,-495.58 500,-419.64 500,-419.64 500,-419.64 500,-332.89 500,-287.92 498.52,-271.65 524,-234.6 537.97,-214.28 560.9,-198.55 580.12,-187.98"/>
<polygon fill="black" stroke="black" points="581.97,-190.96 589.2,-183.21 578.72,-184.76 581.97,-190.96"/>
</g>
<!-- N12&#45;&gt;N11 -->
<g id="edge28" class="edge">
<title>N12&#45;&gt;N11</title>
<path fill="none" stroke="black" d="M357.25,-560.42C373.59,-551.43 393.38,-537.82 405,-520.09 454.32,-444.83 452.11,-332.25 447.96,-280.89"/>
<polygon fill="black" stroke="black" points="451.44,-280.55 447.06,-270.9 444.47,-281.17 451.44,-280.55"/>
</g>
<!-- N1 -->
<g id="node18" class="node">
<title>N1</title>
<polygon fill="none" stroke="red" points="90,-520.09 28,-520.09 28,-476.09 90,-476.09 90,-520.09"/>
<polygon fill="none" stroke="red" points="94,-524.09 24,-524.09 24,-472.09 94,-472.09 94,-524.09"/>
<text text-anchor="middle" x="59" y="-494.39" font-family="Times,serif" font-size="14.00">s1</text>
</g>
<!-- N12&#45;&gt;N1 -->
<g id="edge29" class="edge">
<title>N12&#45;&gt;N1</title>
<path fill="none" stroke="red" d="M302.77,-565.65C255.14,-552.64 156.41,-525.69 100.31,-510.37"/>
<polygon fill="red" stroke="red" points="100.92,-506.91 90.35,-507.65 99.08,-513.66 100.92,-506.91"/>
</g>
<!-- N3&#45;&gt;N19 -->
<g id="edge30" class="edge">
<title>N3&#45;&gt;N19</title>
<path fill="none" stroke="black" d="M243.82,-270.72C218.91,-298.97 174,-358.15 174,-417.64 174,-499.09 174,-499.09 174,-499.09 174,-601.29 112,-618.33 112,-720.53 112,-869.98 112,-869.98 112,-869.98 112,-952.67 218.47,-998.91 276.05,-1017.9"/>
<polygon fill="black" stroke="black" points="275.26,-1021.32 285.85,-1021 277.37,-1014.65 275.26,-1021.32"/>
</g>
<!-- N3&#45;&gt;N6 -->
<g id="edge31" class="edge">
<title>N3&#45;&gt;N6</title>
<path fill="none" stroke="black" d="M261.36,-270.8C263.54,-298.29 267.84,-352.51 270.56,-386.81"/>
<polygon fill="black" stroke="black" points="267.1,-387.5 271.38,-397.19 274.08,-386.95 267.1,-387.5"/>
</g>
<!-- N16 -->
<g id="node19" class="node">
<title>N16</title>
<polygon fill="none" stroke="red" points="286,-189.3 232,-189.3 232,-153.3 286,-153.3 286,-189.3"/>
<text text-anchor="middle" x="259" y="-167.6" font-family="Times,serif" font-size="14.00">s16</text>
</g>
<!-- N3&#45;&gt;N16 -->
<g id="edge32" class="edge">
<title>N3&#45;&gt;N16</title>
<path fill="none" stroke="red" d="M259.78,-234.39C259.65,-224.21 259.49,-211.08 259.34,-199.52"/>
<polygon fill="red" stroke="red" points="262.84,-199.43 259.22,-189.47 255.84,-199.51 262.84,-199.43"/>
</g>
<!-- N11&#45;&gt;N13 -->
<g id="edge33" class="edge">
<title>N11&#45;&gt;N13</title>
<path fill="none" stroke="red" d="M456.1,-234.49C482.34,-194.08 548.27,-92.52 579.33,-44.68"/>
<polygon fill="red" stroke="red" points="582.37,-46.42 584.88,-36.13 576.5,-42.61 582.37,-46.42"/>
</g>
<!-- N11&#45;&gt;N10 -->
<g id="edge34" class="edge">
<title>N11&#45;&gt;N10</title>
<path fill="none" stroke="black" d="M472.15,-238.85C501.58,-225.05 548.57,-203 580.33,-188.1"/>
<polygon fill="black" stroke="black" points="582.1,-191.14 589.66,-183.72 579.12,-184.8 582.1,-191.14"/>
</g>
<!-- N11&#45;&gt;N8 -->
<g id="edge35" class="edge">
<title>N11&#45;&gt;N8</title>
<path fill="none" stroke="black" d="M444.17,-270.76C441.62,-325.41 434,-500.26 434,-645.09 434,-797.98 434,-797.98 434,-797.98 434,-864.13 357.86,-910.21 314.81,-930.99"/>
<polygon fill="black" stroke="black" points="313.23,-927.86 305.65,-935.26 316.19,-934.21 313.23,-927.86"/>
</g>
<!-- N2&#45;&gt;N18 -->
<g id="edge39" class="edge">
<title>N2&#45;&gt;N18</title>
<path fill="none" stroke="black" d="M231.26,-700.46C228.92,-692.28 226.18,-682.7 223.68,-673.93"/>
<polygon fill="black" stroke="black" points="226.99,-672.79 220.88,-664.14 220.26,-674.72 226.99,-672.79"/>
</g>
<!-- N18&#45;&gt;N12 -->
<g id="edge40" class="edge">
<title>N18&#45;&gt;N12</title>
<path fill="none" stroke="red" d="M243.02,-628.5C258.24,-619.15 277.45,-607.35 293.94,-597.23"/>
<polygon fill="red" stroke="red" points="296.09,-600.02 302.78,-591.8 292.43,-594.05 296.09,-600.02"/>
</g>
<!-- N5&#45;&gt;N13 -->
<g id="edge41" class="edge">
<title>N5&#45;&gt;N13</title>
<path fill="none" stroke="red" d="M258.14,-83.8C322.54,-71.44 484.73,-40.34 558.47,-26.2"/>
<polygon fill="red" stroke="red" points="559.53,-29.56 568.69,-24.24 558.21,-22.68 559.53,-29.56"/>
</g>
<!-- N5&#45;&gt;N19 -->
<g id="edge42" class="edge">
<title>N5&#45;&gt;N19</title>
<path fill="none" stroke="black" d="M203.59,-96.46C142.4,-110.41 0,-153.42 0,-251.6 0,-797.98 0,-797.98 0,-797.98 0,-891.28 50.34,-911.28 126,-965.88 171.38,-998.62 235.13,-1015 274.98,-1022.5"/>
<polygon fill="black" stroke="black" points="274.6,-1025.99 285.06,-1024.3 275.83,-1019.1 274.6,-1025.99"/>
</g>
<!-- N5&#45;&gt;N12 -->
<g id="edge43" class="edge">
<title>N5&#45;&gt;N12</title>
<path fill="none" stroke="red" d="M258.21,-100.73C277.15,-109.07 301.08,-123.09 313,-144 332.81,-178.74 331.36,-456.64 330.37,-545.72"/>
<polygon fill="red" stroke="red" points="326.87,-545.81 330.25,-555.85 333.87,-545.89 326.87,-545.81"/>
</g>
<!-- N5&#45;&gt;N18 -->
<g id="edge44" class="edge">
<title>N5&#45;&gt;N18</title>
<path fill="none" stroke="black" d="M227.93,-108.13C226.19,-118.48 224.15,-131.96 223,-144 211.46,-265.17 212,-295.92 212,-417.64 212,-499.09 212,-499.09 212,-499.09 212,-540.46 213.62,-588.4 214.8,-617.73"/>
<polygon fill="black" stroke="black" points="211.32,-618.17 215.23,-628.01 218.31,-617.87 211.32,-618.17"/>
</g>
<!-- N14&#45;&gt;N13 -->
<g id="edge45" class="edge">
<title>N14&#45;&gt;N13</title>
<path fill="none" stroke="red" d="M602.44,-850.79C636.12,-826.57 690,-779 690,-722.53 690,-722.53 690,-722.53 690,-170.3 690,-119.42 651.17,-71.44 623.43,-43.66"/>
<polygon fill="red" stroke="red" points="625.54,-40.83 615.93,-36.37 620.66,-45.85 625.54,-40.83"/>
</g>
<!-- N14&#45;&gt;N10 -->
<g id="edge46" class="edge">
<title>N14&#45;&gt;N10</title>
<path fill="none" stroke="black" d="M583.51,-850.9C594.58,-824.1 614,-770.3 614,-722.53 614,-722.53 614,-722.53 614,-332.89 614,-290.43 614,-241.66 614,-209.11"/>
<polygon fill="black" stroke="black" points="617.5,-208.73 614,-198.73 610.5,-208.73 617.5,-208.73"/>
</g>
<!-- N14&#45;&gt;N15 -->
<g id="edge47" class="edge">
<title>N14&#45;&gt;N15</title>
<path fill="none" stroke="black" d="M576,-850.96C576,-823.81 576,-769 576,-722.53 576,-722.53 576,-722.53 576,-497.09 576,-411.2 464.22,-363.96 404.95,-344.94"/>
<polygon fill="black" stroke="black" points="405.81,-341.54 395.22,-341.92 403.73,-348.23 405.81,-341.54"/>
</g>
<!-- N14&#45;&gt;N9 -->
<g id="edge48" class="edge">
<title>N14&#45;&gt;N9</title>
<path fill="none" stroke="black" d="M548.58,-859.82C506.4,-847.25 425.49,-823.15 378.1,-809.03"/>
<polygon fill="black" stroke="black" points="378.82,-805.59 368.24,-806.1 376.83,-812.3 378.82,-805.59"/>
</g>
<!-- N1&#45;&gt;N13 -->
<g id="edge36" class="edge">
<title>N1&#45;&gt;N13</title>
<path fill="none" stroke="black" d="M63.08,-475.93C68.66,-445.05 78,-385.78 78,-334.89 78,-334.89 78,-334.89 78,-170.3 78,-102.38 132.85,-99.39 195,-72 259.93,-43.39 472.2,-26.92 558.76,-21.26"/>
<polygon fill="black" stroke="black" points="559.16,-24.74 568.91,-20.6 558.71,-17.75 559.16,-24.74"/>
</g>
<!-- N1&#45;&gt;N6 -->
<g id="edge37" class="edge">
<title>N1&#45;&gt;N6</title>
<path fill="none" stroke="black" d="M90.12,-485.82C131.26,-470.93 203.24,-444.88 243.54,-430.3"/>
<polygon fill="black" stroke="black" points="244.85,-433.55 253.06,-426.85 242.47,-426.97 244.85,-433.55"/>
</g>
<!-- N1&#45;&gt;N1 -->
<g id="edge38" class="edge">
<title>N1&#45;&gt;N1</title>
<path fill="none" stroke="black" d="M90.1,-512.33C100.09,-512.19 108,-507.44 108,-498.09 108,-492.24 104.91,-488.19 100.15,-485.95"/>
<polygon fill="black" stroke="black" points="100.61,-482.47 90.1,-483.84 99.17,-489.32 100.61,-482.47"/>
</g>
<!-- N16&#45;&gt;N5 -->
<g id="edge49" class="edge">
<title>N16&#45;&gt;N5</title>
<path fill="none" stroke="red" d="M252.92,-153.09C249.29,-142.8 244.6,-129.51 240.49,-117.87"/>
<polygon fill="red" stroke="red" points="243.69,-116.43 237.06,-108.17 237.09,-118.76 243.69,-116.43"/>
</g>
<!-- N16&#45;&gt;N16 -->
<g id="edge50" class="edge">
<title>N16&#45;&gt;N16</title>
<path fill="none" stroke="black" d="M286.24,-186.28C296.02,-186.61 304,-181.61 304,-171.3 304,-164.85 300.88,-160.48 296.16,-158.19"/>
<polygon fill="black" stroke="black" points="296.72,-154.73 286.24,-156.31 295.41,-161.61 296.72,-154.73"/>
</g>
<!-- N4 -->
<g id="node20" class="node">
<title>N4</title>
<ellipse fill="none" stroke="blue" cx="348" cy="-1205.1" rx="21.5" ry="21.5"/>
<text text-anchor="middle" x="348" y="-1201.4" font-family="Times,serif" font-size="14.00">s4</text>
</g>
<!-- N4&#45;&gt;N17 -->
<g id="edge51" class="edge">
<title>N4&#45;&gt;N17</title>
<path fill="none" stroke="blue" d="M368.75,-1199.5C430.5,-1186 613.63,-1146 692.36,-1128.8"/>
<polygon fill="blue" stroke="blue" points="693.3,-1132.18 702.31,-1126.6 691.79,-1125.34 693.3,-1132.18"/>
</g>
<!-- N4&#45;&gt;N1 -->
<g id="edge52" class="edge">
<title>N4&#45;&gt;N1</title>
<path fill="none" stroke="black" d="M329.99,-1193C263.83,-1150.6 38,-991.78 38,-797.98 38,-797.98 38,-797.98 38,-645.09 38,-605.17 45.78,-559.74 51.87,-530.31"/>
<polygon fill="black" stroke="black" points="55.36,-530.74 54.02,-520.23 48.51,-529.28 55.36,-530.74"/>
</g>
</g>
</svg>
