<?xml version="1.0" encoding="UTF-8" standalone="no"?>
<!DOCTYPE svg PUBLIC "-//W3C//DTD SVG 1.1//EN"
 "http://www.w3.org/Graphics/SVG/1.1/DTD/svg11.dtd">
<!-- Generated by graphviz version 2.43.0 (0)
 -->
<!-- Title: G Pages: 1 -->
<svg width="297pt" height="372pt"
 viewBox="0.00 0.00 296.68 371.63" xmlns="http://www.w3.org/2000/svg" xmlns:xlink="http://www.w3.org/1999/xlink">
<g id="graph0" class="graph" transform="scale(1 1) rotate(0) translate(4 367.63)">
<title>G</title>
<polygon fill="white" stroke="transparent" points="-4,4 -4,-367.63 292.68,-367.63 292.68,4 -4,4"/>
<!-- N0 -->
<g id="node1" class="node">
<title>N0</title>
<polygon fill="none" stroke="orange" points="245,-359.63 183,-359.63 183,-315.63 245,-315.63 245,-359.63"/>
<polygon fill="none" stroke="orange" points="249,-363.63 179,-363.63 179,-311.63 249,-311.63 249,-363.63"/>
<text text-anchor="middle" x="214" y="-333.93" font-family="Times,serif" font-size="14.00">s0</text>
</g>
<!-- N8 -->
<g id="node2" class="node">
<title>N8</title>
<polygon fill="none" stroke="blue" points="54,-276.19 0,-276.19 0,-240.19 54,-240.19 54,-276.19"/>
<text text-anchor="middle" x="27" y="-254.49" font-family="Times,serif" font-size="14.00">s8</text>
</g>
<!-- N0&#45;&gt;N8 -->
<g id="edge1" class="edge">
<title>N0&#45;&gt;N8</title>
<path fill="none" stroke="black" d="M182.76,-326.44C153.75,-316.62 109.32,-300.71 63.47,-279.56"/>
<polygon fill="black" stroke="black" points="64.83,-276.33 54.28,-275.27 61.86,-282.68 64.83,-276.33"/>
</g>
<!-- N3 -->
<g id="node3" class="node">
<title>N3</title>
<polygon fill="none" stroke="green" points="205,-276.19 151,-276.19 151,-240.19 205,-240.19 205,-276.19"/>
<text text-anchor="middle" x="178" y="-254.49" font-family="Times,serif" font-size="14.00">s3</text>
</g>
<!-- N0&#45;&gt;N3 -->
<g id="edge2" class="edge">
<title>N0&#45;&gt;N3</title>
<path fill="none" stroke="black" d="M204.16,-315.47C199.88,-306.27 194.83,-295.39 190.3,-285.65"/>
<polygon fill="black" stroke="black" points="193.4,-284.01 186.01,-276.41 187.05,-286.96 193.4,-284.01"/>
</g>
<!-- N6 -->
<g id="node4" class="node">
<title>N6</title>
<ellipse fill="none" stroke="blue" cx="27" cy="-179.29" rx="21.5" ry="21.5"/>
<text text-anchor="middle" x="27" y="-175.59" font-family="Times,serif" font-size="14.00">s6</text>
</g>
<!-- N8&#45;&gt;N6 -->
<g id="edge3" class="edge">
<title>N8&#45;&gt;N6</title>
<path fill="none" stroke="black" d="M21.28,-240.12C20.33,-231.32 20.04,-220.33 20.4,-210.17"/>
<polygon fill="black" stroke="black" points="23.9,-210.22 21.02,-200.02 16.92,-209.79 23.9,-210.22"/>
</g>
<!-- N3&#45;&gt;N3 -->
<g id="edge4" class="edge">
<title>N3&#45;&gt;N3</title>
<path fill="none" stroke="black" d="M205.24,-272.8C215.02,-273.11 223,-268.24 223,-258.19 223,-251.9 219.88,-247.64 215.16,-245.41"/>
<polygon fill="black" stroke="black" points="215.71,-241.95 205.24,-243.58 214.44,-248.84 215.71,-241.95"/>
</g>
<!-- N5 -->
<g id="node5" class="node">
<title>N5</title>
<polygon fill="none" stroke="green" points="244,-197.29 213.5,-179.29 244,-161.29 274.5,-179.29 244,-197.29"/>
<text text-anchor="middle" x="244" y="-175.59" font-family="Times,serif" font-size="14.00">s5</text>
</g>
<!-- N3&#45;&gt;N5 -->
<g id="edge5" class="edge">
<title>N3&#45;&gt;N5</title>
<path fill="none" stroke="black" d="M192.65,-240.12C202.99,-228.07 216.86,-211.91 227.58,-199.42"/>
<polygon fill="black" stroke="black" points="230.24,-201.7 234.1,-191.83 224.93,-197.14 230.24,-201.7"/>
</g>
<!-- N9 -->
<g id="node6" class="node">
<title>N9</title>
<polygon fill="none" stroke="blue" points="103,-118.39 49,-118.39 49,-82.39 103,-82.39 103,-118.39"/>
<text text-anchor="middle" x="76" y="-96.69" font-family="Times,serif" font-size="14.00">s9</text>
</g>
<!-- N3&#45;&gt;N9 -->
<g id="edge6" class="edge">
<title>N3&#45;&gt;N9</title>
<path fill="none" stroke="black" d="M150.97,-245.68C132.3,-236.31 108.49,-221.27 95,-200.74 80.96,-179.37 76.75,-150.17 75.72,-128.96"/>
<polygon fill="black" stroke="black" points="79.21,-128.58 75.44,-118.68 72.21,-128.77 79.21,-128.58"/>
</g>
<!-- N6&#45;&gt;N8 -->
<g id="edge7" class="edge">
<title>N6&#45;&gt;N8</title>
<path fill="none" stroke="black" d="M32.98,-200.02C33.79,-209.13 33.96,-220.09 33.49,-229.97"/>
<polygon fill="black" stroke="black" points="29.98,-229.89 32.72,-240.12 36.96,-230.41 29.98,-229.89"/>
</g>
<!-- N6&#45;&gt;N9 -->
<g id="edge8" class="edge">
<title>N6&#45;&gt;N9</title>
<path fill="none" stroke="black" d="M33.63,-158.49C38.93,-148.82 46.28,-137.08 53.44,-126.77"/>
<polygon fill="black" stroke="black" points="56.37,-128.69 59.36,-118.52 50.69,-124.6 56.37,-128.69"/>
</g>
<!-- N5&#45;&gt;N0 -->
<g id="edge9" class="edge">
<title>N5&#45;&gt;N0</title>
<path fill="none" stroke="black" d="M242.94,-196.97C241.45,-216.84 238.21,-250.94 232,-279.63 230.14,-288.22 227.55,-297.35 224.91,-305.74"/>
<polygon fill="black" stroke="black" points="221.5,-304.91 221.7,-315.5 228.15,-307.1 221.5,-304.91"/>
</g>
<!-- N2 -->
<g id="node7" class="node">
<title>N2</title>
<ellipse fill="none" stroke="green" cx="244" cy="-100.39" rx="21.5" ry="21.5"/>
<text text-anchor="middle" x="244" y="-96.69" font-family="Times,serif" font-size="14.00">s2</text>
</g>
<!-- N5&#45;&gt;N2 -->
<g id="edge10" class="edge">
<title>N5&#45;&gt;N2</title>
<path fill="none" stroke="black" d="M244,-161.22C244,-152.71 244,-142.15 244,-132.28"/>
<polygon fill="black" stroke="black" points="247.5,-131.97 244,-121.97 240.5,-131.97 247.5,-131.97"/>
</g>
<!-- N9&#45;&gt;N6 -->
<g id="edge11" class="edge">
<title>N9&#45;&gt;N6</title>
<path fill="none" stroke="black" d="M70.78,-118.59C65.02,-129.44 56.18,-143.58 47.84,-155.37"/>
<polygon fill="black" stroke="black" points="45,-153.33 41.91,-163.46 50.64,-157.47 45,-153.33"/>
</g>
<!-- N7 -->
<g id="node8" class="node">
<title>N7</title>
<ellipse fill="none" stroke="blue" cx="76" cy="-21.5" rx="21.5" ry="21.5"/>
<text text-anchor="middle" x="76" y="-17.8" font-family="Times,serif" font-size="14.00">s7</text>
</g>
<!-- N9&#45;&gt;N7 -->
<g id="edge12" class="edge">
<title>N9&#45;&gt;N7</title>
<path fill="none" stroke="black" d="M70.28,-82.33C69.33,-73.53 69.04,-62.54 69.4,-52.38"/>
<polygon fill="black" stroke="black" points="72.9,-52.43 70.02,-42.23 65.92,-52 72.9,-52.43"/>
</g>
<!-- N2&#45;&gt;N0 -->
<g id="edge13" class="edge">
<title>N2&#45;&gt;N0</title>
<path fill="none" stroke="black" d="M258.5,-116.78C267.47,-127.41 278.18,-142.38 283,-157.84 288.68,-176.04 286.85,-182.07 283,-200.74 274.88,-240.09 252.12,-280.56 234.94,-306.99"/>
<polygon fill="black" stroke="black" points="231.98,-305.13 229.36,-315.39 237.81,-309 231.98,-305.13"/>
</g>
<!-- N2&#45;&gt;N3 -->
<g id="edge14" class="edge">
<title>N2&#45;&gt;N3</title>
<path fill="none" stroke="black" d="M230.45,-117.77C222.1,-128.58 211.73,-143.37 205,-157.84 194.16,-181.17 186.98,-209.66 182.76,-230.15"/>
<polygon fill="black" stroke="black" points="179.31,-229.58 180.83,-240.06 186.18,-230.92 179.31,-229.58"/>
</g>
<!-- N7&#45;&gt;N6 -->
<g id="edge15" class="edge">
<title>N7&#45;&gt;N6</title>
<path fill="none" stroke="black" d="M62.89,-38.77C54.94,-49.53 45.33,-64.31 40,-78.95 31.98,-100.98 28.81,-127.35 27.59,-147.38"/>
<polygon fill="black" stroke="black" points="24.09,-147.35 27.11,-157.5 31.08,-147.68 24.09,-147.35"/>
</g>
<!-- N7&#45;&gt;N9 -->
<g id="edge16" class="edge">
<title>N7&#45;&gt;N9</title>
<path fill="none" stroke="black" d="M81.98,-42.23C82.79,-51.34 82.96,-62.3 82.49,-72.18"/>
<polygon fill="black" stroke="black" points="78.98,-72.1 81.72,-82.33 85.96,-72.62 78.98,-72.1"/>
</g>
<!-- N1 -->
<g id="node9" class="node">
<title>N1</title>
<ellipse fill="none" stroke="blue" cx="93" cy="-258.19" rx="21.5" ry="21.5"/>
<text text-anchor="middle" x="93" y="-254.49" font-family="Times,serif" font-size="14.00">s1</text>
</g>
<!-- N1&#45;&gt;N6 -->
<g id="edge17" class="edge">
<title>N1&#45;&gt;N6</title>
<path fill="none" stroke="black" d="M79.33,-241.25C70.12,-230.53 57.82,-216.2 47.46,-204.13"/>
<polygon fill="black" stroke="black" points="49.83,-201.51 40.66,-196.2 44.51,-206.07 49.83,-201.51"/>
</g>
<!-- N4 -->
<g id="node10" class="node">
<title>N4</title>
<polygon fill="none" stroke="blue" points="158,-197.29 104,-197.29 104,-161.29 158,-161.29 158,-197.29"/>
<text text-anchor="middle" x="131" y="-175.59" font-family="Times,serif" font-size="14.00">s4</text>
</g>
<!-- N4&#45;&gt;N9 -->
<g id="edge18" class="edge">
<title>N4&#45;&gt;N9</title>
<path fill="none" stroke="black" d="M118.79,-161.22C111.53,-151.07 102.18,-138 94.07,-126.66"/>
<polygon fill="black" stroke="black" points="96.84,-124.51 88.17,-118.41 91.14,-128.58 96.84,-124.51"/>
</g>
</g>
</svg>
