<?xml version="1.0" encoding="UTF-8" standalone="no"?>
<!DOCTYPE svg PUBLIC "-//W3C//DTD SVG 1.1//EN"
 "http://www.w3.org/Graphics/SVG/1.1/DTD/svg11.dtd">
<!-- Generated by graphviz version 2.43.0 (0)
 -->
<!-- Title: G Pages: 1 -->
<svg width="810pt" height="1239pt"
 viewBox="0.00 0.00 810.00 1239.10" xmlns="http://www.w3.org/2000/svg" xmlns:xlink="http://www.w3.org/1999/xlink">
<g id="graph0" class="graph" transform="scale(1 1) rotate(0) translate(4 1235.1)">
<title>G</title>
<polygon fill="white" stroke="transparent" points="-4,4 -4,-1235.1 806,-1235.1 806,4 -4,4"/>
<!-- N0 -->
<g id="node1" class="node">
<title>N0</title>
<polygon fill="none" stroke="orange" points="760,-1227.1 698,-1227.1 698,-1183.1 760,-1183.1 760,-1227.1"/>
<polygon fill="none" stroke="orange" points="764,-1231.1 694,-1231.1 694,-1179.1 764,-1179.1 764,-1231.1"/>
<text text-anchor="middle" x="729" y="-1201.4" font-family="Times,serif" font-size="14.00">s0</text>
</g>
<!-- N17 -->
<g id="node2" class="node">
<title>N17</title>
<ellipse fill="none" stroke="blue" cx="729" cy="-1119.8" rx="27.5" ry="27.5"/>
<text text-anchor="middle" x="729" y="-1116.1" font-family="Times,serif" font-size="14.00">s17</text>
</g>
<!-- N0&#45;&gt;N17 -->
<g id="edge1" class="edge">
<title>N0&#45;&gt;N17</title>
<path fill="none" stroke="black" d="M723.05,-1183C722.38,-1175.1 722.13,-1165.8 722.3,-1156.8"/>
<polygon fill="black" stroke="black" points="725.81,-1156.63 722.71,-1146.5 718.81,-1156.35 725.81,-1156.63"/>
</g>
<!-- N7 -->
<g id="node3" class="node">
<title>N7</title>
<ellipse fill="none" stroke="green" cx="375" cy="-498.09" rx="21.5" ry="21.5"/>
<text text-anchor="middle" x="375" y="-494.39" font-family="Times,serif" font-size="14.00">s7</text>
</g>
<!-- N0&#45;&gt;N7 -->
<g id="edge2" class="edge">
<title>N0&#45;&gt;N7</title>
<path fill="none" stroke="black" d="M697.77,-1186.2C615.12,-1136.4 397,-986.94 397,-797.98 397,-797.98 397,-797.98 397,-645.09 397,-604.68 388.66,-558.67 382.25,-529.29"/>
<polygon fill="black" stroke="black" points="385.6,-528.24 379.99,-519.25 378.77,-529.77 385.6,-528.24"/>
</g>
<!-- N13 -->
<g id="node4" class="node">
<title>N13</title>
<polygon fill="none" stroke="green" points="596,-36 557.29,-18 596,0 634.71,-18 596,-36"/>
<text text-anchor="middle" x="596" y="-14.3" font-family="Times,serif" font-size="14.00">s13</text>
</g>
<!-- N0&#45;&gt;N13 -->
<g id="edge3" class="edge">
<title>N0&#45;&gt;N13</title>
<path fill="none" stroke="black" d="M736.47,-1183.1C742.7,-1172.7 750.68,-1159.7 756,-1147.1 776.76,-1097.8 784,-1083.6 784,-1030.2 784,-1030.2 784,-1030.2 784,-170.3 784,-90.69 681.56,-47.22 627.8,-29.16"/>
<polygon fill="black" stroke="black" points="628.64,-25.76 618.05,-25.99 626.47,-32.41 628.64,-25.76"/>
</g>
<!-- N17&#45;&gt;N0 -->
<g id="edge4" class="edge">
<title>N17&#45;&gt;N0</title>
<path fill="none" stroke="black" d="M735.29,-1146.5C735.8,-1154.9 735.88,-1164.2 735.56,-1172.9"/>
<polygon fill="black" stroke="black" points="732.06,-1172.81 734.95,-1183 739.05,-1173.23 732.06,-1172.81"/>
</g>
<!-- N19 -->
<g id="node5" class="node">
<title>N19</title>
<ellipse fill="none" stroke="blue" cx="313" cy="-1029.2" rx="27.5" ry="27.5"/>
<text text-anchor="middle" x="313" y="-1025.5" font-family="Times,serif" font-size="14.00">s19</text>
</g>
<!-- N17&#45;&gt;N19 -->
<g id="edge5" class="edge">
<title>N17&#45;&gt;N19</title>
<path fill="none" stroke="black" d="M702.34,-1113.1C630.37,-1097.8 432.01,-1055.5 349.62,-1038"/>
<polygon fill="black" stroke="black" points="350.21,-1034.55 339.7,-1035.9 348.76,-1041.4 350.21,-1034.55"/>
</g>
<!-- N10 -->
<g id="node6" class="node">
<title>N10</title>
<ellipse fill="none" stroke="blue" cx="614" cy="-171.3" rx="27.5" ry="27.5"/>
<text text-anchor="middle" x="614" y="-167.6" font-family="Times,serif" font-size="14.00">s10</text>
</g>
<!-- N17&#45;&gt;N10 -->
<g id="edge6" class="edge">
<title>N17&#45;&gt;N10</title>
<path fill="none" stroke="black" d="M724.76,-1092.7C724.33,-1058.7 728,-997.7 728,-945.43 728,-945.43 728,-945.43 728,-332.89 728,-274.53 676.17,-224.27 642.26,-196.18"/>
<polygon fill="black" stroke="black" points="644.46,-193.45 634.49,-189.86 640.04,-198.89 644.46,-193.45"/>
</g>
<!-- N6 -->
<g id="node7" class="node">
<title>N6</title>
<ellipse fill="none" stroke="green" cx="273" cy="-418.64" rx="21.5" ry="21.5"/>
<text text-anchor="middle" x="273" y="-414.94" font-family="Times,serif" font-size="14.00">s6</text>
</g>
<!-- N7&#45;&gt;N6 -->
<g id="edge7" class="edge">
<title>N7&#45;&gt;N6</title>
<path fill="none" stroke="black" d="M358.16,-484.3C341.77,-471.85 316.67,-452.8 297.96,-438.59"/>
<polygon fill="black" stroke="black" points="299.95,-435.71 289.87,-432.45 295.72,-441.28 299.95,-435.71"/>
</g>
<!-- N15 -->
<g id="node8" class="node">
<title>N15</title>
<ellipse fill="none" stroke="green" cx="369" cy="-333.89" rx="27.5" ry="27.5"/>
<text text-anchor="middle" x="369" y="-330.19" font-family="Times,serif" font-size="14.00">s15</text>
</g>
<!-- N7&#45;&gt;N15 -->
<g id="edge8" class="edge">
<title>N7&#45;&gt;N15</title>
<path fill="none" stroke="black" d="M374.24,-476.54C373.26,-450.16 371.55,-403.91 370.35,-371.46"/>
<polygon fill="black" stroke="black" points="373.85,-371.31 369.98,-361.45 366.85,-371.57 373.85,-371.31"/>
</g>
<!-- N13&#45;&gt;N0 -->
<g id="edge9" class="edge">
<title>N13&#45;&gt;N0</title>
<path fill="none" stroke="black" d="M621.53,-24.3C676.9,-38.48 802,-82.32 802,-170.3 802,-1030.2 802,-1030.2 802,-1030.2 802,-1083.6 794.76,-1097.8 774,-1147.1 770.01,-1156.5 764.52,-1166.2 758.67,-1174.8"/>
<polygon fill="black" stroke="black" points="755.71,-1172.93 752.75,-1183.1 761.41,-1176.99 755.71,-1172.93"/>
</g>
<!-- N19&#45;&gt;N10 -->
<g id="edge10" class="edge">
<title>N19&#45;&gt;N10</title>
<path fill="none" stroke="black" d="M340.13,-1023.5C399.17,-1011.7 539.8,-975.52 612,-886.98 659.54,-828.69 652,-797.75 652,-722.53 652,-722.53 652,-722.53 652,-332.89 652,-288.43 638.03,-238.85 627.03,-206.7"/>
<polygon fill="black" stroke="black" points="630.21,-205.18 623.59,-196.91 623.6,-207.5 630.21,-205.18"/>
</g>
<!-- N8 -->
<g id="node9" class="node">
<title>N8</title>
<ellipse fill="none" stroke="green" cx="287" cy="-944.43" rx="21.5" ry="21.5"/>
<text text-anchor="middle" x="287" y="-940.73" font-family="Times,serif" font-size="14.00">s8</text>
</g>
<!-- N19&#45;&gt;N8 -->
<g id="edge11" class="edge">
<title>N19&#45;&gt;N8</title>
<path fill="none" stroke="black" d="M305.06,-1002.9C302.25,-993.97 299.07,-983.84 296.17,-974.61"/>
<polygon fill="black" stroke="black" points="299.5,-973.53 293.16,-965.04 292.82,-975.63 299.5,-973.53"/>
</g>
<!-- N9 -->
<g id="node10" class="node">
<title>N9</title>
<polygon fill="none" stroke="green" points="369,-814.98 315,-814.98 315,-778.98 369,-778.98 369,-814.98"/>
<text text-anchor="middle" x="342" y="-793.28" font-family="Times,serif" font-size="14.00">s9</text>
</g>
<!-- N19&#45;&gt;N9 -->
<g id="edge12" class="edge">
<title>N19&#45;&gt;N9</title>
<path fill="none" stroke="black" d="M316.33,-1001.8C321.88,-957.69 332.98,-869.59 338.59,-825.07"/>
<polygon fill="black" stroke="black" points="342.08,-825.35 339.86,-814.99 335.14,-824.47 342.08,-825.35"/>
</g>
<!-- N10&#45;&gt;N17 -->
<g id="edge13" class="edge">
<title>N10&#45;&gt;N17</title>
<path fill="none" stroke="black" d="M638.12,-184.56C676.45,-208.55 746,-265.29 746,-332.89 746,-945.43 746,-945.43 746,-945.43 746,-993.21 742.93,-1048.3 738.45,-1083.3"/>
<polygon fill="black" stroke="black" points="734.94,-1083.11 737.02,-1093.5 741.87,-1084.08 734.94,-1083.11"/>
</g>
<!-- N6&#45;&gt;N15 -->
<g id="edge14" class="edge">
<title>N6&#45;&gt;N15</title>
<path fill="none" stroke="black" d="M288.85,-403.97C302.95,-391.82 323.89,-373.77 340.83,-359.17"/>
<polygon fill="black" stroke="black" points="343.49,-361.5 348.78,-352.32 338.92,-356.2 343.49,-361.5"/>
</g>
<!-- N6&#45;&gt;N8 -->
<g id="edge15" class="edge">
<title>N6&#45;&gt;N8</title>
<path fill="none" stroke="black" d="M273.55,-440.31C275.71,-521.15 283.6,-816.15 286.18,-912.65"/>
<polygon fill="black" stroke="black" points="282.69,-913 286.45,-922.9 289.69,-912.81 282.69,-913"/>
</g>
<!-- N12 -->
<g id="node11" class="node">
<title>N12</title>
<polygon fill="none" stroke="green" points="328,-592.09 289.29,-574.09 328,-556.09 366.71,-574.09 328,-592.09"/>
<text text-anchor="middle" x="328" y="-570.39" font-family="Times,serif" font-size="14.00">s12</text>
</g>
<!-- N6&#45;&gt;N12 -->
<g id="edge16" class="edge">
<title>N6&#45;&gt;N12</title>
<path fill="none" stroke="black" d="M279.97,-439.08C289.99,-467.04 308.47,-518.59 319.35,-548.95"/>
<polygon fill="black" stroke="black" points="316.06,-550.14 322.73,-558.37 322.65,-547.78 316.06,-550.14"/>
</g>
<!-- N3 -->
<g id="node12" class="node">
<title>N3</title>
<polygon fill="none" stroke="green" points="287,-270.6 233,-270.6 233,-234.6 287,-234.6 287,-270.6"/>
<text text-anchor="middle" x="260" y="-248.9" font-family="Times,serif" font-size="14.00">s3</text>
</g>
<!-- N15&#45;&gt;N3 -->
<g id="edge17" class="edge">
<title>N15&#45;&gt;N3</title>
<path fill="none" stroke="black" d="M347.2,-317.04C331.4,-305.54 309.78,-289.81 292.01,-276.89"/>
<polygon fill="black" stroke="black" points="293.79,-273.86 283.65,-270.8 289.67,-279.52 293.79,-273.86"/>
</g>
<!-- N11 -->
<g id="node13" class="node">
<title>N11</title>
<polygon fill="none" stroke="green" points="472,-270.6 418,-270.6 418,-234.6 472,-234.6 472,-270.6"/>
<text text-anchor="middle" x="445" y="-248.9" font-family="Times,serif" font-size="14.00">s11</text>
</g>
<!-- N15&#45;&gt;N11 -->
<g id="edge18" class="edge">
<title>N15&#45;&gt;N11</title>
<path fill="none" stroke="black" d="M387.4,-313.7C397.61,-303.05 410.41,-289.68 421.36,-278.26"/>
<polygon fill="black" stroke="black" points="424.19,-280.37 428.58,-270.73 419.13,-275.53 424.19,-280.37"/>
</g>
<!-- N2 -->
<g id="node14" class="node">
<title>N2</title>
<ellipse fill="none" stroke="green" cx="238" cy="-721.53" rx="21.5" ry="21.5"/>
<text text-anchor="middle" x="238" y="-717.83" font-family="Times,serif" font-size="14.00">s2</text>
</g>
<!-- N8&#45;&gt;N2 -->
<g id="edge19" class="edge">
<title>N8&#45;&gt;N2</title>
<path fill="none" stroke="black" d="M281.85,-923.35C279.13,-912.59 275.79,-899.08 273,-886.98 262.24,-840.27 250.88,-785.81 244.12,-752.77"/>
<polygon fill="black" stroke="black" points="247.52,-751.94 242.09,-742.84 240.66,-753.34 247.52,-751.94"/>
</g>
<!-- N18 -->
<g id="node15" class="node">
<title>N18</title>
<polygon fill="none" stroke="green" points="244,-664.09 190,-664.09 190,-628.09 244,-628.09 244,-664.09"/>
<text text-anchor="middle" x="217" y="-642.39" font-family="Times,serif" font-size="14.00">s18</text>
</g>
<!-- N8&#45;&gt;N18 -->
<g id="edge20" class="edge">
<title>N8&#45;&gt;N18</title>
<path fill="none" stroke="black" d="M277.06,-925.36C258.84,-891.07 220.81,-813.65 208,-742.98 203.82,-719.94 206.91,-693.4 210.56,-674.1"/>
<polygon fill="black" stroke="black" points="214.01,-674.68 212.61,-664.18 207.16,-673.26 214.01,-674.68"/>
</g>
<!-- N5 -->
<g id="node16" class="node">
<title>N5</title>
<polygon fill="none" stroke="green" points="258,-108 204,-108 204,-72 258,-72 258,-108"/>
<text text-anchor="middle" x="231" y="-86.3" font-family="Times,serif" font-size="14.00">s5</text>
</g>
<!-- N8&#45;&gt;N5 -->
<g id="edge21" class="edge">
<title>N8&#45;&gt;N5</title>
<path fill="none" stroke="black" d="M267.8,-934.22C230.31,-914.75 151,-865.57 151,-797.98 151,-797.98 151,-797.98 151,-720.53 151,-621.89 136,-597.73 136,-499.09 136,-499.09 136,-499.09 136,-251.6 136,-197.18 176.91,-145.02 205.03,-115.6"/>
<polygon fill="black" stroke="black" points="207.72,-117.86 212.23,-108.27 202.73,-112.95 207.72,-117.86"/>
</g>
<!-- N14 -->
<g id="node17" class="node">
<title>N14</title>
<polygon fill="none" stroke="green" points="603,-886.98 549,-886.98 549,-850.98 603,-850.98 603,-886.98"/>
<text text-anchor="middle" x="576" y="-865.28" font-family="Times,serif" font-size="14.00">s14</text>
</g>
<!-- N8&#45;&gt;N14 -->
<g id="edge22" class="edge">
<title>N8&#45;&gt;N14</title>
<path fill="none" stroke="black" d="M307.78,-938.15C356.23,-925.84 477.22,-895.09 538.77,-879.45"/>
<polygon fill="black" stroke="black" points="540,-882.75 548.83,-876.89 538.28,-875.96 540,-882.75"/>
</g>
<!-- N9&#45;&gt;N10 -->
<g id="edge23" class="edge">
<title>N9&#45;&gt;N10</title>
<path fill="none" stroke="black" d="M369.25,-789.08C423.11,-773.63 538,-730.84 538,-647.09 538,-647.09 538,-647.09 538,-332.89 538,-282.99 568.36,-232.02 590.7,-201.26"/>
<polygon fill="black" stroke="black" points="593.58,-203.25 596.75,-193.14 587.97,-199.07 593.58,-203.25"/>
</g>
<!-- N9&#45;&gt;N12 -->
<g id="edge24" class="edge">
<title>N9&#45;&gt;N12</title>
<path fill="none" stroke="black" d="M340.9,-778.65C338.47,-740.23 332.6,-647.71 329.69,-601.82"/>
<polygon fill="black" stroke="black" points="333.18,-601.49 329.06,-591.73 326.19,-601.93 333.18,-601.49"/>
</g>
<!-- N9&#45;&gt;N2 -->
<g id="edge25" class="edge">
<title>N9&#45;&gt;N2</title>
<path fill="none" stroke="black" d="M317.88,-778.95C301.53,-767.4 279.95,-752.16 263.35,-740.44"/>
<polygon fill="black" stroke="black" points="265.36,-737.57 255.17,-734.66 261.32,-743.29 265.36,-737.57"/>
</g>
<!-- N12&#45;&gt;N7 -->
<g id="edge26" class="edge">
<title>N12&#45;&gt;N7</title>
<path fill="none" stroke="black" d="M336.4,-559.86C342.5,-550.25 350.96,-536.93 358.4,-525.22"/>
<polygon fill="black" stroke="black" points="361.44,-526.97 363.84,-516.65 355.53,-523.22 361.44,-526.97"/>
</g>
<!-- N12&#45;&gt;N10 -->
<g id="edge27" class="edge">
<title>N12&#45;&gt;N10</title>
<path fill="none" stroke="black" d="M349.09,-565.76C395.02,-548.31 500,-499.67 500,-419.64 500,-419.64 500,-419.64 500,-332.89 500,-287.92 498.52,-271.65 524,-234.6 537.97,-214.28 560.9,-198.55 580.12,-187.98"/>
<polygon fill="black" stroke="black" points="581.97,-190.96 589.2,-183.21 578.72,-184.76 581.97,-190.96"/>
</g>
<!-- N12&#45;&gt;N11 -->
<g id="edge28" class="edge">
<title>N12&#45;&gt;N11</title>
<path fill="none" stroke="black" d="M347.31,-564.96C365.13,-556.44 390.9,-541.31 405,-520.09 454.91,-444.96 452.33,-331.85 448.02,-280.57"/>
<polygon fill="black" stroke="black" points="451.5,-280.24 447.09,-270.61 444.53,-280.89 451.5,-280.24"/>
</g>
<!-- N1 -->
<g id="node18" class="node">
<title>N1</title>
<polygon fill="none" stroke="orange" points="90,-520.09 28,-520.09 28,-476.09 90,-476.09 90,-520.09"/>
<polygon fill="none" stroke="orange" points="94,-524.09 24,-524.09 24,-472.09 94,-472.09 94,-524.09"/>
<text text-anchor="middle" x="59" y="-494.39" font-family="Times,serif" font-size="14.00">s1</text>
</g>
<!-- N12&#45;&gt;N1 -->
<g id="edge29" class="edge">
<title>N12&#45;&gt;N1</title>
<path fill="none" stroke="black" d="M304.6,-566.65C258.9,-554.08 157.26,-526.12 100.09,-510.39"/>
<polygon fill="black" stroke="black" points="100.87,-506.97 90.3,-507.7 99.02,-513.72 100.87,-506.97"/>
</g>
<!-- N3&#45;&gt;N19 -->
<g id="edge30" class="edge">
<title>N3&#45;&gt;N19</title>
<path fill="none" stroke="black" d="M243.82,-270.72C218.91,-298.97 174,-358.15 174,-417.64 174,-499.09 174,-499.09 174,-499.09 174,-601.17 113,-618.45 113,-720.53 113,-869.98 113,-869.98 113,-869.98 113,-952.67 219.47,-998.91 277.05,-1017.9"/>
<polygon fill="black" stroke="black" points="276.26,-1021.32 286.85,-1021 278.37,-1014.65 276.26,-1021.32"/>
</g>
<!-- N3&#45;&gt;N6 -->
<g id="edge31" class="edge">
<title>N3&#45;&gt;N6</title>
<path fill="none" stroke="black" d="M261.36,-270.8C263.54,-298.29 267.84,-352.51 270.56,-386.81"/>
<polygon fill="black" stroke="black" points="267.1,-387.5 271.38,-397.19 274.08,-386.95 267.1,-387.5"/>
</g>
<!-- N16 -->
<g id="node19" class="node">
<title>N16</title>
<polygon fill="none" stroke="green" points="285,-189.3 231,-189.3 231,-153.3 285,-153.3 285,-189.3"/>
<text text-anchor="middle" x="258" y="-167.6" font-family="Times,serif" font-size="14.00">s16</text>
</g>
<!-- N3&#45;&gt;N16 -->
<g id="edge32" class="edge">
<title>N3&#45;&gt;N16</title>
<path fill="none" stroke="black" d="M259.57,-234.39C259.31,-224.21 258.98,-211.08 258.69,-199.52"/>
<polygon fill="black" stroke="black" points="262.19,-199.38 258.43,-189.47 255.19,-199.56 262.19,-199.38"/>
</g>
<!-- N11&#45;&gt;N13 -->
<g id="edge33" class="edge">
<title>N11&#45;&gt;N13</title>
<path fill="none" stroke="black" d="M456.1,-234.49C483.06,-192.97 551.92,-86.9 581.8,-40.87"/>
<polygon fill="black" stroke="black" points="584.89,-42.54 587.4,-32.25 579.02,-38.73 584.89,-42.54"/>
</g>
<!-- N11&#45;&gt;N10 -->
<g id="edge34" class="edge">
<title>N11&#45;&gt;N10</title>
<path fill="none" stroke="black" d="M472.15,-238.85C501.58,-225.05 548.57,-203 580.33,-188.1"/>
<polygon fill="black" stroke="black" points="582.1,-191.14 589.66,-183.72 579.12,-184.8 582.1,-191.14"/>
</g>
<!-- N11&#45;&gt;N8 -->
<g id="edge35" class="edge">
<title>N11&#45;&gt;N8</title>
<path fill="none" stroke="black" d="M444.25,-270.76C441.92,-325.42 435,-500.27 435,-645.09 435,-797.98 435,-797.98 435,-797.98 435,-864.13 358.86,-910.21 315.81,-930.99"/>
<polygon fill="black" stroke="black" points="314.23,-927.86 306.65,-935.26 317.19,-934.21 314.23,-927.86"/>
</g>
<!-- N2&#45;&gt;N18 -->
<g id="edge39" class="edge">
<title>N2&#45;&gt;N18</title>
<path fill="none" stroke="black" d="M232.26,-700.46C229.92,-692.28 227.18,-682.7 224.68,-673.93"/>
<polygon fill="black" stroke="black" points="227.99,-672.79 221.88,-664.14 221.26,-674.72 227.99,-672.79"/>
</g>
<!-- N18&#45;&gt;N12 -->
<g id="edge40" class="edge">
<title>N18&#45;&gt;N12</title>
<path fill="none" stroke="black" d="M244.15,-627.96C262.41,-616.45 286.26,-601.41 303.85,-590.32"/>
<polygon fill="black" stroke="black" points="305.83,-593.21 312.42,-584.91 302.1,-587.29 305.83,-593.21"/>
</g>
<!-- N5&#45;&gt;N13 -->
<g id="edge41" class="edge">
<title>N5&#45;&gt;N13</title>
<path fill="none" stroke="black" d="M258.14,-83.8C322.86,-71.38 486.32,-40.03 559.55,-25.99"/>
<polygon fill="black" stroke="black" points="560.51,-29.37 569.67,-24.05 559.19,-22.5 560.51,-29.37"/>
</g>
<!-- N5&#45;&gt;N19 -->
<g id="edge42" class="edge">
<title>N5&#45;&gt;N19</title>
<path fill="none" stroke="black" d="M203.59,-96.46C142.4,-110.41 0,-153.42 0,-251.6 0,-797.98 0,-797.98 0,-797.98 0,-891.55 51.02,-911.27 127,-965.88 172.44,-998.54 236.18,-1014.9 276,-1022.5"/>
<polygon fill="black" stroke="black" points="275.62,-1025.99 286.08,-1024.3 276.85,-1019.1 275.62,-1025.99"/>
</g>
<!-- N5&#45;&gt;N12 -->
<g id="edge43" class="edge">
<title>N5&#45;&gt;N12</title>
<path fill="none" stroke="black" d="M258.29,-100.99C276.95,-109.39 300.34,-123.37 312,-144 331.69,-178.85 329.6,-457.28 328.42,-546.02"/>
<polygon fill="black" stroke="black" points="324.92,-546.05 328.28,-556.1 331.92,-546.15 324.92,-546.05"/>
</g>
<!-- N5&#45;&gt;N18 -->
<g id="edge44" class="edge">
<title>N5&#45;&gt;N18</title>
<path fill="none" stroke="black" d="M227.51,-108.11C225.54,-118.45 223.24,-131.93 222,-144 209.56,-265.06 212,-295.94 212,-417.64 212,-499.09 212,-499.09 212,-499.09 212,-540.47 214.03,-588.4 215.5,-617.73"/>
<polygon fill="black" stroke="black" points="212.02,-618.21 216.04,-628.01 219.01,-617.84 212.02,-618.21"/>
</g>
<!-- N14&#45;&gt;N13 -->
<g id="edge45" class="edge">
<title>N14&#45;&gt;N13</title>
<path fill="none" stroke="black" d="M602.44,-850.79C636.12,-826.57 690,-779 690,-722.53 690,-722.53 690,-722.53 690,-170.3 690,-115.13 644.36,-63.38 616.68,-37.08"/>
<polygon fill="black" stroke="black" points="618.79,-34.26 609.07,-30.05 614.04,-39.4 618.79,-34.26"/>
</g>
<!-- N14&#45;&gt;N10 -->
<g id="edge46" class="edge">
<title>N14&#45;&gt;N10</title>
<path fill="none" stroke="black" d="M583.51,-850.9C594.58,-824.1 614,-770.3 614,-722.53 614,-722.53 614,-722.53 614,-332.89 614,-290.43 614,-241.66 614,-209.11"/>
<polygon fill="black" stroke="black" points="617.5,-208.73 614,-198.73 610.5,-208.73 617.5,-208.73"/>
</g>
<!-- N14&#45;&gt;N15 -->
<g id="edge47" class="edge">
<title>N14&#45;&gt;N15</title>
<path fill="none" stroke="black" d="M576,-850.96C576,-823.81 576,-769 576,-722.53 576,-722.53 576,-722.53 576,-497.09 576,-411.2 464.22,-363.96 404.95,-344.94"/>
<polygon fill="black" stroke="black" points="405.81,-341.54 395.22,-341.92 403.73,-348.23 405.81,-341.54"/>
</g>
<!-- N14&#45;&gt;N9 -->
<g id="edge48" class="edge">
<title>N14&#45;&gt;N9</title>
<path fill="none" stroke="black" d="M548.7,-859.82C506.69,-847.25 426.13,-823.15 378.95,-809.03"/>
<polygon fill="black" stroke="black" points="379.71,-805.61 369.13,-806.1 377.71,-812.31 379.71,-805.61"/>
</g>
<!-- N1&#45;&gt;N13 -->
<g id="edge36" class="edge">
<title>N1&#45;&gt;N13</title>
<path fill="none" stroke="black" d="M63.29,-475.94C69.17,-445.07 79,-385.82 79,-334.89 79,-334.89 79,-334.89 79,-170.3 79,-102.72 133.22,-99.38 195,-72 258.53,-43.84 463.5,-27.55 553.25,-21.6"/>
<polygon fill="black" stroke="black" points="553.6,-25.08 563.35,-20.94 553.14,-18.1 553.6,-25.08"/>
</g>
<!-- N1&#45;&gt;N6 -->
<g id="edge37" class="edge">
<title>N1&#45;&gt;N6</title>
<path fill="none" stroke="black" d="M90.12,-485.82C131.26,-470.93 203.24,-444.88 243.54,-430.3"/>
<polygon fill="black" stroke="black" points="244.85,-433.55 253.06,-426.85 242.47,-426.97 244.85,-433.55"/>
</g>
<!-- N1&#45;&gt;N1 -->
<g id="edge38" class="edge">
<title>N1&#45;&gt;N1</title>
<path fill="none" stroke="black" d="M90.1,-512.33C100.09,-512.19 108,-507.44 108,-498.09 108,-492.24 104.91,-488.19 100.15,-485.95"/>
<polygon fill="black" stroke="black" points="100.61,-482.47 90.1,-483.84 99.17,-489.32 100.61,-482.47"/>
</g>
<!-- N16&#45;&gt;N5 -->
<g id="edge49" class="edge">
<title>N16&#45;&gt;N5</title>
<path fill="none" stroke="black" d="M252.14,-153.09C248.64,-142.8 244.11,-129.51 240.15,-117.87"/>
<polygon fill="black" stroke="black" points="243.38,-116.51 236.85,-108.17 236.76,-118.76 243.38,-116.51"/>
</g>
<!-- N16&#45;&gt;N16 -->
<g id="edge50" class="edge">
<title>N16&#45;&gt;N16</title>
<path fill="none" stroke="black" d="M285.24,-186.28C295.02,-186.61 303,-181.61 303,-171.3 303,-164.85 299.88,-160.48 295.16,-158.19"/>
<polygon fill="black" stroke="black" points="295.72,-154.73 285.24,-156.31 294.41,-161.61 295.72,-154.73"/>
</g>
<!-- N4 -->
<g id="node20" class="node">
<title>N4</title>
<ellipse fill="none" stroke="blue" cx="349" cy="-1205.1" rx="21.5" ry="21.5"/>
<text text-anchor="middle" x="349" y="-1201.4" font-family="Times,serif" font-size="14.00">s4</text>
</g>
<!-- N4&#45;&gt;N17 -->
<g id="edge51" class="edge">
<title>N4&#45;&gt;N17</title>
<path fill="none" stroke="black" d="M369.97,-1199.5C431.84,-1185.9 614.17,-1145.9 692.53,-1128.8"/>
<polygon fill="black" stroke="black" points="693.44,-1132.18 702.44,-1126.6 691.92,-1125.35 693.44,-1132.18"/>
</g>
<!-- N4&#45;&gt;N1 -->
<g id="edge52" class="edge">
<title>N4&#45;&gt;N1</title>
<path fill="none" stroke="black" d="M330.94,-1193C264.56,-1150.7 38,-992.01 38,-797.98 38,-797.98 38,-797.98 38,-645.09 38,-605.17 45.78,-559.74 51.87,-530.31"/>
<polygon fill="black" stroke="black" points="55.36,-530.74 54.02,-520.23 48.51,-529.28 55.36,-530.74"/>
</g>
</g>
</svg>
