<?xml version="1.0" encoding="UTF-8" standalone="no"?>
<!DOCTYPE svg PUBLIC "-//W3C//DTD SVG 1.1//EN"
 "http://www.w3.org/Graphics/SVG/1.1/DTD/svg11.dtd">
<!-- Generated by graphviz version 2.43.0 (0)
 -->
<!-- Title: G Pages: 1 -->
<svg width="100pt" height="275pt"
 viewBox="0.00 0.00 100.00 274.95" xmlns="http://www.w3.org/2000/svg" xmlns:xlink="http://www.w3.org/1999/xlink">
<g id="graph0" class="graph" transform="scale(1 1) rotate(0) translate(4 270.95)">
<title>G</title>
<polygon fill="white" stroke="transparent" points="-4,4 -4,-270.95 96,-270.95 96,4 -4,4"/>
<!-- N0 -->
<g id="node1" class="node">
<title>N0</title>
<polygon fill="none" stroke="red" points="54,-36 0,-36 0,0 54,0 54,-36"/>
<text text-anchor="middle" x="27" y="-14.3" font-family="Times,serif" font-size="14.00">s0</text>
</g>
<!-- N1 -->
<g id="node2" class="node">
<title>N1</title>
<ellipse fill="none" stroke="blue" cx="25" cy="-245.45" rx="21.5" ry="21.5"/>
<text text-anchor="middle" x="25" y="-241.75" font-family="Times,serif" font-size="14.00">s2</text>
</g>
<!-- N1&#45;&gt;N0 -->
<g id="edge1" class="edge">
<title>N1&#45;&gt;N0</title>
<path fill="none" stroke="black" d="M22.21,-223.96C18.21,-191.62 11.88,-126.76 17,-72 17.8,-63.48 19.3,-54.28 20.9,-45.99"/>
<polygon fill="black" stroke="black" points="24.36,-46.57 22.94,-36.07 17.5,-45.16 24.36,-46.57"/>
</g>
<!-- N2 -->
<g id="node3" class="node">
<title>N2</title>
<polygon fill="none" stroke="blue" points="82,-188 28,-188 28,-152 82,-152 82,-188"/>
<text text-anchor="middle" x="55" y="-166.3" font-family="Times,serif" font-size="14.00">s3</text>
</g>
<!-- N1&#45;&gt;N2 -->
<g id="edge2" class="edge">
<title>N1&#45;&gt;N2</title>
<path fill="none" stroke="blue" d="M32.88,-225.15C36.3,-216.79 40.36,-206.85 44.06,-197.79"/>
<polygon fill="blue" stroke="blue" points="47.35,-198.99 47.89,-188.41 40.87,-196.35 47.35,-198.99"/>
</g>
<!-- N3 -->
<g id="node4" class="node">
<title>N3</title>
<polygon fill="none" stroke="blue" points="88,-116 26,-116 26,-72 88,-72 88,-116"/>
<polygon fill="none" stroke="blue" points="92,-120 22,-120 22,-68 92,-68 92,-120"/>
<text text-anchor="middle" x="57" y="-90.3" font-family="Times,serif" font-size="14.00">s5</text>
</g>
<!-- N2&#45;&gt;N3 -->
<g id="edge3" class="edge">
<title>N2&#45;&gt;N3</title>
<path fill="none" stroke="black" d="M55.46,-151.84C55.67,-144.16 55.92,-134.88 56.16,-126.05"/>
<polygon fill="black" stroke="black" points="59.66,-126.12 56.43,-116.03 52.66,-125.93 59.66,-126.12"/>
</g>
<!-- N3&#45;&gt;N0 -->
<g id="edge4" class="edge">
<title>N3&#45;&gt;N0</title>
<path fill="none" stroke="black" d="M48.48,-71.99C45.16,-63.8 41.31,-54.3 37.8,-45.64"/>
<polygon fill="black" stroke="black" points="41.02,-44.27 34.02,-36.31 34.53,-46.9 41.02,-44.27"/>
</g>
</g>
</svg>
