<?xml version="1.0" encoding="UTF-8" standalone="no"?>
<!DOCTYPE svg PUBLIC "-//W3C//DTD SVG 1.1//EN"
 "http://www.w3.org/Graphics/SVG/1.1/DTD/svg11.dtd">
<!-- Generated by graphviz version 2.43.0 (0)
 -->
<!-- Title: G Pages: 1 -->
<svg width="358pt" height="542pt"
 viewBox="0.00 0.00 358.00 542.23" xmlns="http://www.w3.org/2000/svg" xmlns:xlink="http://www.w3.org/1999/xlink">
<g id="graph0" class="graph" transform="scale(1 1) rotate(0) translate(4 538.23)">
<title>G</title>
<polygon fill="white" stroke="transparent" points="-4,4 -4,-538.23 354,-538.23 354,4 -4,4"/>
<!-- N0 -->
<g id="node1" class="node">
<title>N0</title>
<polygon fill="none" stroke="red" points="62,-44 8,-44 8,-8 62,-8 62,-44"/>
<text text-anchor="middle" x="35" y="-22.3" font-family="Times,serif" font-size="14.00">s0</text>
</g>
<!-- N1 -->
<g id="node2" class="node">
<title>N1</title>
<polygon fill="none" stroke="red" points="322,-530.73 268,-530.73 268,-494.73 322,-494.73 322,-530.73"/>
<text text-anchor="middle" x="295" y="-509.03" font-family="Times,serif" font-size="14.00">s1</text>
</g>
<!-- N2 -->
<g id="node3" class="node">
<title>N2</title>
<ellipse fill="none" stroke="blue" cx="153" cy="-185.45" rx="21.5" ry="21.5"/>
<text text-anchor="middle" x="153" y="-181.75" font-family="Times,serif" font-size="14.00">s2</text>
</g>
<!-- N15 -->
<g id="node4" class="node">
<title>N15</title>
<polygon fill="none" stroke="blue" points="218,-124 164,-124 164,-88 218,-88 218,-124"/>
<text text-anchor="middle" x="191" y="-102.3" font-family="Times,serif" font-size="14.00">s18</text>
</g>
<!-- N2&#45;&gt;N15 -->
<g id="edge1" class="edge">
<title>N2&#45;&gt;N15</title>
<path fill="none" stroke="blue" d="M162.2,-165.7C166.94,-156.03 172.81,-144.08 178,-133.49"/>
<polygon fill="blue" stroke="blue" points="181.27,-134.77 182.54,-124.25 174.99,-131.68 181.27,-134.77"/>
</g>
<!-- N10 -->
<g id="node5" class="node">
<title>N10</title>
<polygon fill="none" stroke="blue" points="258,-48 196,-48 196,-4 258,-4 258,-48"/>
<polygon fill="none" stroke="blue" points="262,-52 192,-52 192,0 262,0 262,-52"/>
<text text-anchor="middle" x="227" y="-22.3" font-family="Times,serif" font-size="14.00">s12</text>
</g>
<!-- N15&#45;&gt;N10 -->
<g id="edge2" class="edge">
<title>N15&#45;&gt;N10</title>
<path fill="none" stroke="black" d="M198.99,-87.69C203.11,-78.75 208.26,-67.59 213.02,-57.29"/>
<polygon fill="black" stroke="black" points="216.22,-58.7 217.24,-48.15 209.87,-55.76 216.22,-58.7"/>
</g>
<!-- N3 -->
<g id="node6" class="node">
<title>N3</title>
<polygon fill="none" stroke="blue" points="309,-282.34 255,-282.34 255,-246.34 309,-246.34 309,-282.34"/>
<text text-anchor="middle" x="282" y="-260.64" font-family="Times,serif" font-size="14.00">s3</text>
</g>
<!-- N14 -->
<g id="node7" class="node">
<title>N14</title>
<polygon fill="none" stroke="blue" points="322,-203.45 268,-203.45 268,-167.45 322,-167.45 322,-203.45"/>
<text text-anchor="middle" x="295" y="-181.75" font-family="Times,serif" font-size="14.00">s16</text>
</g>
<!-- N3&#45;&gt;N14 -->
<g id="edge3" class="edge">
<title>N3&#45;&gt;N14</title>
<path fill="none" stroke="black" d="M284.89,-246.28C286.52,-236.62 288.6,-224.33 290.44,-213.4"/>
<polygon fill="black" stroke="black" points="293.9,-213.91 292.12,-203.47 287,-212.75 293.9,-213.91"/>
</g>
<!-- N4 -->
<g id="node8" class="node">
<title>N4</title>
<polygon fill="none" stroke="blue" points="290,-124 236,-124 236,-88 290,-88 290,-124"/>
<text text-anchor="middle" x="263" y="-102.3" font-family="Times,serif" font-size="14.00">s5</text>
</g>
<!-- N14&#45;&gt;N4 -->
<g id="edge4" class="edge">
<title>N14&#45;&gt;N4</title>
<path fill="none" stroke="black" d="M287.9,-167.26C283.8,-157.33 278.55,-144.64 273.93,-133.46"/>
<polygon fill="black" stroke="black" points="277.13,-132.05 270.08,-124.14 270.66,-134.72 277.13,-132.05"/>
</g>
<!-- N4&#45;&gt;N10 -->
<g id="edge5" class="edge">
<title>N4&#45;&gt;N10</title>
<path fill="none" stroke="black" d="M255.01,-87.69C250.89,-78.75 245.74,-67.59 240.98,-57.29"/>
<polygon fill="black" stroke="black" points="244.13,-55.76 236.76,-48.15 237.78,-58.7 244.13,-55.76"/>
</g>
<!-- N5 -->
<g id="node9" class="node">
<title>N5</title>
<ellipse fill="none" stroke="blue" cx="255" cy="-433.84" rx="21.5" ry="21.5"/>
<text text-anchor="middle" x="255" y="-430.14" font-family="Times,serif" font-size="14.00">s6</text>
</g>
<!-- N5&#45;&gt;N10 -->
<g id="edge6" class="edge">
<title>N5&#45;&gt;N10</title>
<path fill="none" stroke="blue" d="M270.26,-418.27C297.12,-391 350,-329.2 350,-265.34 350,-265.34 350,-265.34 350,-184.45 350,-129.21 302.41,-81.78 266.44,-53.81"/>
<polygon fill="blue" stroke="blue" points="268.13,-50.7 258.04,-47.46 263.91,-56.28 268.13,-50.7"/>
</g>
<!-- N13 -->
<g id="node10" class="node">
<title>N13</title>
<ellipse fill="none" stroke="blue" cx="202" cy="-349.09" rx="27.5" ry="27.5"/>
<text text-anchor="middle" x="202" y="-345.39" font-family="Times,serif" font-size="14.00">s15</text>
</g>
<!-- N5&#45;&gt;N13 -->
<g id="edge7" class="edge">
<title>N5&#45;&gt;N13</title>
<path fill="none" stroke="black" d="M243.76,-415.29C237.42,-405.38 229.3,-392.71 221.92,-381.18"/>
<polygon fill="black" stroke="black" points="224.79,-379.18 216.45,-372.65 218.9,-382.96 224.79,-379.18"/>
</g>
<!-- N7 -->
<g id="node11" class="node">
<title>N7</title>
<ellipse fill="none" stroke="blue" cx="202" cy="-264.34" rx="21.5" ry="21.5"/>
<text text-anchor="middle" x="202" y="-260.64" font-family="Times,serif" font-size="14.00">s8</text>
</g>
<!-- N5&#45;&gt;N7 -->
<g id="edge8" class="edge">
<title>N5&#45;&gt;N7</title>
<path fill="none" stroke="black" d="M254.38,-412.13C253.12,-389.33 249.33,-351.91 238,-321.79 233.8,-310.63 227.19,-299.35 220.77,-289.84"/>
<polygon fill="black" stroke="black" points="223.62,-287.81 215,-281.65 217.9,-291.84 223.62,-287.81"/>
</g>
<!-- N13&#45;&gt;N3 -->
<g id="edge9" class="edge">
<title>N13&#45;&gt;N3</title>
<path fill="none" stroke="black" d="M220.55,-328.9C231.79,-317.27 246.24,-302.33 258.3,-289.86"/>
<polygon fill="black" stroke="black" points="261.02,-292.08 265.45,-282.46 255.98,-287.22 261.02,-292.08"/>
</g>
<!-- N9 -->
<g id="node12" class="node">
<title>N9</title>
<polygon fill="none" stroke="blue" points="111,-282.34 57,-282.34 57,-246.34 111,-246.34 111,-282.34"/>
<text text-anchor="middle" x="84" y="-260.64" font-family="Times,serif" font-size="14.00">s11</text>
</g>
<!-- N13&#45;&gt;N9 -->
<g id="edge10" class="edge">
<title>N13&#45;&gt;N9</title>
<path fill="none" stroke="blue" d="M180.08,-332.72C162.35,-320.29 137.11,-302.59 116.95,-288.45"/>
<polygon fill="blue" stroke="blue" points="118.86,-285.51 108.66,-282.63 114.83,-291.24 118.86,-285.51"/>
</g>
<!-- N7&#45;&gt;N2 -->
<g id="edge11" class="edge">
<title>N7&#45;&gt;N2</title>
<path fill="none" stroke="black" d="M190.88,-245.9C184.55,-235.97 176.51,-223.34 169.46,-212.28"/>
<polygon fill="black" stroke="black" points="172.4,-210.38 164.07,-203.83 166.5,-214.14 172.4,-210.38"/>
</g>
<!-- N7&#45;&gt;N15 -->
<g id="edge12" class="edge">
<title>N7&#45;&gt;N15</title>
<path fill="none" stroke="blue" d="M200.56,-242.91C198.6,-215.07 195.09,-165.15 192.91,-134.18"/>
<polygon fill="blue" stroke="blue" points="196.39,-133.82 192.2,-124.09 189.41,-134.31 196.39,-133.82"/>
</g>
<!-- N7&#45;&gt;N4 -->
<g id="edge13" class="edge">
<title>N7&#45;&gt;N4</title>
<path fill="none" stroke="blue" d="M209.48,-244.17C220.27,-216.51 240.26,-165.27 252.52,-133.85"/>
<polygon fill="blue" stroke="blue" points="255.83,-134.99 256.21,-124.4 249.31,-132.44 255.83,-134.99"/>
</g>
<!-- N12 -->
<g id="node13" class="node">
<title>N12</title>
<polygon fill="none" stroke="blue" points="114,-203.45 60,-203.45 60,-167.45 114,-167.45 114,-203.45"/>
<text text-anchor="middle" x="87" y="-181.75" font-family="Times,serif" font-size="14.00">s14</text>
</g>
<!-- N7&#45;&gt;N12 -->
<g id="edge14" class="edge">
<title>N7&#45;&gt;N12</title>
<path fill="none" stroke="black" d="M184.53,-251.67C167.82,-240.49 142.15,-223.32 121.34,-209.41"/>
<polygon fill="black" stroke="black" points="123.01,-206.32 112.75,-203.67 119.12,-212.14 123.01,-206.32"/>
</g>
<!-- N11 -->
<g id="node14" class="node">
<title>N11</title>
<polygon fill="none" stroke="blue" points="66,-128 4,-128 4,-84 66,-84 66,-128"/>
<polygon fill="none" stroke="blue" points="70,-132 0,-132 0,-80 70,-80 70,-132"/>
<text text-anchor="middle" x="35" y="-102.3" font-family="Times,serif" font-size="14.00">s13</text>
</g>
<!-- N9&#45;&gt;N11 -->
<g id="edge15" class="edge">
<title>N9&#45;&gt;N11</title>
<path fill="none" stroke="black" d="M71.5,-245.88C64.41,-235.13 55.98,-220.79 51,-206.9 43.07,-184.75 39.06,-158.43 37.03,-138.37"/>
<polygon fill="black" stroke="black" points="40.5,-137.87 36.12,-128.22 33.53,-138.49 40.5,-137.87"/>
</g>
<!-- N12&#45;&gt;N11 -->
<g id="edge16" class="edge">
<title>N12&#45;&gt;N11</title>
<path fill="none" stroke="black" d="M75.46,-167.26C69.38,-158.21 61.76,-146.85 54.77,-136.45"/>
<polygon fill="black" stroke="black" points="57.58,-134.35 49.1,-128 51.77,-138.25 57.58,-134.35"/>
</g>
<!-- N8 -->
<g id="node15" class="node">
<title>N8</title>
<polygon fill="none" stroke="blue" points="143,-124 89,-124 89,-88 143,-88 143,-124"/>
<text text-anchor="middle" x="116" y="-102.3" font-family="Times,serif" font-size="14.00">s9</text>
</g>
<!-- N12&#45;&gt;N8 -->
<g id="edge17" class="edge">
<title>N12&#45;&gt;N8</title>
<path fill="none" stroke="black" d="M93.44,-167.26C97.11,-157.43 101.81,-144.89 105.96,-133.8"/>
<polygon fill="black" stroke="black" points="109.35,-134.73 109.58,-124.14 102.79,-132.28 109.35,-134.73"/>
</g>
<!-- N11&#45;&gt;N0 -->
<g id="edge18" class="edge">
<title>N11&#45;&gt;N0</title>
<path fill="none" stroke="black" d="M35,-83.69C35,-74.64 35,-63.98 35,-54.37"/>
<polygon fill="black" stroke="black" points="38.5,-54.09 35,-44.09 31.5,-54.09 38.5,-54.09"/>
</g>
<!-- N8&#45;&gt;N10 -->
<g id="edge19" class="edge">
<title>N8&#45;&gt;N10</title>
<path fill="none" stroke="black" d="M140.36,-87.88C154.36,-78.05 172.27,-65.46 188.17,-54.29"/>
<polygon fill="black" stroke="black" points="190.58,-56.87 196.75,-48.25 186.56,-51.14 190.58,-56.87"/>
</g>
<!-- N6 -->
<g id="node16" class="node">
<title>N6</title>
<ellipse fill="none" stroke="blue" cx="229" cy="-512.73" rx="21.5" ry="21.5"/>
<text text-anchor="middle" x="229" y="-509.03" font-family="Times,serif" font-size="14.00">s7</text>
</g>
<!-- N6&#45;&gt;N5 -->
<g id="edge20" class="edge">
<title>N6&#45;&gt;N5</title>
<path fill="none" stroke="blue" d="M235.7,-491.93C238.57,-483.43 241.98,-473.33 245.14,-464.01"/>
<polygon fill="blue" stroke="blue" points="248.53,-464.9 248.42,-454.31 241.9,-462.66 248.53,-464.9"/>
</g>
<!-- N6&#45;&gt;N13 -->
<g id="edge21" class="edge">
<title>N6&#45;&gt;N13</title>
<path fill="none" stroke="black" d="M225.58,-491.26C221.18,-464.89 213.44,-418.61 208.04,-386.25"/>
<polygon fill="black" stroke="black" points="211.47,-385.56 206.37,-376.27 204.57,-386.71 211.47,-385.56"/>
</g>
</g>
</svg>
