<?xml version="1.0" encoding="UTF-8" standalone="no"?>
<!DOCTYPE svg PUBLIC "-//W3C//DTD SVG 1.1//EN"
 "http://www.w3.org/Graphics/SVG/1.1/DTD/svg11.dtd">
<!-- Generated by graphviz version 2.43.0 (0)
 -->
<!-- Title: G Pages: 1 -->
<svg width="362pt" height="168pt"
 viewBox="0.00 0.00 362.00 168.00" xmlns="http://www.w3.org/2000/svg" xmlns:xlink="http://www.w3.org/1999/xlink">
<g id="graph0" class="graph" transform="scale(1 1) rotate(0) translate(4 164)">
<title>G</title>
<polygon fill="white" stroke="transparent" points="-4,4 -4,-164 358,-164 358,4 -4,4"/>
<!-- N0 -->
<g id="node1" class="node">
<title>N0</title>
<ellipse fill="red" stroke="red" cx="72" cy="-80" rx="72" ry="72"/>
<text text-anchor="middle" x="72" y="-76.3" font-family="Times,serif" font-size="14.00">s0</text>
</g>
<!-- N0&#45;&gt;N0 -->
<g id="edge1" class="edge">
<title>N0&#45;&gt;N0</title>
<path fill="none" stroke="black" d="M142.93,-92.43C154.25,-90.61 162,-86.47 162,-80 162,-75.65 158.5,-72.36 152.77,-70.11"/>
<polygon fill="black" stroke="black" points="153.49,-66.68 142.93,-67.57 151.74,-73.46 153.49,-66.68"/>
</g>
<!-- N0&#45;&gt;N0 -->
<g id="edge2" class="edge">
<title>N0&#45;&gt;N0</title>
<path fill="none" stroke="black" d="M138.97,-107C161.72,-107.14 180,-98.14 180,-80 180,-64.69 166.98,-55.9 149.25,-53.6"/>
<polygon fill="black" stroke="black" points="149.16,-50.09 138.97,-53 148.75,-57.08 149.16,-50.09"/>
</g>
<!-- N1 -->
<g id="node2" class="node">
<title>N1</title>
<polygon fill="blue" stroke="blue" points="350,-156 198,-156 198,-4 350,-4 350,-156"/>
<polygon fill="none" stroke="blue" points="354,-160 194,-160 194,0 354,0 354,-160"/>
<text text-anchor="middle" x="274" y="-76.3" font-family="Times,serif" font-size="14.00">s7</text>
</g>
</g>
</svg>
