<?xml version="1.0" encoding="UTF-8" standalone="no"?>
<!DOCTYPE svg PUBLIC "-//W3C//DTD SVG 1.1//EN"
 "http://www.w3.org/Graphics/SVG/1.1/DTD/svg11.dtd">
<!-- Generated by graphviz version 2.43.0 (0)
 -->
<!-- Title: G Pages: 1 -->
<svg width="810pt" height="1247pt"
 viewBox="0.00 0.00 810.00 1247.10" xmlns="http://www.w3.org/2000/svg" xmlns:xlink="http://www.w3.org/1999/xlink">
<g id="graph0" class="graph" transform="scale(1 1) rotate(0) translate(4 1243.1)">
<title>G</title>
<polygon fill="white" stroke="transparent" points="-4,4 -4,-1243.1 806,-1243.1 806,4 -4,4"/>
<!-- N0 -->
<g id="node1" class="node">
<title>N0</title>
<polygon fill="none" stroke="red" points="760,-1235.1 698,-1235.1 698,-1191.1 760,-1191.1 760,-1235.1"/>
<polygon fill="none" stroke="red" points="764,-1239.1 694,-1239.1 694,-1187.1 764,-1187.1 764,-1239.1"/>
<text text-anchor="middle" x="729" y="-1209.4" font-family="Times,serif" font-size="14.00">s0</text>
</g>
<!-- N17 -->
<g id="node2" class="node">
<title>N17</title>
<ellipse fill="none" stroke="blue" cx="729" cy="-1127.8" rx="27.5" ry="27.5"/>
<text text-anchor="middle" x="729" y="-1124.1" font-family="Times,serif" font-size="14.00">s17</text>
</g>
<!-- N0&#45;&gt;N17 -->
<g id="edge1" class="edge">
<title>N0&#45;&gt;N17</title>
<path fill="none" stroke="black" d="M723.05,-1191C722.38,-1183.1 722.13,-1173.8 722.3,-1164.8"/>
<polygon fill="black" stroke="black" points="725.81,-1164.63 722.71,-1154.5 718.81,-1164.35 725.81,-1164.63"/>
</g>
<!-- N7 -->
<g id="node3" class="node">
<title>N7</title>
<ellipse fill="none" stroke="red" cx="375" cy="-498.09" rx="21.5" ry="21.5"/>
<text text-anchor="middle" x="375" y="-494.39" font-family="Times,serif" font-size="14.00">s7</text>
</g>
<!-- N0&#45;&gt;N7 -->
<g id="edge2" class="edge">
<title>N0&#45;&gt;N7</title>
<path fill="none" stroke="black" d="M697.97,-1194.4C615.3,-1144.8 396,-995.4 396,-805.98 396,-805.98 396,-805.98 396,-653.09 396,-609.88 387.78,-560.48 381.63,-529.53"/>
<polygon fill="black" stroke="black" points="384.99,-528.49 379.56,-519.39 378.13,-529.89 384.99,-528.49"/>
</g>
<!-- N13 -->
<g id="node4" class="node">
<title>N13</title>
<polygon fill="none" stroke="red" points="623,-36 569,-36 569,0 623,0 623,-36"/>
<text text-anchor="middle" x="596" y="-14.3" font-family="Times,serif" font-size="14.00">s13</text>
</g>
<!-- N0&#45;&gt;N13 -->
<g id="edge3" class="edge">
<title>N0&#45;&gt;N13</title>
<path fill="none" stroke="black" d="M736.47,-1191.1C742.7,-1180.7 750.68,-1167.7 756,-1155.1 776.76,-1105.8 784,-1091.6 784,-1038.2 784,-1038.2 784,-1038.2 784,-170.3 784,-93.16 687.83,-49.95 632.94,-30.92"/>
<polygon fill="black" stroke="black" points="633.8,-27.52 623.21,-27.65 631.57,-34.15 633.8,-27.52"/>
</g>
<!-- N17&#45;&gt;N0 -->
<g id="edge4" class="edge">
<title>N17&#45;&gt;N0</title>
<path fill="none" stroke="black" d="M735.29,-1154.5C735.8,-1162.9 735.88,-1172.2 735.56,-1180.9"/>
<polygon fill="black" stroke="black" points="732.06,-1180.81 734.95,-1191 739.05,-1181.23 732.06,-1180.81"/>
</g>
<!-- N19 -->
<g id="node5" class="node">
<title>N19</title>
<ellipse fill="none" stroke="blue" cx="312" cy="-1037.2" rx="27.5" ry="27.5"/>
<text text-anchor="middle" x="312" y="-1033.5" font-family="Times,serif" font-size="14.00">s19</text>
</g>
<!-- N17&#45;&gt;N19 -->
<g id="edge5" class="edge">
<title>N17&#45;&gt;N19</title>
<path fill="none" stroke="blue" d="M702.28,-1121.1C630.05,-1105.7 430.82,-1063.4 348.41,-1045.9"/>
<polygon fill="blue" stroke="blue" points="349.01,-1042.45 338.5,-1043.8 347.56,-1049.3 349.01,-1042.45"/>
</g>
<!-- N10 -->
<g id="node6" class="node">
<title>N10</title>
<ellipse fill="none" stroke="blue" cx="614" cy="-171.3" rx="27.5" ry="27.5"/>
<text text-anchor="middle" x="614" y="-167.6" font-family="Times,serif" font-size="14.00">s10</text>
</g>
<!-- N17&#45;&gt;N10 -->
<g id="edge6" class="edge">
<title>N17&#45;&gt;N10</title>
<path fill="none" stroke="blue" d="M724.76,-1100.7C724.33,-1066.7 728,-1005.7 728,-953.43 728,-953.43 728,-953.43 728,-332.89 728,-274.53 676.17,-224.27 642.26,-196.18"/>
<polygon fill="blue" stroke="blue" points="644.46,-193.45 634.49,-189.86 640.04,-198.89 644.46,-193.45"/>
</g>
<!-- N6 -->
<g id="node7" class="node">
<title>N6</title>
<ellipse fill="none" stroke="red" cx="273" cy="-418.64" rx="21.5" ry="21.5"/>
<text text-anchor="middle" x="273" y="-414.94" font-family="Times,serif" font-size="14.00">s6</text>
</g>
<!-- N7&#45;&gt;N6 -->
<g id="edge7" class="edge">
<title>N7&#45;&gt;N6</title>
<path fill="none" stroke="black" d="M358.16,-484.3C341.77,-471.85 316.67,-452.8 297.96,-438.59"/>
<polygon fill="black" stroke="black" points="299.95,-435.71 289.87,-432.45 295.72,-441.28 299.95,-435.71"/>
</g>
<!-- N15 -->
<g id="node8" class="node">
<title>N15</title>
<ellipse fill="none" stroke="red" cx="369" cy="-333.89" rx="27.5" ry="27.5"/>
<text text-anchor="middle" x="369" y="-330.19" font-family="Times,serif" font-size="14.00">s15</text>
</g>
<!-- N7&#45;&gt;N15 -->
<g id="edge8" class="edge">
<title>N7&#45;&gt;N15</title>
<path fill="none" stroke="black" d="M374.24,-476.54C373.26,-450.16 371.55,-403.91 370.35,-371.46"/>
<polygon fill="black" stroke="black" points="373.85,-371.31 369.98,-361.45 366.85,-371.57 373.85,-371.31"/>
</g>
<!-- N13&#45;&gt;N0 -->
<g id="edge9" class="edge">
<title>N13&#45;&gt;N0</title>
<path fill="none" stroke="red" d="M623.18,-24.73C679.34,-39.35 802,-83.19 802,-170.3 802,-1038.2 802,-1038.2 802,-1038.2 802,-1091.6 794.76,-1105.8 774,-1155.1 770.01,-1164.5 764.52,-1174.2 758.67,-1182.8"/>
<polygon fill="red" stroke="red" points="755.71,-1180.93 752.75,-1191.1 761.41,-1184.99 755.71,-1180.93"/>
</g>
<!-- N19&#45;&gt;N10 -->
<g id="edge10" class="edge">
<title>N19&#45;&gt;N10</title>
<path fill="none" stroke="blue" d="M338.77,-1031.6C397.75,-1020 539.37,-983.93 612,-894.98 659.57,-836.72 652,-805.75 652,-730.53 652,-730.53 652,-730.53 652,-332.89 652,-288.43 638.03,-238.85 627.03,-206.7"/>
<polygon fill="blue" stroke="blue" points="630.21,-205.18 623.59,-196.91 623.6,-207.5 630.21,-205.18"/>
</g>
<!-- N8 -->
<g id="node9" class="node">
<title>N8</title>
<ellipse fill="none" stroke="red" cx="286" cy="-952.43" rx="21.5" ry="21.5"/>
<text text-anchor="middle" x="286" y="-948.73" font-family="Times,serif" font-size="14.00">s8</text>
</g>
<!-- N19&#45;&gt;N8 -->
<g id="edge11" class="edge">
<title>N19&#45;&gt;N8</title>
<path fill="none" stroke="black" d="M304.06,-1010.9C301.25,-1002 298.07,-991.84 295.17,-982.61"/>
<polygon fill="black" stroke="black" points="298.5,-981.53 292.16,-973.04 291.82,-983.63 298.5,-981.53"/>
</g>
<!-- N9 -->
<g id="node10" class="node">
<title>N9</title>
<polygon fill="none" stroke="red" points="368,-822.98 314,-822.98 314,-786.98 368,-786.98 368,-822.98"/>
<text text-anchor="middle" x="341" y="-801.28" font-family="Times,serif" font-size="14.00">s9</text>
</g>
<!-- N19&#45;&gt;N9 -->
<g id="edge12" class="edge">
<title>N19&#45;&gt;N9</title>
<path fill="none" stroke="black" d="M315.33,-1009.8C320.88,-965.69 331.98,-877.59 337.59,-833.07"/>
<polygon fill="black" stroke="black" points="341.08,-833.35 338.86,-822.99 334.14,-832.47 341.08,-833.35"/>
</g>
<!-- N10&#45;&gt;N17 -->
<g id="edge13" class="edge">
<title>N10&#45;&gt;N17</title>
<path fill="none" stroke="blue" d="M638.12,-184.56C676.45,-208.55 746,-265.29 746,-332.89 746,-953.43 746,-953.43 746,-953.43 746,-1001.2 742.93,-1056.3 738.45,-1091.3"/>
<polygon fill="blue" stroke="blue" points="734.94,-1091.11 737.02,-1101.5 741.87,-1092.08 734.94,-1091.11"/>
</g>
<!-- N6&#45;&gt;N15 -->
<g id="edge14" class="edge">
<title>N6&#45;&gt;N15</title>
<path fill="none" stroke="black" d="M288.85,-403.97C302.95,-391.82 323.89,-373.77 340.83,-359.17"/>
<polygon fill="black" stroke="black" points="343.49,-361.5 348.78,-352.32 338.92,-356.2 343.49,-361.5"/>
</g>
<!-- N6&#45;&gt;N8 -->
<g id="edge15" class="edge">
<title>N6&#45;&gt;N8</title>
<path fill="none" stroke="black" d="M273.5,-440.1C275.49,-521.59 282.87,-823.32 285.25,-920.83"/>
<polygon fill="black" stroke="black" points="281.75,-921 285.5,-930.91 288.75,-920.83 281.75,-921"/>
</g>
<!-- N12 -->
<g id="node11" class="node">
<title>N12</title>
<polygon fill="none" stroke="red" points="361,-600.09 299,-600.09 299,-556.09 361,-556.09 361,-600.09"/>
<polygon fill="none" stroke="red" points="365,-604.09 295,-604.09 295,-552.09 365,-552.09 365,-604.09"/>
<text text-anchor="middle" x="330" y="-574.39" font-family="Times,serif" font-size="14.00">s12</text>
</g>
<!-- N6&#45;&gt;N12 -->
<g id="edge16" class="edge">
<title>N6&#45;&gt;N12</title>
<path fill="none" stroke="black" d="M280.03,-439.06C289.72,-465.83 307.29,-514.37 318.81,-546.17"/>
<polygon fill="black" stroke="black" points="315.62,-547.64 322.31,-555.85 322.2,-545.26 315.62,-547.64"/>
</g>
<!-- N3 -->
<g id="node12" class="node">
<title>N3</title>
<polygon fill="none" stroke="red" points="287,-270.6 233,-270.6 233,-234.6 287,-234.6 287,-270.6"/>
<text text-anchor="middle" x="260" y="-248.9" font-family="Times,serif" font-size="14.00">s3</text>
</g>
<!-- N15&#45;&gt;N3 -->
<g id="edge17" class="edge">
<title>N15&#45;&gt;N3</title>
<path fill="none" stroke="black" d="M347.2,-317.04C331.4,-305.54 309.78,-289.81 292.01,-276.89"/>
<polygon fill="black" stroke="black" points="293.79,-273.86 283.65,-270.8 289.67,-279.52 293.79,-273.86"/>
</g>
<!-- N11 -->
<g id="node13" class="node">
<title>N11</title>
<polygon fill="none" stroke="red" points="472,-270.6 418,-270.6 418,-234.6 472,-234.6 472,-270.6"/>
<text text-anchor="middle" x="445" y="-248.9" font-family="Times,serif" font-size="14.00">s11</text>
</g>
<!-- N15&#45;&gt;N11 -->
<g id="edge18" class="edge">
<title>N15&#45;&gt;N11</title>
<path fill="none" stroke="black" d="M387.4,-313.7C397.61,-303.05 410.41,-289.68 421.36,-278.26"/>
<polygon fill="black" stroke="black" points="424.19,-280.37 428.58,-270.73 419.13,-275.53 424.19,-280.37"/>
</g>
<!-- N2 -->
<g id="node14" class="node">
<title>N2</title>
<ellipse fill="none" stroke="red" cx="237" cy="-729.53" rx="21.5" ry="21.5"/>
<text text-anchor="middle" x="237" y="-725.83" font-family="Times,serif" font-size="14.00">s2</text>
</g>
<!-- N8&#45;&gt;N2 -->
<g id="edge19" class="edge">
<title>N8&#45;&gt;N2</title>
<path fill="none" stroke="black" d="M280.85,-931.35C278.13,-920.59 274.79,-907.08 272,-894.98 261.24,-848.27 249.88,-793.81 243.12,-760.77"/>
<polygon fill="black" stroke="black" points="246.52,-759.94 241.09,-750.84 239.66,-761.34 246.52,-759.94"/>
</g>
<!-- N18 -->
<g id="node15" class="node">
<title>N18</title>
<polygon fill="none" stroke="red" points="243,-672.09 189,-672.09 189,-636.09 243,-636.09 243,-672.09"/>
<text text-anchor="middle" x="216" y="-650.39" font-family="Times,serif" font-size="14.00">s18</text>
</g>
<!-- N8&#45;&gt;N18 -->
<g id="edge20" class="edge">
<title>N8&#45;&gt;N18</title>
<path fill="none" stroke="black" d="M276.06,-933.36C257.84,-899.07 219.81,-821.65 207,-750.98 202.82,-727.94 205.91,-701.4 209.56,-682.1"/>
<polygon fill="black" stroke="black" points="213.01,-682.68 211.61,-672.18 206.16,-681.26 213.01,-682.68"/>
</g>
<!-- N5 -->
<g id="node16" class="node">
<title>N5</title>
<polygon fill="none" stroke="red" points="252,-108 198,-108 198,-72 252,-72 252,-108"/>
<text text-anchor="middle" x="225" y="-86.3" font-family="Times,serif" font-size="14.00">s5</text>
</g>
<!-- N8&#45;&gt;N5 -->
<g id="edge21" class="edge">
<title>N8&#45;&gt;N5</title>
<path fill="none" stroke="black" d="M266.8,-942.22C229.31,-922.75 150,-873.57 150,-805.98 150,-805.98 150,-805.98 150,-728.53 150,-626.37 136,-601.25 136,-499.09 136,-499.09 136,-499.09 136,-251.6 136,-197.98 174.41,-145.5 200.77,-115.8"/>
<polygon fill="black" stroke="black" points="203.69,-117.8 207.84,-108.05 198.51,-113.08 203.69,-117.8"/>
</g>
<!-- N14 -->
<g id="node17" class="node">
<title>N14</title>
<polygon fill="none" stroke="red" points="603,-894.98 549,-894.98 549,-858.98 603,-858.98 603,-894.98"/>
<text text-anchor="middle" x="576" y="-873.28" font-family="Times,serif" font-size="14.00">s14</text>
</g>
<!-- N8&#45;&gt;N14 -->
<g id="edge22" class="edge">
<title>N8&#45;&gt;N14</title>
<path fill="none" stroke="black" d="M306.86,-946.15C355.57,-933.81 477.38,-902.96 539.02,-887.35"/>
<polygon fill="black" stroke="black" points="539.9,-890.74 548.73,-884.89 538.18,-883.95 539.9,-890.74"/>
</g>
<!-- N9&#45;&gt;N10 -->
<g id="edge23" class="edge">
<title>N9&#45;&gt;N10</title>
<path fill="none" stroke="black" d="M368.39,-797.13C422.52,-781.75 538,-739.11 538,-655.09 538,-655.09 538,-655.09 538,-332.89 538,-282.99 568.36,-232.02 590.7,-201.26"/>
<polygon fill="black" stroke="black" points="593.58,-203.25 596.75,-193.14 587.97,-199.07 593.58,-203.25"/>
</g>
<!-- N9&#45;&gt;N12 -->
<g id="edge24" class="edge">
<title>N9&#45;&gt;N12</title>
<path fill="none" stroke="red" d="M340.16,-786.71C338.31,-748.94 333.89,-658.54 331.53,-610.44"/>
<polygon fill="red" stroke="red" points="335.02,-610.11 331.04,-600.29 328.03,-610.45 335.02,-610.11"/>
</g>
<!-- N9&#45;&gt;N2 -->
<g id="edge25" class="edge">
<title>N9&#45;&gt;N2</title>
<path fill="none" stroke="black" d="M316.88,-786.95C300.53,-775.4 278.95,-760.16 262.35,-748.44"/>
<polygon fill="black" stroke="black" points="264.36,-745.57 254.17,-742.66 260.32,-751.29 264.36,-745.57"/>
</g>
<!-- N12&#45;&gt;N7 -->
<g id="edge26" class="edge">
<title>N12&#45;&gt;N7</title>
<path fill="none" stroke="black" d="M342.3,-555.77C347.62,-546.54 353.91,-535.64 359.55,-525.87"/>
<polygon fill="black" stroke="black" points="362.74,-527.35 364.7,-516.94 356.67,-523.85 362.74,-527.35"/>
</g>
<!-- N12&#45;&gt;N10 -->
<g id="edge27" class="edge">
<title>N12&#45;&gt;N10</title>
<path fill="none" stroke="black" d="M361.18,-564.99C410.26,-543.67 500,-494.46 500,-419.64 500,-419.64 500,-419.64 500,-332.89 500,-287.92 498.52,-271.65 524,-234.6 537.97,-214.28 560.9,-198.55 580.12,-187.98"/>
<polygon fill="black" stroke="black" points="581.97,-190.96 589.2,-183.21 578.72,-184.76 581.97,-190.96"/>
</g>
<!-- N12&#45;&gt;N11 -->
<g id="edge28" class="edge">
<title>N12&#45;&gt;N11</title>
<path fill="none" stroke="black" d="M361,-560.69C376.53,-550.92 394.27,-537.1 405,-520.09 452.91,-444.15 451.47,-332.3 447.74,-281.06"/>
<polygon fill="black" stroke="black" points="451.2,-280.47 446.9,-270.79 444.23,-281.04 451.2,-280.47"/>
</g>
<!-- N1 -->
<g id="node18" class="node">
<title>N1</title>
<polygon fill="none" stroke="red" points="90,-520.09 28,-520.09 28,-476.09 90,-476.09 90,-520.09"/>
<polygon fill="none" stroke="red" points="94,-524.09 24,-524.09 24,-472.09 94,-472.09 94,-524.09"/>
<text text-anchor="middle" x="59" y="-494.39" font-family="Times,serif" font-size="14.00">s1</text>
</g>
<!-- N12&#45;&gt;N1 -->
<g id="edge29" class="edge">
<title>N12&#45;&gt;N1</title>
<path fill="none" stroke="black" d="M298.91,-568.14C249.83,-554.01 154.37,-526.54 99.83,-510.84"/>
<polygon fill="black" stroke="black" points="100.72,-507.45 90.14,-508.05 98.78,-514.18 100.72,-507.45"/>
</g>
<!-- N3&#45;&gt;N19 -->
<g id="edge30" class="edge">
<title>N3&#45;&gt;N19</title>
<path fill="none" stroke="black" d="M243.82,-270.72C218.91,-298.97 174,-358.15 174,-417.64 174,-499.09 174,-499.09 174,-499.09 174,-604.72 112,-622.9 112,-728.53 112,-877.98 112,-877.98 112,-877.98 112,-960.67 218.47,-1006.9 276.05,-1025.9"/>
<polygon fill="black" stroke="black" points="275.26,-1029.32 285.85,-1029 277.37,-1022.65 275.26,-1029.32"/>
</g>
<!-- N3&#45;&gt;N6 -->
<g id="edge31" class="edge">
<title>N3&#45;&gt;N6</title>
<path fill="none" stroke="black" d="M261.36,-270.8C263.54,-298.29 267.84,-352.51 270.56,-386.81"/>
<polygon fill="black" stroke="black" points="267.1,-387.5 271.38,-397.19 274.08,-386.95 267.1,-387.5"/>
</g>
<!-- N16 -->
<g id="node19" class="node">
<title>N16</title>
<polygon fill="none" stroke="red" points="280,-189.3 226,-189.3 226,-153.3 280,-153.3 280,-189.3"/>
<text text-anchor="middle" x="253" y="-167.6" font-family="Times,serif" font-size="14.00">s16</text>
</g>
<!-- N3&#45;&gt;N16 -->
<g id="edge32" class="edge">
<title>N3&#45;&gt;N16</title>
<path fill="none" stroke="red" d="M258.48,-234.39C257.58,-224.21 256.42,-211.08 255.4,-199.52"/>
<polygon fill="red" stroke="red" points="258.88,-199.13 254.52,-189.47 251.91,-199.74 258.88,-199.13"/>
</g>
<!-- N11&#45;&gt;N13 -->
<g id="edge33" class="edge">
<title>N11&#45;&gt;N13</title>
<path fill="none" stroke="red" d="M456.1,-234.49C482.34,-194.08 548.27,-92.52 579.33,-44.68"/>
<polygon fill="red" stroke="red" points="582.37,-46.42 584.88,-36.13 576.5,-42.61 582.37,-46.42"/>
</g>
<!-- N11&#45;&gt;N10 -->
<g id="edge34" class="edge">
<title>N11&#45;&gt;N10</title>
<path fill="none" stroke="black" d="M472.15,-238.85C501.58,-225.05 548.57,-203 580.33,-188.1"/>
<polygon fill="black" stroke="black" points="582.1,-191.14 589.66,-183.72 579.12,-184.8 582.1,-191.14"/>
</g>
<!-- N11&#45;&gt;N8 -->
<g id="edge35" class="edge">
<title>N11&#45;&gt;N8</title>
<path fill="none" stroke="black" d="M444.19,-270.72C441.65,-326.04 434,-504.96 434,-653.09 434,-805.98 434,-805.98 434,-805.98 434,-872.13 357.86,-918.21 314.81,-938.99"/>
<polygon fill="black" stroke="black" points="313.23,-935.86 305.65,-943.26 316.19,-942.21 313.23,-935.86"/>
</g>
<!-- N2&#45;&gt;N18 -->
<g id="edge39" class="edge">
<title>N2&#45;&gt;N18</title>
<path fill="none" stroke="black" d="M231.26,-708.46C228.92,-700.28 226.18,-690.7 223.68,-681.93"/>
<polygon fill="black" stroke="black" points="226.99,-680.79 220.88,-672.14 220.26,-682.72 226.99,-680.79"/>
</g>
<!-- N18&#45;&gt;N12 -->
<g id="edge40" class="edge">
<title>N18&#45;&gt;N12</title>
<path fill="none" stroke="red" d="M242.44,-635.92C256.65,-626.7 274.45,-615.14 290.29,-604.86"/>
<polygon fill="red" stroke="red" points="292.36,-607.69 298.85,-599.31 288.56,-601.81 292.36,-607.69"/>
</g>
<!-- N5&#45;&gt;N13 -->
<g id="edge41" class="edge">
<title>N5&#45;&gt;N13</title>
<path fill="none" stroke="black" d="M252.28,-83.85C317.89,-71.47 484.56,-40.03 559.05,-25.97"/>
<polygon fill="black" stroke="black" points="559.75,-29.4 568.93,-24.11 558.45,-22.52 559.75,-29.4"/>
</g>
<!-- N5&#45;&gt;N19 -->
<g id="edge42" class="edge">
<title>N5&#45;&gt;N19</title>
<path fill="none" stroke="black" d="M197.86,-96.8C138.02,-111.36 0,-155.37 0,-251.6 0,-805.98 0,-805.98 0,-805.98 0,-899.28 50.34,-919.28 126,-973.88 171.38,-1006.6 235.13,-1023 274.98,-1030.5"/>
<polygon fill="black" stroke="black" points="274.6,-1033.99 285.06,-1032.3 275.83,-1027.1 274.6,-1033.99"/>
</g>
<!-- N5&#45;&gt;N12 -->
<g id="edge43" class="edge">
<title>N5&#45;&gt;N12</title>
<path fill="none" stroke="red" d="M252.12,-100.78C271.03,-109.14 294.94,-123.17 307,-144 326.97,-178.47 329.64,-451.9 329.97,-545.66"/>
<polygon fill="red" stroke="red" points="326.47,-545.94 329.99,-555.93 333.47,-545.92 326.47,-545.94"/>
</g>
<!-- N5&#45;&gt;N18 -->
<g id="edge44" class="edge">
<title>N5&#45;&gt;N18</title>
<path fill="none" stroke="black" d="M221.83,-108.12C220.06,-118.47 218.02,-131.95 217,-144 206.79,-265.21 212,-296 212,-417.64 212,-499.09 212,-499.09 212,-499.09 212,-543.39 213.67,-594.84 214.86,-625.64"/>
<polygon fill="black" stroke="black" points="211.38,-626.15 215.27,-636 218.37,-625.87 211.38,-626.15"/>
</g>
<!-- N14&#45;&gt;N13 -->
<g id="edge45" class="edge">
<title>N14&#45;&gt;N13</title>
<path fill="none" stroke="red" d="M602.44,-858.79C636.12,-834.57 690,-787 690,-730.53 690,-730.53 690,-730.53 690,-170.3 690,-119.42 651.17,-71.44 623.43,-43.66"/>
<polygon fill="red" stroke="red" points="625.54,-40.83 615.93,-36.37 620.66,-45.85 625.54,-40.83"/>
</g>
<!-- N14&#45;&gt;N10 -->
<g id="edge46" class="edge">
<title>N14&#45;&gt;N10</title>
<path fill="none" stroke="black" d="M583.51,-858.9C594.58,-832.1 614,-778.3 614,-730.53 614,-730.53 614,-730.53 614,-332.89 614,-290.43 614,-241.66 614,-209.11"/>
<polygon fill="black" stroke="black" points="617.5,-208.73 614,-198.73 610.5,-208.73 617.5,-208.73"/>
</g>
<!-- N14&#45;&gt;N15 -->
<g id="edge47" class="edge">
<title>N14&#45;&gt;N15</title>
<path fill="none" stroke="black" d="M576,-858.96C576,-831.81 576,-777 576,-730.53 576,-730.53 576,-730.53 576,-497.09 576,-411.2 464.22,-363.96 404.95,-344.94"/>
<polygon fill="black" stroke="black" points="405.81,-341.54 395.22,-341.92 403.73,-348.23 405.81,-341.54"/>
</g>
<!-- N14&#45;&gt;N9 -->
<g id="edge48" class="edge">
<title>N14&#45;&gt;N9</title>
<path fill="none" stroke="red" d="M548.58,-867.82C506.4,-855.25 425.49,-831.15 378.1,-817.03"/>
<polygon fill="red" stroke="red" points="378.82,-813.59 368.24,-814.1 376.83,-820.3 378.82,-813.59"/>
</g>
<!-- N1&#45;&gt;N13 -->
<g id="edge36" class="edge">
<title>N1&#45;&gt;N13</title>
<path fill="none" stroke="black" d="M63.29,-475.94C69.17,-445.07 79,-385.82 79,-334.89 79,-334.89 79,-334.89 79,-170.3 79,-104.73 129.39,-99.3 189,-72 254.6,-41.96 471.12,-26.28 558.72,-21.04"/>
<polygon fill="black" stroke="black" points="558.97,-24.53 568.75,-20.45 558.56,-17.54 558.97,-24.53"/>
</g>
<!-- N1&#45;&gt;N6 -->
<g id="edge37" class="edge">
<title>N1&#45;&gt;N6</title>
<path fill="none" stroke="black" d="M90.12,-485.82C131.26,-470.93 203.24,-444.88 243.54,-430.3"/>
<polygon fill="black" stroke="black" points="244.85,-433.55 253.06,-426.85 242.47,-426.97 244.85,-433.55"/>
</g>
<!-- N1&#45;&gt;N1 -->
<g id="edge38" class="edge">
<title>N1&#45;&gt;N1</title>
<path fill="none" stroke="black" d="M90.1,-512.71C100.09,-512.56 108,-507.68 108,-498.09 108,-492.09 104.91,-487.93 100.15,-485.63"/>
<polygon fill="black" stroke="black" points="100.61,-482.15 90.1,-483.47 99.14,-488.99 100.61,-482.15"/>
</g>
<!-- N16&#45;&gt;N5 -->
<g id="edge49" class="edge">
<title>N16&#45;&gt;N5</title>
<path fill="none" stroke="red" d="M246.92,-153.09C243.29,-142.8 238.6,-129.51 234.49,-117.87"/>
<polygon fill="red" stroke="red" points="237.69,-116.43 231.06,-108.17 231.09,-118.76 237.69,-116.43"/>
</g>
<!-- N16&#45;&gt;N16 -->
<g id="edge50" class="edge">
<title>N16&#45;&gt;N16</title>
<path fill="none" stroke="black" d="M280.24,-186.28C290.02,-186.61 298,-181.61 298,-171.3 298,-164.85 294.88,-160.48 290.16,-158.19"/>
<polygon fill="black" stroke="black" points="290.72,-154.73 280.24,-156.31 289.41,-161.61 290.72,-154.73"/>
</g>
<!-- N4 -->
<g id="node20" class="node">
<title>N4</title>
<ellipse fill="none" stroke="blue" cx="348" cy="-1213.1" rx="21.5" ry="21.5"/>
<text text-anchor="middle" x="348" y="-1209.4" font-family="Times,serif" font-size="14.00">s4</text>
</g>
<!-- N4&#45;&gt;N17 -->
<g id="edge51" class="edge">
<title>N4&#45;&gt;N17</title>
<path fill="none" stroke="blue" d="M368.75,-1207.5C430.5,-1194 613.63,-1154 692.36,-1136.8"/>
<polygon fill="blue" stroke="blue" points="693.3,-1140.18 702.31,-1134.6 691.79,-1133.34 693.3,-1140.18"/>
</g>
<!-- N4&#45;&gt;N1 -->
<g id="edge52" class="edge">
<title>N4&#45;&gt;N1</title>
<path fill="none" stroke="black" d="M329.99,-1201C263.83,-1158.6 38,-999.78 38,-805.98 38,-805.98 38,-805.98 38,-653.09 38,-610.36 46.03,-561.58 52.16,-530.57"/>
<polygon fill="black" stroke="black" points="55.67,-530.89 54.23,-520.39 48.81,-529.49 55.67,-530.89"/>
</g>
</g>
</svg>
