<?xml version="1.0" encoding="UTF-8" standalone="no"?>
<!DOCTYPE svg PUBLIC "-//W3C//DTD SVG 1.1//EN"
 "http://www.w3.org/Graphics/SVG/1.1/DTD/svg11.dtd">
<!-- Generated by graphviz version 2.43.0 (0)
 -->
<!-- Title: G Pages: 1 -->
<svg width="557pt" height="1060pt"
 viewBox="0.00 0.00 557.00 1060.00" xmlns="http://www.w3.org/2000/svg" xmlns:xlink="http://www.w3.org/1999/xlink">
<g id="graph0" class="graph" transform="scale(1 1) rotate(0) translate(4 1056)">
<title>G</title>
<polygon fill="white" stroke="transparent" points="-4,4 -4,-1056 553,-1056 553,4 -4,4"/>
<!-- N0 -->
<g id="node1" class="node">
<title>N0</title>
<polygon fill="none" stroke="red" points="225,-144 81,-144 81,0 225,0 225,-144"/>
<text text-anchor="middle" x="153" y="-68.3" font-family="Times,serif" font-size="14.00">s0</text>
</g>
<!-- N1 -->
<g id="node2" class="node">
<title>N1</title>
<ellipse fill="none" stroke="red" cx="396" cy="-72" rx="72" ry="72"/>
<text text-anchor="middle" x="396" y="-68.3" font-family="Times,serif" font-size="14.00">s1</text>
</g>
<!-- N1&#45;&gt;N1 -->
<g id="edge1" class="edge">
<title>N1&#45;&gt;N1</title>
<path fill="none" stroke="black" d="M466.56,-87.61C478.08,-85.38 486,-80.17 486,-72 486,-66.38 482.26,-62.16 476.17,-59.35"/>
<polygon fill="black" stroke="black" points="477.15,-55.99 466.56,-56.39 475.08,-62.68 477.15,-55.99"/>
</g>
<!-- N1&#45;&gt;N1 -->
<g id="edge2" class="edge">
<title>N1&#45;&gt;N1</title>
<path fill="none" stroke="black" d="M459.77,-105.65C483.98,-106.95 504,-95.73 504,-72 504,-51.7 489.35,-40.56 469.96,-38.57"/>
<polygon fill="black" stroke="black" points="469.84,-35.07 459.77,-38.35 469.69,-42.07 469.84,-35.07"/>
</g>
<!-- N2 -->
<g id="node3" class="node">
<title>N2</title>
<polygon fill="none" stroke="red" points="144,-324 0,-324 0,-180 144,-180 144,-324"/>
<text text-anchor="middle" x="72" y="-248.3" font-family="Times,serif" font-size="14.00">s2</text>
</g>
<!-- N2&#45;&gt;N0 -->
<g id="edge3" class="edge">
<title>N2&#45;&gt;N0</title>
<path fill="none" stroke="red" d="M104.36,-179.88C108.35,-171.11 112.45,-162.1 116.5,-153.21"/>
<polygon fill="red" stroke="red" points="119.73,-154.55 120.69,-144 113.36,-151.65 119.73,-154.55"/>
</g>
<!-- N3 -->
<g id="node4" class="node">
<title>N3</title>
<ellipse fill="none" stroke="red" cx="234" cy="-252" rx="72" ry="72"/>
<text text-anchor="middle" x="234" y="-248.3" font-family="Times,serif" font-size="14.00">s3</text>
</g>
<!-- N3&#45;&gt;N0 -->
<g id="edge4" class="edge">
<title>N3&#45;&gt;N0</title>
<path fill="none" stroke="black" d="M204.53,-186.23C199.65,-175.52 194.54,-164.29 189.52,-153.25"/>
<polygon fill="black" stroke="black" points="192.65,-151.68 185.32,-144.03 186.28,-154.58 192.65,-151.68"/>
</g>
<!-- N3&#45;&gt;N1 -->
<g id="edge5" class="edge">
<title>N3&#45;&gt;N1</title>
<path fill="none" stroke="black" d="M282.17,-198.08C300.69,-177.72 321.97,-154.34 341.08,-133.34"/>
<polygon fill="black" stroke="black" points="343.87,-135.47 348.02,-125.72 338.7,-130.76 343.87,-135.47"/>
</g>
<!-- N4 -->
<g id="node5" class="node">
<title>N4</title>
<ellipse fill="none" stroke="red" cx="396" cy="-252" rx="72" ry="72"/>
<text text-anchor="middle" x="396" y="-248.3" font-family="Times,serif" font-size="14.00">s4</text>
</g>
<!-- N4&#45;&gt;N1 -->
<g id="edge6" class="edge">
<title>N4&#45;&gt;N1</title>
<path fill="none" stroke="black" d="M389.38,-180.14C389.26,-171.57 389.22,-162.76 389.27,-154.06"/>
<polygon fill="black" stroke="black" points="392.77,-153.95 389.38,-143.91 385.77,-153.87 392.77,-153.95"/>
</g>
<!-- N4&#45;&gt;N1 -->
<g id="edge7" class="edge">
<title>N4&#45;&gt;N1</title>
<path fill="none" stroke="black" d="M402.62,-180.14C402.74,-171.57 402.78,-162.76 402.73,-154.06"/>
<polygon fill="black" stroke="black" points="406.23,-153.87 402.62,-143.91 399.23,-153.95 406.23,-153.87"/>
</g>
<!-- N5 -->
<g id="node6" class="node">
<title>N5</title>
<polygon fill="none" stroke="blue" points="549,-504 405,-504 405,-360 549,-360 549,-504"/>
<text text-anchor="middle" x="477" y="-428.3" font-family="Times,serif" font-size="14.00">s5</text>
</g>
<!-- N7 -->
<g id="node7" class="node">
<title>N7</title>
<ellipse fill="none" stroke="blue" cx="462" cy="-616" rx="76" ry="76"/>
<ellipse fill="none" stroke="blue" cx="462" cy="-616" rx="80" ry="80"/>
<text text-anchor="middle" x="462" y="-612.3" font-family="Times,serif" font-size="14.00">s7</text>
</g>
<!-- N5&#45;&gt;N7 -->
<g id="edge8" class="edge">
<title>N5&#45;&gt;N7</title>
<path fill="none" stroke="black" d="M477.75,-504.02C477.16,-512.83 476.45,-521.9 475.67,-530.89"/>
<polygon fill="black" stroke="black" points="472.17,-530.69 474.75,-540.97 479.14,-531.33 472.17,-530.69"/>
</g>
<!-- N7&#45;&gt;N5 -->
<g id="edge9" class="edge">
<title>N7&#45;&gt;N5</title>
<path fill="none" stroke="black" d="M461.53,-539.92C462.13,-531.41 462.83,-522.7 463.6,-514.11"/>
<polygon fill="black" stroke="black" points="467.09,-514.38 464.54,-504.1 460.12,-513.73 467.09,-514.38"/>
</g>
<!-- N6 -->
<g id="node8" class="node">
<title>N6</title>
<polygon fill="none" stroke="red" points="387,-504 243,-504 243,-360 387,-360 387,-504"/>
<text text-anchor="middle" x="315" y="-428.3" font-family="Times,serif" font-size="14.00">s6</text>
</g>
<!-- N7&#45;&gt;N6 -->
<g id="edge10" class="edge">
<title>N7&#45;&gt;N6</title>
<path fill="none" stroke="black" d="M414.68,-556.41C403.35,-542.38 391.06,-527.17 379.11,-512.38"/>
<polygon fill="black" stroke="black" points="381.52,-509.8 372.52,-504.21 376.07,-514.19 381.52,-509.8"/>
</g>
<!-- N6&#45;&gt;N3 -->
<g id="edge11" class="edge">
<title>N6&#45;&gt;N3</title>
<path fill="none" stroke="red" d="M282.64,-359.88C277.76,-349.17 272.73,-338.1 267.82,-327.33"/>
<polygon fill="red" stroke="red" points="270.88,-325.61 263.56,-317.95 264.51,-328.5 270.88,-325.61"/>
</g>
<!-- N6&#45;&gt;N4 -->
<g id="edge12" class="edge">
<title>N6&#45;&gt;N4</title>
<path fill="none" stroke="red" d="M347.36,-359.88C352.24,-349.17 357.27,-338.1 362.18,-327.33"/>
<polygon fill="red" stroke="red" points="365.49,-328.5 366.44,-317.95 359.12,-325.61 365.49,-328.5"/>
</g>
<!-- N8 -->
<g id="node9" class="node">
<title>N8</title>
<polygon fill="none" stroke="blue" points="518,-872 374,-872 374,-728 518,-728 518,-872"/>
<text text-anchor="middle" x="446" y="-796.3" font-family="Times,serif" font-size="14.00">s8</text>
</g>
<!-- N8&#45;&gt;N7 -->
<g id="edge13" class="edge">
<title>N8&#45;&gt;N7</title>
<path fill="none" stroke="black" d="M452.25,-727.85C453,-719.4 453.76,-710.7 454.52,-702.08"/>
<polygon fill="black" stroke="black" points="458.02,-702.27 455.41,-692 451.04,-701.65 458.02,-702.27"/>
</g>
<!-- N9 -->
<g id="node10" class="node">
<title>N9</title>
<ellipse fill="none" stroke="blue" cx="394" cy="-980" rx="72" ry="72"/>
<text text-anchor="middle" x="394" y="-976.3" font-family="Times,serif" font-size="14.00">s9</text>
</g>
<!-- N9&#45;&gt;N6 -->
<g id="edge14" class="edge">
<title>N9&#45;&gt;N6</title>
<path fill="none" stroke="black" d="M373.88,-910.86C370.56,-898.03 367.42,-884.67 365,-872 341.34,-748.31 327.46,-602.72 320.55,-514.19"/>
<polygon fill="black" stroke="black" points="324.04,-513.91 319.78,-504.21 317.06,-514.45 324.04,-513.91"/>
</g>
<!-- N9&#45;&gt;N8 -->
<g id="edge15" class="edge">
<title>N9&#45;&gt;N8</title>
<path fill="none" stroke="blue" d="M413.96,-910.69C416.73,-901.2 419.59,-891.39 422.42,-881.7"/>
<polygon fill="blue" stroke="blue" points="425.79,-882.66 425.24,-872.08 419.07,-880.69 425.79,-882.66"/>
</g>
</g>
</svg>
