<?xml version="1.0" encoding="UTF-8" standalone="no"?>
<!DOCTYPE svg PUBLIC "-//W3C//DTD SVG 1.1//EN"
 "http://www.w3.org/Graphics/SVG/1.1/DTD/svg11.dtd">
<!-- Generated by graphviz version 2.43.0 (0)
 -->
<!-- Title: G Pages: 1 -->
<svg width="494pt" height="1440pt"
 viewBox="0.00 0.00 494.00 1440.00" xmlns="http://www.w3.org/2000/svg" xmlns:xlink="http://www.w3.org/1999/xlink">
<g id="graph0" class="graph" transform="scale(1 1) rotate(0) translate(4 1436)">
<title>G</title>
<polygon fill="white" stroke="transparent" points="-4,4 -4,-1436 490,-1436 490,4 -4,4"/>
<!-- N0 -->
<g id="node1" class="node">
<title>N0</title>
<polygon fill="none" stroke="red" points="310,-156 158,-156 158,-4 310,-4 310,-156"/>
<polygon fill="none" stroke="red" points="314,-160 154,-160 154,0 314,0 314,-160"/>
<text text-anchor="middle" x="234" y="-76.3" font-family="Times,serif" font-size="14.00">s0</text>
</g>
<!-- N0&#45;&gt;N0 -->
<g id="edge1" class="edge">
<title>N0&#45;&gt;N0</title>
<path fill="none" stroke="black" d="M310.35,-95.73C320.93,-93.14 328,-87.89 328,-80 328,-74.82 324.95,-70.78 319.87,-67.88"/>
<polygon fill="black" stroke="black" points="320.94,-64.55 310.35,-64.27 318.46,-71.09 320.94,-64.55"/>
</g>
<!-- N0&#45;&gt;N0 -->
<g id="edge2" class="edge">
<title>N0&#45;&gt;N0</title>
<path fill="none" stroke="black" d="M310.17,-114.97C330.54,-113.04 346,-101.39 346,-80 346,-62.29 335.4,-51.25 320.18,-46.89"/>
<polygon fill="black" stroke="black" points="320.64,-43.41 310.17,-45.03 319.37,-50.3 320.64,-43.41"/>
</g>
<!-- N1 -->
<g id="node2" class="node">
<title>N1</title>
<ellipse fill="none" stroke="red" cx="234" cy="-268" rx="76" ry="76"/>
<ellipse fill="none" stroke="red" cx="234" cy="-268" rx="80" ry="80"/>
<text text-anchor="middle" x="234" y="-264.3" font-family="Times,serif" font-size="14.00">s1</text>
</g>
<!-- N1&#45;&gt;N0 -->
<g id="edge3" class="edge">
<title>N1&#45;&gt;N0</title>
<path fill="none" stroke="black" d="M227.37,-192.15C227.26,-183.66 227.22,-174.96 227.27,-166.35"/>
<polygon fill="black" stroke="black" points="230.77,-166.33 227.36,-156.3 223.77,-166.27 230.77,-166.33"/>
</g>
<!-- N1&#45;&gt;N0 -->
<g id="edge4" class="edge">
<title>N1&#45;&gt;N0</title>
<path fill="none" stroke="black" d="M240.63,-192.15C240.74,-183.66 240.78,-174.96 240.73,-166.35"/>
<polygon fill="black" stroke="black" points="244.23,-166.27 240.64,-156.3 237.23,-166.33 244.23,-166.27"/>
</g>
<!-- N2 -->
<g id="node3" class="node">
<title>N2</title>
<polygon fill="none" stroke="red" points="468,-524 324,-524 324,-380 468,-380 468,-524"/>
<text text-anchor="middle" x="396" y="-448.3" font-family="Times,serif" font-size="14.00">s2</text>
</g>
<!-- N2&#45;&gt;N0 -->
<g id="edge5" class="edge">
<title>N2&#45;&gt;N0</title>
<path fill="none" stroke="red" d="M382.23,-379.94C370.13,-326.36 349.61,-252.08 319,-192 314.32,-182.82 308.86,-173.64 303,-164.7"/>
<polygon fill="red" stroke="red" points="305.77,-162.55 297.28,-156.21 299.96,-166.46 305.77,-162.55"/>
</g>
<!-- N5 -->
<g id="node4" class="node">
<title>N5</title>
<polygon fill="none" stroke="red" points="468,-704 324,-704 324,-560 468,-560 468,-704"/>
<text text-anchor="middle" x="396" y="-628.3" font-family="Times,serif" font-size="14.00">s5</text>
</g>
<!-- N2&#45;&gt;N5 -->
<g id="edge6" class="edge">
<title>N2&#45;&gt;N5</title>
<path fill="none" stroke="black" d="M402.63,-524C402.74,-532.49 402.78,-541.21 402.73,-549.83"/>
<polygon fill="black" stroke="black" points="399.23,-549.85 402.63,-559.88 406.23,-549.92 399.23,-549.85"/>
</g>
<!-- N5&#45;&gt;N2 -->
<g id="edge7" class="edge">
<title>N5&#45;&gt;N2</title>
<path fill="none" stroke="black" d="M389.37,-559.88C389.25,-551.39 389.22,-542.67 389.27,-534.06"/>
<polygon fill="black" stroke="black" points="392.77,-534.03 389.37,-524 385.77,-533.96 392.77,-534.03"/>
</g>
<!-- N7 -->
<g id="node5" class="node">
<title>N7</title>
<ellipse fill="none" stroke="red" cx="396" cy="-816" rx="76" ry="76"/>
<ellipse fill="none" stroke="red" cx="396" cy="-816" rx="80" ry="80"/>
<text text-anchor="middle" x="396" y="-812.3" font-family="Times,serif" font-size="14.00">s7</text>
</g>
<!-- N5&#45;&gt;N7 -->
<g id="edge8" class="edge">
<title>N5&#45;&gt;N7</title>
<path fill="none" stroke="red" d="M402.6,-704.01C402.73,-712.54 402.77,-721.32 402.74,-730.02"/>
<polygon fill="red" stroke="red" points="399.24,-730.16 402.65,-740.19 406.24,-730.22 399.24,-730.16"/>
</g>
<!-- N7&#45;&gt;N5 -->
<g id="edge9" class="edge">
<title>N7&#45;&gt;N5</title>
<path fill="none" stroke="black" d="M389.35,-740.19C389.24,-731.59 389.22,-722.79 389.29,-714.12"/>
<polygon fill="black" stroke="black" points="392.79,-714.05 389.4,-704.01 385.79,-713.97 392.79,-714.05"/>
</g>
<!-- N6 -->
<g id="node6" class="node">
<title>N6</title>
<polygon fill="none" stroke="red" points="306,-704 162,-704 162,-560 306,-560 306,-704"/>
<text text-anchor="middle" x="234" y="-628.3" font-family="Times,serif" font-size="14.00">s6</text>
</g>
<!-- N7&#45;&gt;N6 -->
<g id="edge10" class="edge">
<title>N7&#45;&gt;N6</title>
<path fill="none" stroke="black" d="M345.63,-758.41C332.46,-743.62 318.02,-727.4 304.03,-711.68"/>
<polygon fill="black" stroke="black" points="306.46,-709.15 297.2,-704.01 301.24,-713.81 306.46,-709.15"/>
</g>
<!-- N3 -->
<g id="node7" class="node">
<title>N3</title>
<ellipse fill="none" stroke="red" cx="72" cy="-452" rx="72" ry="72"/>
<text text-anchor="middle" x="72" y="-448.3" font-family="Times,serif" font-size="14.00">s3</text>
</g>
<!-- N6&#45;&gt;N3 -->
<g id="edge11" class="edge">
<title>N6&#45;&gt;N3</title>
<path fill="none" stroke="red" d="M169.27,-559.88C155.32,-544.54 140.68,-528.47 127.13,-513.58"/>
<polygon fill="red" stroke="red" points="129.47,-510.95 120.15,-505.91 124.29,-515.66 129.47,-510.95"/>
</g>
<!-- N4 -->
<g id="node8" class="node">
<title>N4</title>
<ellipse fill="none" stroke="red" cx="234" cy="-452" rx="72" ry="72"/>
<text text-anchor="middle" x="234" y="-448.3" font-family="Times,serif" font-size="14.00">s4</text>
</g>
<!-- N6&#45;&gt;N4 -->
<g id="edge12" class="edge">
<title>N6&#45;&gt;N4</title>
<path fill="none" stroke="red" d="M234,-559.88C234,-551.39 234,-542.67 234,-534.06"/>
<polygon fill="red" stroke="red" points="237.5,-534 234,-524 230.5,-534 237.5,-534"/>
</g>
<!-- N3&#45;&gt;N0 -->
<g id="edge13" class="edge">
<title>N3&#45;&gt;N0</title>
<path fill="none" stroke="black" d="M85.52,-381.05C97.59,-327.39 118.17,-252.5 149,-192 153.68,-182.82 159.14,-173.64 165,-164.7"/>
<polygon fill="black" stroke="black" points="168.04,-166.46 170.72,-156.21 162.23,-162.55 168.04,-166.46"/>
</g>
<!-- N3&#45;&gt;N1 -->
<g id="edge14" class="edge">
<title>N3&#45;&gt;N1</title>
<path fill="none" stroke="black" d="M119.73,-397.38C137.68,-377.21 158.28,-354.07 176.99,-333.04"/>
<polygon fill="black" stroke="black" points="179.76,-335.19 183.8,-325.4 174.53,-330.54 179.76,-335.19"/>
</g>
<!-- N4&#45;&gt;N1 -->
<g id="edge15" class="edge">
<title>N4&#45;&gt;N1</title>
<path fill="none" stroke="black" d="M227.4,-380.11C227.27,-371.58 227.23,-362.79 227.26,-354.08"/>
<polygon fill="black" stroke="black" points="230.76,-353.93 227.34,-343.9 223.76,-353.87 230.76,-353.93"/>
</g>
<!-- N4&#45;&gt;N1 -->
<g id="edge16" class="edge">
<title>N4&#45;&gt;N1</title>
<path fill="none" stroke="black" d="M240.6,-380.11C240.73,-371.58 240.77,-362.79 240.74,-354.08"/>
<polygon fill="black" stroke="black" points="244.24,-353.87 240.66,-343.9 237.24,-353.93 244.24,-353.87"/>
</g>
<!-- N8 -->
<g id="node9" class="node">
<title>N8</title>
<polygon fill="none" stroke="red" points="468,-1072 324,-1072 324,-928 468,-928 468,-1072"/>
<text text-anchor="middle" x="396" y="-996.3" font-family="Times,serif" font-size="14.00">s8</text>
</g>
<!-- N8&#45;&gt;N7 -->
<g id="edge17" class="edge">
<title>N8&#45;&gt;N7</title>
<path fill="none" stroke="red" d="M396,-927.85C396,-919.4 396,-910.7 396,-902.08"/>
<polygon fill="red" stroke="red" points="399.5,-902 396,-892 392.5,-902 399.5,-902"/>
</g>
<!-- N8&#45;&gt;N8 -->
<g id="edge18" class="edge">
<title>N8&#45;&gt;N8</title>
<path fill="none" stroke="black" d="M468.03,-1030.6C478.75,-1025.9 486,-1015.6 486,-1000 486,-989 482.41,-980.69 476.56,-975.07"/>
<polygon fill="black" stroke="black" points="478.29,-972.02 468.03,-969.38 474.41,-977.84 478.29,-972.02"/>
</g>
<!-- N9 -->
<g id="node10" class="node">
<title>N9</title>
<ellipse fill="none" stroke="red" cx="234" cy="-1180" rx="72" ry="72"/>
<text text-anchor="middle" x="234" y="-1176.3" font-family="Times,serif" font-size="14.00">s9</text>
</g>
<!-- N9&#45;&gt;N6 -->
<g id="edge19" class="edge">
<title>N9&#45;&gt;N6</title>
<path fill="none" stroke="black" d="M234,-1107.9C234,-1006.5 234,-820.78 234,-714.12"/>
<polygon fill="black" stroke="black" points="237.5,-714.05 234,-704.05 230.5,-714.05 237.5,-714.05"/>
</g>
<!-- N9&#45;&gt;N8 -->
<g id="edge20" class="edge">
<title>N9&#45;&gt;N8</title>
<path fill="none" stroke="black" d="M282.17,-1126.1C295.39,-1111.5 310.02,-1095.5 324.27,-1079.8"/>
<polygon fill="black" stroke="black" points="327.05,-1081.94 331.22,-1072.2 321.89,-1077.22 327.05,-1081.94"/>
</g>
<!-- N10 -->
<g id="node11" class="node">
<title>N10</title>
<ellipse fill="none" stroke="blue" cx="396" cy="-1180" rx="72" ry="72"/>
<text text-anchor="middle" x="396" y="-1176.3" font-family="Times,serif" font-size="14.00">s10</text>
</g>
<!-- N10&#45;&gt;N8 -->
<g id="edge21" class="edge">
<title>N10&#45;&gt;N8</title>
<path fill="none" stroke="black" d="M396,-1107.9C396,-1099.4 396,-1090.7 396,-1082.1"/>
<polygon fill="black" stroke="black" points="399.5,-1082 396,-1072 392.5,-1082 399.5,-1082"/>
</g>
<!-- N10&#45;&gt;N10 -->
<g id="edge22" class="edge">
<title>N10&#45;&gt;N10</title>
<path fill="none" stroke="blue" d="M460.31,-1213C475.12,-1210.2 486,-1199.2 486,-1180 486,-1165.3 479.62,-1155.4 469.99,-1150.3"/>
<polygon fill="blue" stroke="blue" points="470.9,-1146.91 460.31,-1147 468.65,-1153.54 470.9,-1146.91"/>
</g>
<!-- N11 -->
<g id="node12" class="node">
<title>N11</title>
<polygon fill="none" stroke="blue" points="468,-1432 324,-1432 324,-1288 468,-1288 468,-1432"/>
<text text-anchor="middle" x="396" y="-1356.3" font-family="Times,serif" font-size="14.00">s11</text>
</g>
<!-- N11&#45;&gt;N10 -->
<g id="edge23" class="edge">
<title>N11&#45;&gt;N10</title>
<path fill="none" stroke="black" d="M389.37,-1287.9C389.25,-1279.3 389.22,-1270.5 389.28,-1261.8"/>
<polygon fill="black" stroke="black" points="392.78,-1261.73 389.38,-1251.7 385.78,-1261.66 392.78,-1261.73"/>
</g>
<!-- N11&#45;&gt;N10 -->
<g id="edge24" class="edge">
<title>N11&#45;&gt;N10</title>
<path fill="none" stroke="black" d="M402.63,-1287.9C402.75,-1279.3 402.78,-1270.5 402.72,-1261.8"/>
<polygon fill="black" stroke="black" points="406.22,-1261.66 402.62,-1251.7 399.22,-1261.73 406.22,-1261.66"/>
</g>
</g>
</svg>
