<?xml version="1.0" encoding="UTF-8" standalone="no"?>
<!DOCTYPE svg PUBLIC "-//W3C//DTD SVG 1.1//EN"
 "http://www.w3.org/Graphics/SVG/1.1/DTD/svg11.dtd">
<!-- Generated by graphviz version 2.43.0 (0)
 -->
<!-- Title: G Pages: 1 -->
<svg width="481pt" height="1537pt"
 viewBox="0.00 0.00 481.00 1537.00" xmlns="http://www.w3.org/2000/svg" xmlns:xlink="http://www.w3.org/1999/xlink">
<g id="graph0" class="graph" transform="scale(1 1) rotate(0) translate(4 1533)">
<title>G</title>
<polygon fill="white" stroke="transparent" points="-4,4 -4,-1533 477,-1533 477,4 -4,4"/>
<!-- N0 -->
<g id="node1" class="node">
<title>N0</title>
<polygon fill="none" stroke="red" points="268,-156 116,-156 116,-4 268,-4 268,-156"/>
<polygon fill="none" stroke="red" points="272,-160 112,-160 112,0 272,0 272,-160"/>
<text text-anchor="middle" x="192" y="-76.3" font-family="Times,serif" font-size="14.00">s0</text>
</g>
<!-- N0&#45;&gt;N0 -->
<g id="edge1" class="edge">
<title>N0&#45;&gt;N0</title>
<path fill="none" stroke="black" d="M268.35,-88.37C278.93,-86.99 286,-84.2 286,-80 286,-77.31 283.1,-75.2 278.23,-73.67"/>
<polygon fill="black" stroke="black" points="278.85,-70.22 268.35,-71.63 277.44,-77.08 278.85,-70.22"/>
<text text-anchor="middle" x="295.5" y="-76.3" font-family="Times,serif" font-size="14.00">b1</text>
</g>
<!-- N0&#45;&gt;N0 -->
<g id="edge2" class="edge">
<title>N0&#45;&gt;N0</title>
<path fill="none" stroke="black" d="M268.2,-98.62C289.06,-97.68 305,-91.47 305,-80 305,-70.5 294.07,-64.61 278.46,-62.33"/>
<polygon fill="black" stroke="black" points="278.48,-58.81 268.2,-61.38 277.83,-65.79 278.48,-58.81"/>
<text text-anchor="middle" x="314.5" y="-76.3" font-family="Times,serif" font-size="14.00">b2</text>
</g>
<!-- N1 -->
<g id="node2" class="node">
<title>N1</title>
<ellipse fill="none" stroke="red" cx="193" cy="-283" rx="76" ry="76"/>
<ellipse fill="none" stroke="red" cx="193" cy="-283" rx="80" ry="80"/>
<text text-anchor="middle" x="193" y="-279.3" font-family="Times,serif" font-size="14.00">s1</text>
</g>
<!-- N1&#45;&gt;N0 -->
<g id="edge3" class="edge">
<title>N1&#45;&gt;N0</title>
<path fill="none" stroke="black" d="M175.76,-208.88C174.64,-202.19 173.69,-195.49 173,-189 172.21,-181.56 172.11,-173.86 172.51,-166.16"/>
<polygon fill="black" stroke="black" points="176.01,-166.29 173.3,-156.05 169.03,-165.75 176.01,-166.29"/>
<text text-anchor="middle" x="182" y="-177.8" font-family="Times,serif" font-size="14.00">a1</text>
</g>
<!-- N1&#45;&gt;N0 -->
<g id="edge4" class="edge">
<title>N1&#45;&gt;N0</title>
<path fill="none" stroke="black" d="M192.63,-206.87C192.56,-193.63 192.49,-179.76 192.42,-166.27"/>
<polygon fill="black" stroke="black" points="195.92,-166.02 192.37,-156.04 188.92,-166.06 195.92,-166.02"/>
<text text-anchor="middle" x="202" y="-177.8" font-family="Times,serif" font-size="14.00">a2</text>
</g>
<!-- N2 -->
<g id="node3" class="node">
<title>N2</title>
<polygon fill="none" stroke="red" points="468,-554 324,-554 324,-410 468,-410 468,-554"/>
<text text-anchor="middle" x="396" y="-478.3" font-family="Times,serif" font-size="14.00">s2</text>
</g>
<!-- N2&#45;&gt;N0 -->
<g id="edge5" class="edge">
<title>N2&#45;&gt;N0</title>
<path fill="none" stroke="black" d="M369.77,-409.99C347.92,-353.61 314.56,-273.49 278,-207 270.28,-192.97 261.42,-178.54 252.37,-164.68"/>
<polygon fill="black" stroke="black" points="255.16,-162.56 246.73,-156.14 249.32,-166.41 255.16,-162.56"/>
<text text-anchor="middle" x="357.5" y="-279.3" font-family="Times,serif" font-size="14.00">b2</text>
</g>
<!-- N5 -->
<g id="node4" class="node">
<title>N5</title>
<polygon fill="none" stroke="green" points="437,-749 293,-749 293,-605 437,-605 437,-749"/>
<text text-anchor="middle" x="365" y="-673.3" font-family="Times,serif" font-size="14.00">s5</text>
</g>
<!-- N2&#45;&gt;N5 -->
<g id="edge6" class="edge">
<title>N2&#45;&gt;N5</title>
<path fill="none" stroke="black" d="M384.56,-554.22C382.44,-567.41 380.21,-581.29 378.05,-594.75"/>
<polygon fill="black" stroke="black" points="374.54,-594.53 376.41,-604.96 381.45,-595.64 374.54,-594.53"/>
<text text-anchor="middle" x="390.5" y="-575.8" font-family="Times,serif" font-size="14.00">b1</text>
</g>
<!-- N5&#45;&gt;N2 -->
<g id="edge7" class="edge">
<title>N5&#45;&gt;N2</title>
<path fill="none" stroke="black" d="M353.24,-604.88C353.02,-593.8 353.74,-582.54 356,-572 356.6,-569.2 357.29,-566.39 358.07,-563.57"/>
<polygon fill="black" stroke="black" points="361.42,-564.59 360.98,-554 354.72,-562.55 361.42,-564.59"/>
<text text-anchor="middle" x="365.5" y="-575.8" font-family="Times,serif" font-size="14.00">b2</text>
</g>
<!-- N7 -->
<g id="node5" class="node">
<title>N7</title>
<polygon fill="none" stroke="green" points="324,-944 252,-872 324,-800 396,-872 324,-944"/>
<text text-anchor="middle" x="324" y="-868.3" font-family="Times,serif" font-size="14.00">s7</text>
</g>
<!-- N5&#45;&gt;N7 -->
<g id="edge8" class="edge">
<title>N5&#45;&gt;N7</title>
<path fill="none" stroke="black" d="M349.99,-749.05C347.65,-760.08 345.26,-771.35 343,-782 341.61,-788.54 340.16,-795.35 338.71,-802.17"/>
<polygon fill="black" stroke="black" points="335.25,-801.61 336.59,-812.12 342.1,-803.07 335.25,-801.61"/>
<text text-anchor="middle" x="355.5" y="-770.8" font-family="Times,serif" font-size="14.00">b1</text>
</g>
<!-- N7&#45;&gt;N5 -->
<g id="edge9" class="edge">
<title>N7&#45;&gt;N5</title>
<path fill="none" stroke="black" d="M316.99,-806.96C316.97,-793.62 318.02,-779.75 321,-767 321.65,-764.21 322.41,-761.4 323.25,-758.6"/>
<polygon fill="black" stroke="black" points="326.58,-759.67 326.4,-749.08 319.94,-757.47 326.58,-759.67"/>
<text text-anchor="middle" x="330" y="-770.8" font-family="Times,serif" font-size="14.00">a1</text>
</g>
<!-- N6 -->
<g id="node6" class="node">
<title>N6</title>
<polygon fill="none" stroke="red" points="275,-749 131,-749 131,-605 275,-605 275,-749"/>
<text text-anchor="middle" x="203" y="-673.3" font-family="Times,serif" font-size="14.00">s6</text>
</g>
<!-- N7&#45;&gt;N6 -->
<g id="edge10" class="edge">
<title>N7&#45;&gt;N6</title>
<path fill="none" stroke="black" d="M296.54,-827.21C283.69,-806.7 267.96,-781.62 253.1,-757.91"/>
<polygon fill="black" stroke="black" points="255.95,-755.86 247.67,-749.25 250.02,-759.58 255.95,-755.86"/>
<text text-anchor="middle" x="276" y="-770.8" font-family="Times,serif" font-size="14.00">a2</text>
</g>
<!-- N3 -->
<g id="node7" class="node">
<title>N3</title>
<ellipse fill="none" stroke="red" cx="72" cy="-482" rx="72" ry="72"/>
<text text-anchor="middle" x="72" y="-478.3" font-family="Times,serif" font-size="14.00">s3</text>
</g>
<!-- N6&#45;&gt;N3 -->
<g id="edge11" class="edge">
<title>N6&#45;&gt;N3</title>
<path fill="none" stroke="black" d="M154.78,-604.96C142.74,-587.22 129.87,-568.25 117.94,-550.68"/>
<polygon fill="black" stroke="black" points="120.69,-548.49 112.17,-542.19 114.9,-552.43 120.69,-548.49"/>
<text text-anchor="middle" x="151.5" y="-575.8" font-family="Times,serif" font-size="14.00">b1</text>
</g>
<!-- N4 -->
<g id="node8" class="node">
<title>N4</title>
<ellipse fill="none" stroke="red" cx="234" cy="-482" rx="72" ry="72"/>
<text text-anchor="middle" x="234" y="-478.3" font-family="Times,serif" font-size="14.00">s4</text>
</g>
<!-- N6&#45;&gt;N4 -->
<g id="edge12" class="edge">
<title>N6&#45;&gt;N4</title>
<path fill="none" stroke="black" d="M214.41,-604.96C216.59,-591.38 218.89,-577.07 221.11,-563.23"/>
<polygon fill="black" stroke="black" points="224.58,-563.68 222.72,-553.25 217.67,-562.56 224.58,-563.68"/>
<text text-anchor="middle" x="228.5" y="-575.8" font-family="Times,serif" font-size="14.00">b2</text>
</g>
<!-- N3&#45;&gt;N0 -->
<g id="edge13" class="edge">
<title>N3&#45;&gt;N0</title>
<path fill="none" stroke="black" d="M65.13,-410.06C62.31,-353.19 64.42,-272.37 90,-207 95.78,-192.24 103.95,-177.88 113.18,-164.45"/>
<polygon fill="black" stroke="black" points="116.09,-166.39 119.05,-156.22 110.39,-162.33 116.09,-166.39"/>
<text text-anchor="middle" x="99" y="-279.3" font-family="Times,serif" font-size="14.00">a1</text>
</g>
<!-- N3&#45;&gt;N1 -->
<g id="edge14" class="edge">
<title>N3&#45;&gt;N1</title>
<path fill="none" stroke="black" d="M109.29,-420.29C121.62,-400.21 135.46,-377.68 148.29,-356.79"/>
<polygon fill="black" stroke="black" points="151.27,-358.62 153.53,-348.27 145.31,-354.95 151.27,-358.62"/>
<text text-anchor="middle" x="142" y="-380.8" font-family="Times,serif" font-size="14.00">a2</text>
</g>
<!-- N4&#45;&gt;N1 -->
<g id="edge15" class="edge">
<title>N4&#45;&gt;N1</title>
<path fill="none" stroke="black" d="M201.69,-417.42C198.55,-409.05 195.85,-400.44 194,-392 192.39,-384.68 191.27,-377.01 190.51,-369.28"/>
<polygon fill="black" stroke="black" points="193.98,-368.8 189.71,-359.11 187.01,-369.35 193.98,-368.8"/>
<text text-anchor="middle" x="203" y="-380.8" font-family="Times,serif" font-size="14.00">a1</text>
</g>
<!-- N4&#45;&gt;N1 -->
<g id="edge16" class="edge">
<title>N4&#45;&gt;N1</title>
<path fill="none" stroke="black" d="M219.49,-411.27C216.55,-397.15 213.43,-382.16 210.4,-367.62"/>
<polygon fill="black" stroke="black" points="213.79,-366.72 208.33,-357.64 206.93,-368.14 213.79,-366.72"/>
<text text-anchor="middle" x="223" y="-380.8" font-family="Times,serif" font-size="14.00">a2</text>
</g>
<!-- N8 -->
<g id="node9" class="node">
<title>N8</title>
<polygon fill="none" stroke="green" points="396,-1139 252,-1139 252,-995 396,-995 396,-1139"/>
<text text-anchor="middle" x="324" y="-1063.3" font-family="Times,serif" font-size="14.00">s8</text>
</g>
<!-- N8&#45;&gt;N7 -->
<g id="edge17" class="edge">
<title>N8&#45;&gt;N7</title>
<path fill="none" stroke="black" d="M324,-994.96C324,-981.77 324,-967.89 324,-954.42"/>
<polygon fill="black" stroke="black" points="327.5,-954.22 324,-944.22 320.5,-954.22 327.5,-954.22"/>
<text text-anchor="middle" x="333.5" y="-965.8" font-family="Times,serif" font-size="14.00">b1</text>
</g>
<!-- N8&#45;&gt;N8 -->
<g id="edge18" class="edge">
<title>N8&#45;&gt;N8</title>
<path fill="none" stroke="black" d="M396.03,-1083.3C406.75,-1080.8 414,-1075.3 414,-1067 414,-1061.5 410.88,-1057.3 405.7,-1054.3"/>
<polygon fill="black" stroke="black" points="406.62,-1050.91 396.03,-1050.7 404.18,-1057.47 406.62,-1050.91"/>
<text text-anchor="middle" x="423.5" y="-1063.3" font-family="Times,serif" font-size="14.00">b2</text>
</g>
<!-- N9 -->
<g id="node10" class="node">
<title>N9</title>
<ellipse fill="none" stroke="green" cx="203" cy="-1262" rx="72" ry="72"/>
<text text-anchor="middle" x="203" y="-1258.3" font-family="Times,serif" font-size="14.00">s9</text>
</g>
<!-- N9&#45;&gt;N6 -->
<g id="edge19" class="edge">
<title>N9&#45;&gt;N6</title>
<path fill="none" stroke="black" d="M203,-1189.8C203,-1081 203,-873.94 203,-759.36"/>
<polygon fill="black" stroke="black" points="206.5,-759.24 203,-749.24 199.5,-759.24 206.5,-759.24"/>
<text text-anchor="middle" x="212" y="-965.8" font-family="Times,serif" font-size="14.00">a2</text>
</g>
<!-- N9&#45;&gt;N8 -->
<g id="edge20" class="edge">
<title>N9&#45;&gt;N8</title>
<path fill="none" stroke="black" d="M240.95,-1200.5C251.44,-1183.7 262.97,-1165.3 274.03,-1147.7"/>
<polygon fill="black" stroke="black" points="277.07,-1149.43 279.41,-1139.1 271.14,-1145.72 277.07,-1149.43"/>
<text text-anchor="middle" x="276" y="-1160.8" font-family="Times,serif" font-size="14.00">a1</text>
</g>
<!-- N10 -->
<g id="node11" class="node">
<title>N10</title>
<ellipse fill="none" stroke="blue" cx="365" cy="-1262" rx="72" ry="72"/>
<text text-anchor="middle" x="365" y="-1258.3" font-family="Times,serif" font-size="14.00">s10</text>
</g>
<!-- N10&#45;&gt;N8 -->
<g id="edge21" class="edge">
<title>N10&#45;&gt;N8</title>
<path fill="none" stroke="black" d="M350.2,-1191.3C347.3,-1177.7 344.24,-1163.3 341.27,-1149.3"/>
<polygon fill="black" stroke="black" points="344.63,-1148.25 339.12,-1139.2 337.78,-1149.71 344.63,-1148.25"/>
<text text-anchor="middle" x="354" y="-1160.8" font-family="Times,serif" font-size="14.00">a1</text>
</g>
<!-- N10&#45;&gt;N10 -->
<g id="edge22" class="edge">
<title>N10&#45;&gt;N10</title>
<path fill="none" stroke="black" d="M435.19,-1278.7C446.91,-1276.4 455,-1270.8 455,-1262 455,-1255.9 451.18,-1251.4 444.98,-1248.4"/>
<polygon fill="black" stroke="black" points="445.78,-1244.98 435.19,-1245.3 443.67,-1251.66 445.78,-1244.98"/>
<text text-anchor="middle" x="464" y="-1258.3" font-family="Times,serif" font-size="14.00">a2</text>
</g>
<!-- N11 -->
<g id="node12" class="node">
<title>N11</title>
<polygon fill="none" stroke="blue" points="437,-1529 293,-1529 293,-1385 437,-1385 437,-1529"/>
<text text-anchor="middle" x="365" y="-1453.3" font-family="Times,serif" font-size="14.00">s11</text>
</g>
<!-- N11&#45;&gt;N10 -->
<g id="edge23" class="edge">
<title>N11&#45;&gt;N10</title>
<path fill="none" stroke="black" d="M345.54,-1384.9C344.21,-1373.9 343.81,-1362.7 345,-1352 345.36,-1348.8 345.79,-1345.5 346.27,-1342.2"/>
<polygon fill="black" stroke="black" points="349.75,-1342.63 347.89,-1332.2 342.84,-1341.51 349.75,-1342.63"/>
<text text-anchor="middle" x="354.5" y="-1355.8" font-family="Times,serif" font-size="14.00">b1</text>
</g>
<!-- N11&#45;&gt;N10 -->
<g id="edge24" class="edge">
<title>N11&#45;&gt;N10</title>
<path fill="none" stroke="black" d="M365,-1385C365,-1371.8 365,-1357.9 365,-1344.4"/>
<polygon fill="black" stroke="black" points="368.5,-1344.2 365,-1334.2 361.5,-1344.2 368.5,-1344.2"/>
<text text-anchor="middle" x="374.5" y="-1355.8" font-family="Times,serif" font-size="14.00">b2</text>
</g>
</g>
</svg>
